<svg width="400" height="77" viewBox="0 0 400 77" fill="none" xmlns="http://www.w3.org/2000/svg">
<g clip-path="url(#clip0_2021_17010)">
<path d="M159.333 33.6324C159.333 33.6324 159.333 36.6035 159.335 38.0174C159.746 37.207 162.45 32.6275 167.878 32.6275H169.56V40.1946H167.84C162.86 40.1946 160.102 43.8574 160.102 48.4194V65.2578H151.219V33.6324H159.333Z" fill="#DD1B2D"/>
<path d="M252.144 37.4685V33.632H260.255V76.4492H251.352V65.2575H242.155C232.812 65.2575 225.539 57.9565 225.539 48.9492C225.539 39.6349 233.168 32.6272 241.66 32.6272C248.553 32.6272 252.144 37.4685 252.144 37.4685ZM251.352 49.0208C251.352 44.2236 247.384 40.3636 242.527 40.3636C237.741 40.3636 233.849 44.0114 233.708 48.758C233.565 53.5965 237.412 57.6783 242.527 57.6783L251.352 57.6749V49.0208Z" fill="#DD1B2D"/>
<path fill-rule="evenodd" clip-rule="evenodd" d="M142.395 22.0129V29.6086H133.512V22.0129H142.395ZM142.395 33.6324V65.2578H133.512V33.6324H142.395Z" fill="#DD1B2D"/>
<path d="M114.907 65.2578V50.9704H98.9337V65.2578H89.9414L89.9514 40.1064C89.9514 30.1239 98.5442 22.0129 109.183 22.0129H123.9V65.2578H114.907ZM109.183 29.6086C103.531 29.6086 98.9365 33.9257 98.9365 39.2753V43.7914H114.906L114.907 29.6086H109.183Z" fill="#DD1B2D"/>
<path fill-rule="evenodd" clip-rule="evenodd" d="M219.207 33.6324V65.2578H210.324V33.6324H219.207ZM219.207 22.0129V29.6086H210.324V22.0129H219.207Z" fill="#DD1B2D"/>
<path fill-rule="evenodd" clip-rule="evenodd" d="M317.481 33.6324V65.2578H308.598V33.6324H317.481ZM317.481 22.0129V29.6086H308.598V22.0129H317.481Z" fill="#DD1B2D"/>
<path fill-rule="evenodd" clip-rule="evenodd" d="M268.09 33.6325H276.97V51.3066C276.97 56.1237 280.515 58.6923 283.962 58.6923C287.292 58.6923 291.161 56.4853 291.161 51.3077V33.6325H300.042V65.2689H291.928V61.4379L291.792 61.5917C289.213 64.5203 285.583 66.2715 281.391 66.2715C274.575 66.2715 268.098 60.6938 268.098 52.6086L268.09 33.6325Z" fill="#DD1B2D"/>
<path d="M192.88 22.0129V57.6752H204.456V65.2368L183.887 65.2578V22.0129H192.88Z" fill="#DD1B2D"/>
<path d="M350.405 61.422V65.2557H358.516V22.0125H349.615V33.632H340.418C331.075 33.632 323.805 40.9341 323.805 49.9419C323.805 59.2547 331.43 66.2617 339.922 66.2617C346.814 66.2617 350.405 61.422 350.405 61.422ZM349.615 49.8703C349.615 54.6652 345.646 58.5243 340.79 58.5243C336.005 58.5243 332.113 54.8775 331.974 50.1315C331.827 45.293 335.675 41.2123 340.79 41.2123L349.615 41.2151V49.8703Z" fill="#DD1B2D"/>
<path d="M382.722 66.2715C372.844 66.2715 364.832 58.7391 364.832 49.449C364.832 40.1573 372.836 32.6238 382.714 32.6238C392.597 32.6238 400 40.1645 400 49.449C400 50.3641 399.966 51.2487 399.844 52.301L373.345 52.3044C374.666 56.2262 378.163 59.0358 382.714 59.0358C386.924 59.0358 389.494 57.731 391.611 55.2616L398.002 59.4134C394.534 63.6372 389.215 66.2715 382.722 66.2715ZM373.368 46.5255H391.494C390.207 42.6062 387.245 39.8623 382.714 39.8623C378.171 39.8623 374.655 42.6614 373.368 46.5255Z" fill="#DD1B2D"/>
<path d="M38.1771 22.0111C47.1061 22.0111 54.3436 29.2508 54.3436 38.1776V54.3448H38.1771C29.2484 54.3448 22.0099 47.1074 22.0099 38.1776C22.0099 29.2508 29.2484 22.0111 38.1771 22.0111ZM65.2548 65.2587H38.1759C23.2188 65.2587 11.0954 53.1348 11.0954 38.1804C11.0954 23.2227 23.2188 11.0987 38.1759 11.0987C53.1308 11.0987 65.2548 23.2227 65.2548 38.1804V65.2587ZM38.226 0.00010537H0V38.2273C0 59.3415 17.1146 76.4512 38.226 76.4512C59.3376 76.4512 76.4528 59.3415 76.4528 38.2273C76.4528 17.1158 59.3376 0.00010537 38.226 0.00010537Z" fill="#3C60A5"/>
</g>
<defs>
<clipPath id="clip0_2021_17010">
<rect width="400" height="76.4511" fill="white"/>
</clipPath>
</defs>
</svg>
