<svg width="300" height="325" viewBox="0 0 300 325" fill="none" xmlns="http://www.w3.org/2000/svg">
<g clip-path="url(#clip0_471_6026)">
<path d="M246.705 111.868L200.213 31.2557C195.598 21.8767 188.447 13.9779 179.572 8.45423C170.698 2.9306 160.453 0.00292969 150 0.00292969C139.547 0.00292969 129.302 2.9306 120.427 8.45423C111.553 13.9779 104.402 21.8767 99.7863 31.2557L53.2448 111.981C47.0015 121.29 43.6306 132.229 43.5508 143.438C43.5658 158.271 49.4649 172.492 59.9537 182.981C70.4424 193.47 84.6639 199.369 99.4972 199.384H200.515C210.696 199.384 220.685 196.606 229.404 191.349C238.123 186.092 245.242 178.555 249.995 169.551C254.747 160.547 256.952 150.417 256.372 140.252C255.792 130.087 252.45 120.273 246.705 111.868V111.868ZM200.515 188.515H99.4972C87.5455 188.504 76.0866 183.751 67.6354 175.299C59.1843 166.848 54.4313 155.389 54.4197 143.438C54.4913 134.311 57.2632 125.409 62.386 117.855C62.386 117.817 62.4237 117.773 62.4488 117.736L62.5933 117.528L109.317 36.5142C109.355 36.4514 109.373 36.3823 109.405 36.3195C109.436 36.2566 109.468 36.2315 109.493 36.1812C113.199 28.5912 118.963 22.1946 126.127 17.7203C133.292 13.2459 141.569 10.8737 150.016 10.8737C158.462 10.8737 166.739 13.2459 173.904 17.7203C181.068 22.1946 186.832 28.5912 190.538 36.1812C190.57 36.2441 190.614 36.3006 190.645 36.3634C190.666 36.4149 190.689 36.4652 190.714 36.5142L237.425 117.56C237.488 117.66 237.563 117.761 237.633 117.861V117.924C242.288 124.692 245.005 132.604 245.49 140.804C245.976 149.004 244.212 157.181 240.388 164.452C236.564 171.722 230.827 177.809 223.795 182.056C216.763 186.303 208.704 188.547 200.49 188.547L200.515 188.515Z" fill="#1B2B44"/>
<path d="M172.512 47.779C171.255 45.624 164.521 34.7803 149.989 34.7803C137.706 34.7803 130.268 42.4136 126.963 48.7716C124.061 54.3631 88.2122 116.366 82.5578 125.859C79.3411 131.256 74.8302 141.289 80.9369 153.282C86.4153 164.057 97.3847 167.048 103.881 167.048H194.35C199.376 167.048 209.353 166.865 217.37 156.311C225.669 145.379 221.667 133.034 219.807 129.88C217.948 126.726 173.756 49.9339 172.512 47.779ZM208.706 149.739C204.189 155.689 199.339 156.179 194.344 156.179H103.875C102.926 156.179 94.4885 155.959 90.6184 148.351C87.8101 142.835 88.2059 137.614 91.8749 131.425C97.2025 122.473 133.453 59.8038 136.588 53.7788C137.832 51.3674 139.704 49.3363 142.005 47.8998C144.307 46.4632 146.954 45.6744 149.667 45.6165C152.38 45.5586 155.058 46.2338 157.419 47.5708C159.78 48.9079 161.736 50.8572 163.082 53.2134C163.402 53.7725 166.581 59.2824 171.142 67.2173C184.279 89.998 208.58 132.223 210.396 135.327C210.591 135.754 213.782 143.054 208.706 149.739Z" fill="#0D06B9"/>
<path d="M98.1966 296.896V262.933C98.1966 262.244 97.9233 261.584 97.4367 261.098C96.9501 260.611 96.2901 260.338 95.6019 260.338H94.4899C93.6376 260.338 92.7937 260.506 92.0063 260.832C91.2189 261.158 90.5035 261.636 89.9008 262.239C89.2982 262.841 88.8202 263.557 88.494 264.344C88.1679 265.132 88 265.976 88 266.828V298.172C88 316.441 97.4553 324.062 118.156 324.062H135.955C136.168 324.062 136.38 324.02 136.577 323.938C136.774 323.856 136.953 323.736 137.103 323.585C137.254 323.434 137.373 323.255 137.454 323.057C137.535 322.86 137.577 322.648 137.576 322.435V314.268C137.576 314.101 137.51 313.941 137.392 313.823C137.274 313.706 137.114 313.639 136.948 313.639H118.112C103.392 313.633 98.1966 308.582 98.1966 296.896Z" fill="#1B2B44"/>
<path d="M202.78 323.767H211.682C211.849 323.767 212.009 323.7 212.126 323.583C212.244 323.465 212.31 323.305 212.31 323.138V266.746C212.311 265.894 212.144 265.05 211.819 264.263C211.493 263.475 211.016 262.76 210.414 262.157C209.812 261.554 209.097 261.076 208.309 260.75C207.522 260.424 206.679 260.256 205.827 260.256H203.735C203.305 260.256 202.893 260.427 202.589 260.731C202.285 261.035 202.114 261.447 202.114 261.877V323.113C202.11 323.201 202.125 323.289 202.157 323.37C202.19 323.452 202.239 323.526 202.302 323.588C202.364 323.65 202.439 323.697 202.522 323.728C202.604 323.759 202.692 323.772 202.78 323.767V323.767Z" fill="#1B2B44"/>
<path d="M270.332 260.338C269.641 260.294 268.95 260.269 268.247 260.269C267.543 260.269 266.846 260.269 266.155 260.338H228.17C227.743 260.337 227.32 260.42 226.926 260.583C226.532 260.746 226.173 260.985 225.871 261.287C225.57 261.589 225.33 261.947 225.167 262.342C225.004 262.736 224.921 263.159 224.922 263.586V323.113C224.922 323.28 224.988 323.44 225.106 323.558C225.224 323.675 225.384 323.742 225.55 323.742H234.239C234.406 323.742 234.565 323.675 234.683 323.558C234.801 323.44 234.867 323.28 234.867 323.113V270.182L235.081 270.459V270.258H267.229V270.346C267.549 270.346 267.857 270.346 268.203 270.346C271.084 270.297 273.946 270.822 276.622 271.891C279.298 272.959 281.735 274.55 283.79 276.57C285.844 278.591 287.476 281 288.59 283.657C289.705 286.315 290.278 289.167 290.278 292.049C290.278 294.931 289.705 297.783 288.59 300.441C287.476 303.098 285.844 305.508 283.79 307.528C281.735 309.548 279.298 311.139 276.622 312.207C273.946 313.276 271.084 313.801 268.203 313.752C267.876 313.752 267.574 313.752 267.229 313.752V313.796H249.072C248.859 313.795 248.648 313.837 248.451 313.918C248.254 313.999 248.075 314.118 247.924 314.269C247.773 314.42 247.654 314.599 247.573 314.796C247.492 314.993 247.45 315.204 247.451 315.417V317.302C247.451 319.022 248.134 320.672 249.35 321.889C250.566 323.106 252.215 323.79 253.935 323.792H267.223H268.203H269.183C277.378 323.599 285.182 320.245 290.961 314.43C296.74 308.616 300.047 300.792 300.19 292.595C300.333 284.399 297.301 276.464 291.728 270.452C286.154 264.44 278.472 260.816 270.288 260.338H270.332Z" fill="#1B2B44"/>
<path d="M56.8493 268.757C55.3689 266.177 53.2341 264.035 50.6606 262.544C48.087 261.054 45.1658 260.27 42.192 260.27C39.2181 260.27 36.297 261.054 33.7234 262.544C31.1499 264.035 29.0151 266.177 27.5347 268.757L0.92793 314.827H0.959343C0.412455 315.656 0.0874177 316.611 0.0153181 317.602C-0.0567816 318.593 0.126468 319.585 0.547541 320.485C0.968613 321.384 1.61343 322.161 2.42031 322.74C3.22719 323.319 4.16916 323.681 5.15611 323.792C5.36464 323.817 5.57441 323.829 5.78437 323.83C6.39021 323.829 6.9922 323.734 7.56863 323.547C7.71941 323.503 7.86391 323.447 8.00841 323.39L8.22202 323.29L50.9436 306.427C51.16 306.341 51.3553 306.209 51.5163 306.041C51.6772 305.873 51.8 305.672 51.8763 305.452C51.9526 305.232 51.9807 304.998 51.9585 304.766C51.9363 304.535 51.8644 304.31 51.7478 304.109V304.109C50.6166 302.159 48.8237 300.679 46.6947 299.938C44.5657 299.197 42.2415 299.243 40.1439 300.069L14.8564 310.109L35.9094 273.67C36.5351 272.569 37.4431 271.655 38.5398 271.022C39.6364 270.39 40.8819 270.061 42.148 270.07H42.2422C43.5072 270.062 44.7515 270.391 45.8469 271.024C46.9423 271.657 47.8493 272.57 48.4746 273.67L77.3745 323.736V323.798H84.2288C84.6844 323.798 85.1318 323.678 85.5261 323.449C85.9204 323.221 86.2477 322.893 86.475 322.498C86.7023 322.104 86.8217 321.656 86.8211 321.2C86.8205 320.745 86.7 320.297 86.4717 319.903L56.8493 268.757Z" fill="#1B2B44"/>
<path d="M193.797 305.962C193.797 294.559 186.616 289.144 169.923 287.793L140.326 285.412C128.948 284.551 126.391 281.567 126.391 277.471C126.391 272.74 129.916 270.441 137.172 270.441H183.035C184.756 270.441 186.407 269.757 187.624 268.54C188.841 267.323 189.525 265.672 189.525 263.951V261.846C189.525 261.414 189.354 261.001 189.049 260.695C188.743 260.39 188.329 260.219 187.898 260.219H138.071C123.168 260.219 114.957 266.445 114.957 277.747C114.957 288.478 122.458 294.082 137.574 295.288L168.24 297.795C178.009 298.574 182.206 301.332 182.206 306.364C182.206 311.635 178.034 313.621 170.137 313.621H152.753C152.413 313.619 152.075 313.685 151.76 313.814C151.445 313.943 151.159 314.132 150.917 314.372C150.675 314.612 150.483 314.897 150.352 315.211C150.221 315.526 150.153 315.862 150.152 316.203V323.409C150.152 323.576 150.218 323.735 150.336 323.853C150.454 323.971 150.614 324.037 150.78 324.037H170.658C185.567 324.037 193.772 317.811 193.772 306.509C193.772 306.459 193.772 306.415 193.772 306.364C193.772 306.314 193.797 306.119 193.797 305.962Z" fill="#1B2B44"/>
</g>
<defs>
<clipPath id="clip0_471_6026">
<rect width="300" height="324.062" fill="white"/>
</clipPath>
</defs>
</svg>
