<svg width="400" height="81" viewBox="0 0 400 81" fill="none" xmlns="http://www.w3.org/2000/svg">
<g clip-path="url(#clip0_2021_16539)">
<path d="M37.1432 43.2016H25.5428C25.5428 43.2016 23.2093 43.2016 24.3427 41.1348L30.2096 30.4011C30.2096 30.4011 31.343 28.3343 32.4763 30.4011L38.3432 41.1348C38.3432 41.1348 39.4766 43.2016 37.1432 43.2016V43.2016ZM62.3441 60.6022L39.7433 19.8007C39.7433 19.8007 38.6099 17.734 36.2765 17.734H26.3428C26.3428 17.734 24.0094 17.734 22.876 19.8007L0.27519 60.6022C0.27519 60.6022 -0.858184 62.6689 1.47523 62.6689H10.0089C10.0089 62.6689 12.3423 62.6689 13.4757 60.6022L16.3424 55.402C16.3424 55.402 17.4758 53.3352 19.8092 53.3352H42.81C42.81 53.3352 45.1435 53.3352 46.2768 55.402L49.1436 60.6022C49.1436 60.6022 50.277 62.6689 52.6104 62.6689H61.2107C61.144 62.6022 63.4774 62.6023 62.3441 60.6022V60.6022ZM113.146 32.6012C113.146 34.2012 112.546 35.4679 111.412 36.468C110.279 37.468 108.746 37.9347 106.746 37.9347H85.3449C85.3449 37.9347 83.0115 37.9347 83.0115 35.6013V30.2011C83.0115 30.2011 83.0115 27.8677 85.3449 27.8677H106.679C111.012 27.8677 113.146 29.4677 113.146 32.6012ZM126.546 60.7355C126.546 60.7355 126.546 60.7355 117.813 48.4684C117.813 48.4684 116.479 46.6017 118.613 45.735C122.746 44.1349 125.88 39.5348 125.88 32.8679C125.88 28.401 124.213 24.7342 120.946 21.9341C117.679 19.134 113.346 17.734 108.012 17.734H72.6111C72.6111 17.734 70.2777 17.734 70.2777 20.0674V60.3355C70.2777 60.3355 70.2777 62.6689 72.6111 62.6689H80.8114C80.8114 62.6689 83.1448 62.6689 83.1448 60.3355V50.4685C83.1448 50.4685 83.1448 48.1351 85.4782 48.1351H100.479C100.479 48.1351 102.812 48.1351 104.146 50.0018L111.946 60.7355C111.946 60.7355 113.279 62.6023 115.613 62.6023H125.546C125.546 62.6023 127.88 62.6022 126.546 60.7355ZM191.949 17.6006H178.282C178.282 17.6006 175.948 17.6006 174.015 18.934L149.08 35.6679C149.08 35.6679 147.147 37.0013 147.147 34.6679V2.33342C147.147 2.33342 147.147 0 144.814 0H136.613C136.613 0 134.28 0 134.28 2.33342V60.3355C134.28 60.3355 134.28 62.6689 136.613 62.6689H144.814C144.814 62.6689 147.147 62.6689 147.147 60.3355V51.6685C147.147 51.6685 147.147 49.3351 149.08 48.0684L155.614 43.6682C155.614 43.6682 157.547 42.4015 159.214 44.0016L195.482 78.8695C195.482 78.8695 197.149 80.4695 199.482 80.4695H210.683C210.683 80.4695 213.016 80.4696 211.349 78.8695L169.015 37.268C169.015 37.268 167.348 35.6679 169.281 34.3346L192.415 18.934C192.349 18.8674 194.282 17.6006 191.949 17.6006V17.6006ZM254.818 60.2688V54.802C254.818 54.802 254.818 52.4685 252.484 52.4685H219.483C217.15 52.4685 217.15 50.1351 217.15 50.1351V46.8017C217.15 45.135 218.816 45.135 218.816 45.135H239.217C241.55 45.135 241.55 42.8015 241.55 42.8015V37.3347V37.268C241.484 36.668 241.15 35.2013 239.217 35.2013H218.816C218.816 35.2013 217.15 35.2013 217.15 33.5345V30.2011C217.15 30.2011 217.15 27.8677 219.483 27.8677H250.751C250.751 27.8677 253.084 27.8677 253.084 25.5343V20.0674C253.084 20.0674 253.084 17.734 250.751 17.734H206.616C206.616 17.734 204.282 17.734 204.282 20.0674V60.3355C204.282 60.3355 204.282 60.5355 204.349 60.8022C204.416 61.2689 204.616 61.6022 204.816 61.8689L204.949 62.0022L205.083 62.1356C205.349 62.3356 205.683 62.5356 206.149 62.6023C206.416 62.6689 206.616 62.6689 206.616 62.6689H252.484C252.484 62.6022 254.818 62.6023 254.818 60.2688V60.2688ZM329.62 60.2688V20.0007C329.62 20.0007 329.62 17.6673 327.287 17.6673H317.02C317.02 17.6673 314.686 17.6673 313.22 19.4674L297.619 38.2014C297.619 38.2014 296.152 40.0014 294.619 38.2014L279.085 19.4674C279.085 19.4674 277.618 17.6673 275.285 17.6673H265.018C265.018 17.6673 262.685 17.6673 262.685 20.0007V60.2688C262.685 60.2688 262.685 62.6023 265.018 62.6023H273.218C273.218 62.6023 275.552 62.6023 275.552 60.2688V32.9345H275.685C275.685 32.9345 275.818 32.9345 277.285 34.7346L294.752 55.402C294.752 55.402 296.286 57.202 297.752 55.402L316.62 32.9345H316.753C316.753 32.9345 316.886 32.9345 316.886 35.2679V60.2688C316.886 60.2688 316.886 62.6023 319.22 62.6023H327.287C327.287 62.6023 329.62 62.6023 329.62 60.2688ZM374.422 43.2016H362.821C362.821 43.2016 360.488 43.2016 361.621 41.1348L367.488 30.4011C367.488 30.4011 368.622 28.3343 369.755 30.4011L375.622 41.1348C375.689 41.1348 376.755 43.2016 374.422 43.2016ZM399.689 60.6022L377.089 19.8007C377.089 19.8007 375.955 17.734 373.622 17.734H363.688C363.688 17.734 361.355 17.734 360.221 19.8007L337.621 60.6022C337.621 60.6022 336.487 62.6689 338.821 62.6689H347.288C347.288 62.6689 349.621 62.6689 350.754 60.6022L353.621 55.402C353.621 55.402 354.755 53.3352 357.088 53.3352H380.089C380.089 53.3352 382.422 53.3352 383.556 55.402L386.422 60.6022C386.422 60.6022 387.556 62.6689 389.889 62.6689H398.489C398.489 62.6022 400.823 62.6023 399.689 60.6022Z" fill="#00367B"/>
<path d="M57.9453 80.8033H59.3454V73.7364H57.9453V80.8033ZM71.0124 80.8033H73.0792V73.7364H71.6791V79.6699L66.879 73.7364H64.8122V80.8033H66.2123V74.8698L71.0124 80.8033ZM84.8129 80.8033H86.8797V73.7364H85.4796V79.6699L80.6795 73.7364H78.6127V80.8033H80.0128V74.8698L84.8129 80.8033ZM99.8135 77.2699C99.8135 78.7366 98.5468 79.8033 96.6134 79.8033C94.68 79.8033 93.4132 78.7366 93.4132 77.2699C93.4132 75.8698 94.7466 74.7364 96.6134 74.7364C98.5468 74.8031 99.8135 75.8698 99.8135 77.2699ZM101.28 77.2699C101.28 76.1365 100.747 75.2031 99.8135 74.4698C99.0134 73.8697 97.8801 73.5364 96.68 73.5364C95.48 73.5364 94.3466 73.9364 93.5466 74.4698C92.5465 75.2031 92.0799 76.1365 92.0799 77.2699C92.0799 78.4032 92.5465 79.4033 93.5466 80.07C94.3466 80.67 95.48 81.0033 96.7467 81.0033C98.0134 81.0033 99.1468 80.67 99.8801 80.07C100.814 79.4033 101.28 78.4699 101.28 77.2699V77.2699ZM110.347 80.8033L114.281 73.7364H112.747L109.547 79.6033L106.347 73.7364H104.814L108.747 80.8033H110.347ZM123.281 78.0699H119.881L121.548 74.9365L123.281 78.0699ZM124.748 80.8033H126.281L122.414 73.7364H120.681L116.814 80.8033H118.347L119.147 79.2699H123.881L124.748 80.8033ZM133.681 75.0031H137.081V73.7364H128.948V75.0031H132.348V80.8033H133.748V75.0031H133.681ZM141.615 80.8033H143.015V73.7364H141.615V80.8033ZM152.949 80.8033L156.882 73.7364H155.349L152.149 79.6033L148.949 73.7364H147.415L151.349 80.8033H152.949ZM161.349 80.8033H168.949V79.5366H162.682V77.7365H166.816V76.4698H162.682V74.9365H168.683V73.6697H161.349V80.8033ZM241.752 75.8698L243.019 75.4031C241.952 74.0697 240.552 73.4697 238.752 73.4697C237.552 73.4697 236.352 73.8697 235.618 74.4031C234.618 75.1364 234.152 76.0698 234.152 77.2032C234.152 79.4033 236.018 80.9367 238.885 80.9367C240.618 80.9367 241.885 80.4033 243.019 79.2033L241.819 78.5366C241.019 79.3366 240.152 79.6699 238.952 79.6699C236.885 79.6699 235.618 78.6699 235.618 77.1365C235.618 75.6698 236.885 74.6698 238.952 74.6698C240.085 74.8031 241.019 75.2031 241.752 75.8698ZM254.819 80.8033H256.219V73.7364H254.819V76.5365H249.352V73.7364H247.952V80.8033H249.352V77.7365H254.819V80.8033ZM261.753 80.8033H269.353V79.5366H263.086V77.7365H267.219V76.4698H263.086V74.9365H269.086V73.6697H261.753V80.8033ZM282.753 80.8033H284.153V73.7364H282.087L279.22 77.7365L276.353 73.7364H274.286V80.8033H275.686V75.0031L275.753 74.9365L279.287 79.8033L282.82 75.0031L282.887 74.9365V80.8033H282.753ZM289.687 80.8033H291.087V73.7364H289.687V80.8033ZM297.687 75.6031C297.687 75.0698 298.487 74.7364 300.021 74.7364C301.087 74.7364 302.087 74.9364 303.021 75.4698L303.887 74.6031C302.887 73.9364 301.621 73.5364 300.021 73.5364C297.621 73.5364 296.22 74.4031 296.22 75.7365C296.22 76.8698 297.021 77.4032 298.754 77.6032C300.087 77.7366 301.154 77.6699 301.954 77.8699C302.487 78.0032 302.754 78.2699 302.754 78.6699C302.754 79.3366 301.887 79.8033 300.221 79.8033C298.821 79.8033 297.554 79.4699 296.621 78.8033L295.887 79.8033C297.021 80.67 298.421 81.07 300.221 81.07C302.821 81.07 304.221 80.2033 304.221 78.6699C304.221 77.2699 303.154 76.7365 300.954 76.5365C298.954 76.2698 297.687 76.4032 297.687 75.6031V75.6031ZM313.154 75.0031H316.555V73.7364H308.421V75.0031H311.821V80.8033H313.221V75.0031H313.154ZM326.622 77.0032H322.488V75.0698H326.555C327.488 75.0698 327.888 75.4031 327.888 76.0698C327.888 76.6698 327.422 77.0032 326.622 77.0032ZM329.422 80.8033L327.488 78.1366C328.622 77.8699 329.222 77.1365 329.222 76.0031C329.222 74.6698 328.288 73.7364 326.755 73.7364H321.021V80.8033H322.421V78.2032H325.955L327.822 80.8033H329.422ZM342.555 73.7364H340.889L337.889 76.9365L334.889 73.7364H333.222L337.222 78.0032V80.8033H338.622V78.0032L342.555 73.7364Z" fill="#ED174C"/>
</g>
<defs>
<clipPath id="clip0_2021_16539">
<rect width="400" height="80.4696" fill="white"/>
</clipPath>
</defs>
</svg>
