<svg width="400" height="182" viewBox="0 0 400 182" fill="none" xmlns="http://www.w3.org/2000/svg">
<g clip-path="url(#clip0_2021_16962)">
<path d="M38.6623 95.6729H32.3594V128.034H38.6623V95.6729Z" fill="#003B4A"/>
<path d="M227.093 107.526L225.682 105.08H221.637V127.94H227.563V114.017C227.563 111.006 230.762 110.066 234.619 110.536V104.609C231.42 104.703 228.692 106.115 227.093 107.526Z" fill="#003B4A"/>
<path d="M169.235 95.2021C167.353 95.2021 165.754 96.7073 165.754 98.6829C165.754 100.564 167.259 102.164 169.235 102.164C171.21 102.164 172.715 100.658 172.715 98.6829C172.715 96.7073 171.116 95.2021 169.235 95.2021Z" fill="#003B4A"/>
<path d="M172.243 105.08H166.316V127.94H172.243V105.08Z" fill="#003B4A"/>
<path d="M190.684 95.2021C188.802 95.2021 187.203 96.7073 187.203 98.6829C187.203 100.564 188.708 102.164 190.684 102.164C192.659 102.164 194.165 100.658 194.165 98.6829C194.165 96.7073 192.565 95.2021 190.684 95.2021Z" fill="#003B4A"/>
<path d="M193.692 105.08H187.766V127.94H193.692V105.08Z" fill="#003B4A"/>
<path d="M183.063 95.6729H177.137V128.034H183.063V95.6729Z" fill="#003B4A"/>
<path d="M152.963 104.798C150.611 104.798 148.165 105.644 146.942 106.773V96.8955C145.625 97.4599 144.026 97.7422 142.332 97.7422C141.956 97.7422 141.486 97.7422 141.109 97.7422V127.94H145.719L146.566 125.776C147.883 127.187 150.423 128.222 153.245 128.222C158.889 128.222 163.217 124.271 163.217 116.369C163.028 108.467 158.607 104.798 152.963 104.798ZM151.552 122.954C149.482 122.954 147.977 122.013 146.848 120.414V115.992C146.848 111.853 148.353 109.878 151.646 109.878C154.938 109.878 156.914 112.229 156.914 116.463C157.008 120.132 155.409 122.954 151.552 122.954Z" fill="#003B4A"/>
<path d="M62.5555 114.393C62.5555 111.853 63.6844 109.972 66.5066 109.972C69.2347 109.972 70.2696 111.759 70.2696 114.581V127.94H76.1962V112.888C76.1962 108.09 73.2799 104.798 67.9177 104.798C65.4718 104.798 62.5555 106.209 61.1444 107.996C59.5452 105.739 57.1934 104.798 54.2771 104.798C51.8312 104.798 49.3853 106.115 48.3505 107.432L47.0334 105.08H42.9883V127.94H48.9149V114.393C48.9149 111.853 49.9497 109.972 52.7719 109.972C55.5 109.972 56.723 111.759 56.723 114.581V127.94H62.6496L62.5555 114.393Z" fill="#003B4A"/>
<path d="M99.3407 114.393C99.3407 111.853 100.47 109.972 103.292 109.972C106.02 109.972 107.055 111.759 107.055 114.581V127.94H112.981V112.888C112.981 108.09 110.065 104.798 104.703 104.798C102.257 104.798 99.3407 106.209 97.9296 107.996C96.3303 105.739 93.9785 104.798 91.0622 104.798C88.6163 104.798 86.1704 106.115 85.1356 107.432L83.8186 105.08H79.7734V127.94H85.606V114.393C85.606 111.853 86.6408 109.972 89.463 109.972C92.1911 109.972 93.4141 111.759 93.4141 114.581V127.94H99.3407V114.393Z" fill="#003B4A"/>
<path d="M217.498 126.434L216.181 121.824C216.181 121.824 213.358 123.141 209.595 123.141C205.927 123.141 203.763 121.824 203.104 118.908H218.344C218.344 118.344 218.344 116.745 218.344 116.462C218.344 109.783 214.393 104.703 207.808 104.703C201.599 104.703 196.613 109.031 196.613 116.462C196.613 123.894 201.693 128.221 209.501 128.221C214.299 128.221 217.498 126.434 217.498 126.434ZM207.714 109.689C210.348 109.689 212.041 111.288 212.135 114.769H202.916C203.387 111.288 205.174 109.689 207.714 109.689Z" fill="#003B4A"/>
<path d="M126.996 104.798C120.694 104.798 115.52 109.125 115.52 116.557C115.52 123.989 120.694 128.316 126.996 128.316C133.299 128.316 138.473 123.989 138.473 116.557C138.473 109.125 133.299 104.798 126.996 104.798ZM126.996 123.33C124.174 123.33 121.54 121.167 121.54 116.557C121.54 111.947 124.174 109.784 126.996 109.784C129.819 109.784 132.453 111.947 132.453 116.557C132.359 121.167 129.819 123.33 126.996 123.33Z" fill="#003B4A"/>
<path d="M70.8363 63.876C64.5334 63.876 59.3594 68.2034 59.3594 75.6351C59.3594 83.0669 64.5334 87.3943 70.8363 87.3943C77.1392 87.3943 82.3133 83.0669 82.3133 75.6351C82.3133 68.2034 77.1392 63.876 70.8363 63.876ZM70.8363 82.4084C68.0141 82.4084 65.3801 80.2447 65.3801 75.6351C65.3801 71.0256 68.0141 68.8619 70.8363 68.8619C73.6585 68.8619 76.2926 71.0256 76.2926 75.6351C76.1985 80.2447 73.6585 82.4084 70.8363 82.4084Z" fill="#003B4A"/>
<path d="M123.516 86.4533L130.571 64.252H124.363L119.941 79.7741L114.014 64.252H107.523L116.931 87.4881C115.802 91.251 111.286 90.8747 107.712 89.1814V94.5436C114.297 96.5191 120.694 95.6725 123.516 86.4533Z" fill="#003B4A"/>
<path d="M140.261 87.3002C142.989 87.3002 144.965 86.2654 146.376 84.8543C146.094 89.3699 144.024 90.5928 140.543 90.5928C136.498 90.5928 133.77 89.0876 133.77 89.0876V94.4498C133.77 94.4498 137.345 95.6728 141.484 95.6728C148.351 95.6728 152.397 90.9691 152.397 84.9484V71.0256V64.2523H147.693L147.129 66.2278C145.811 65.0049 143.46 63.876 141.202 63.876C131.983 63.876 130.666 72.3426 130.666 75.447C130.572 83.4432 134.617 87.3002 140.261 87.3002ZM141.484 68.8619C144.777 68.8619 146.282 70.8374 146.282 75.0707V79.5862C145.529 81.1855 143.836 82.1262 141.578 82.1262C137.815 82.1262 136.592 79.304 136.592 75.5411C136.592 70.9315 138.662 68.8619 141.484 68.8619Z" fill="#003B4A"/>
<path d="M208.839 70.1792C208.933 69.4266 209.404 68.9563 211.567 68.9563C215.425 68.9563 219.282 70.3674 219.282 70.3674L220.787 65.2874C220.787 65.2874 216.647 63.7822 212.508 63.7822C206.299 63.7822 202.819 66.04 202.819 71.0259C202.819 74.4125 204.7 76.294 209.686 77.7051C213.731 78.834 215.236 79.2103 215.236 80.5273C215.236 81.6562 214.296 82.2206 212.038 82.2206C207.616 82.2206 203.853 80.4332 203.853 80.4332L202.16 85.325C202.16 85.325 205.923 87.2065 211.285 87.2065C217.682 87.2065 221.539 84.7606 221.539 79.7747C221.539 75.8236 218.529 74.0362 215.519 73.1896C210.345 71.8725 208.745 71.4962 208.839 70.1792Z" fill="#003B4A"/>
<path d="M199.529 85.6069L198.212 80.9973C198.212 80.9973 195.39 82.3144 191.627 82.3144C187.958 82.3144 185.794 80.9973 185.136 78.0811H200.375C200.375 77.5166 200.375 75.9174 200.375 75.6351C200.375 68.9559 196.424 63.876 189.839 63.876C183.63 63.876 178.645 68.2034 178.645 75.6351C178.645 83.0669 183.725 87.3943 191.533 87.3943C196.33 87.3943 199.529 85.6069 199.529 85.6069ZM189.745 68.7678C192.379 68.7678 194.073 70.367 194.167 73.8478H184.947C185.418 70.367 187.205 68.7678 189.745 68.7678Z" fill="#003B4A"/>
<path d="M57.1007 78.0812C57.1007 72.0605 52.3029 70.3672 52.3029 70.3672C53.8081 69.4264 56.1599 67.4509 56.1599 62.9354C56.1599 58.5139 52.4911 54.751 45.9059 54.751H32.3594V87.1122H45.5296C52.5852 87.1122 57.1007 83.9137 57.1007 78.0812ZM44.9652 60.2072C47.8815 60.2072 49.7629 61.5243 49.7629 64.0642C49.7629 66.6042 47.8815 67.9212 44.9652 67.9212C43.366 67.9212 40.5438 67.9212 38.6623 67.9212V60.2072H44.9652ZM38.6623 81.8441V73.1894H44.4008C48.1637 73.1894 50.6096 74.6945 50.6096 77.5167C50.6096 80.3389 48.4459 81.8441 44.4008 81.8441H38.6623Z" fill="#003B4A"/>
<path d="M90.8719 77.7044V64.252H84.9453V78.1748C84.9453 84.7599 88.332 87.394 93.506 87.394C96.14 87.394 98.4919 86.2651 99.9971 84.854L101.314 87.1118H105.359V64.252H99.4326V77.9867C99.4326 80.5266 98.3037 82.4081 95.1052 82.4081C92.0008 82.314 90.8719 80.5266 90.8719 77.7044Z" fill="#003B4A"/>
<path d="M161.712 77.7044V64.252H155.785V78.1748C155.785 84.7599 159.172 87.394 164.346 87.394C166.98 87.394 169.332 86.2651 170.837 84.854L172.154 87.1118H176.199V81.3733V64.252H170.272V77.9867C170.272 80.5266 169.144 82.4081 165.945 82.4081C162.841 82.314 161.712 80.5266 161.712 77.7044Z" fill="#003B4A"/>
<path d="M282.969 54.751H247.691V127.94H282.969V54.751Z" fill="#86BC24"/>
<path d="M346.186 83.5376C353.806 79.022 359.826 70.0851 359.732 60.3014C359.544 43.8386 344.963 32.2676 318.058 32.2676C299.149 32.2676 283.062 35.7483 283.062 35.7483V54.657H320.598V127.94H283.062V146.567C283.062 146.567 299.243 149.483 320.316 149.483C350.889 149.483 367.07 134.055 367.729 114.394C368.105 99.53 358.792 88.7116 346.186 83.5376Z" fill="#003B4A"/>
</g>
<defs>
<clipPath id="clip0_2021_16962">
<rect width="400" height="181.75" fill="white"/>
</clipPath>
</defs>
</svg>
