<svg width="600" height="450" viewBox="0 0 600 450" fill="none" xmlns="http://www.w3.org/2000/svg">
<path d="M462.18 248.96C462.18 244.714 464.765 240.836 468.734 239.175C472.704 237.513 477.227 238.436 480.274 241.483C483.32 244.529 484.244 249.053 482.582 253.022C480.92 256.992 477.043 259.577 472.796 259.577C466.888 259.577 462.18 254.869 462.18 248.96Z" fill="#87BD26"/>
<path d="M124.018 220.897C124.387 215.635 123.095 210.373 120.141 205.942C117.187 202.526 112.848 200.772 108.324 201.049H102.693V242.223H107.032C111.925 242.592 116.725 240.653 119.956 236.961C123.003 232.16 124.48 226.529 124.018 220.897ZM144.143 220.251C144.143 232.529 140.82 241.946 134.265 248.5C127.711 255.055 118.479 258.471 106.57 258.471H83.3984V185.17H108.14C119.587 185.17 128.542 188.216 134.727 194.217C141.005 200.218 144.143 208.896 144.143 220.251Z" fill="#0E0B0B"/>
<path d="M208.305 258.47H226.676V184.8H208.305V258.47Z" fill="#0E0B0B"/>
<path d="M252.615 230.958C252.43 234.651 253.076 238.251 254.461 241.667C255.569 244.068 257.969 245.545 260.646 245.36C263.231 245.545 265.631 244.068 266.739 241.667C268.124 238.251 268.678 234.559 268.493 230.958C268.678 227.358 268.124 223.757 266.739 220.434C265.539 218.218 263.139 216.834 260.646 216.834C258.154 216.834 255.753 218.218 254.553 220.342C252.984 223.757 252.338 227.358 252.615 230.958ZM287.141 230.958C287.603 238.621 285.11 246.099 280.125 251.915C274.955 257.084 267.755 259.854 260.369 259.392C253.076 259.762 246.06 256.9 240.983 251.73C231.474 239.544 231.382 222.465 240.798 210.187C246.06 205.017 253.261 202.34 260.554 202.801C265.447 202.709 270.247 203.909 274.494 206.217C278.464 208.525 281.787 211.941 283.818 216.003C286.126 220.711 287.234 225.788 287.141 230.958Z" fill="#0E0B0B"/>
<path d="M294.527 258.47H312.899V203.726H294.527V258.47Z" fill="#0E0B0B"/>
<path d="M294.527 197.17H312.899V184.8H294.527V197.17Z" fill="#0E0B0B"/>
<path d="M350.289 244.53C353.335 244.437 356.382 243.791 359.151 242.683V256.439C356.843 257.454 354.535 258.285 352.043 258.747C349.458 259.208 346.781 259.485 344.196 259.485C339.303 259.947 334.41 258.285 330.81 254.777C327.763 250.623 326.286 245.545 326.748 240.468V217.942H320.286V203.817H326.748V189.877L345.304 186.646V203.817H357.028V217.942H345.211V239.268C345.211 242.683 346.873 244.437 350.289 244.53ZM392.94 244.53C395.986 244.437 399.032 243.791 401.802 242.683V256.439C399.494 257.454 397.186 258.285 394.694 258.747C392.109 259.208 389.431 259.485 386.847 259.485C381.954 259.947 377.061 258.285 373.461 254.777C370.414 250.623 368.937 245.545 369.399 240.468V217.942H362.936V203.817H369.399V189.6L387.954 186.554V203.725H399.679V217.85H387.954V239.175C387.954 242.683 389.616 244.437 392.94 244.53ZM425.066 224.312C425.066 221.912 425.989 219.511 427.651 217.757C429.128 216.373 431.067 215.634 433.098 215.634C435.221 215.542 437.344 216.373 438.729 218.034C440.206 219.788 440.945 222.096 440.945 224.312H425.066ZM451.1 209.264C446.022 204.74 439.283 202.34 432.451 202.802C425.158 202.34 418.05 205.017 412.972 210.187C408.449 215.08 406.141 222.189 406.141 231.42C405.679 238.991 408.357 246.561 413.526 252.1C419.158 257.177 426.635 259.855 434.205 259.393C437.898 259.485 441.591 259.116 445.191 258.562C448.33 258.008 451.284 256.9 454.054 255.423L451.192 243.145C446.484 245.176 441.406 246.099 436.329 246.007C433.282 246.191 430.328 245.268 427.928 243.422C425.805 241.576 424.604 238.991 424.697 236.221H457.654V227.82C458.116 220.988 455.716 214.249 451.1 209.264ZM168.608 224.312C168.608 221.912 169.531 219.511 171.193 217.757C172.67 216.373 174.608 215.634 176.639 215.634C178.763 215.542 180.886 216.373 182.271 218.034C183.748 219.788 184.486 222.096 184.486 224.312H168.608ZM194.549 209.264C189.471 204.74 182.732 202.34 175.901 202.802C168.608 202.34 161.499 205.017 156.422 210.187C151.898 215.08 149.59 222.189 149.59 231.42C149.129 238.991 151.806 246.561 156.976 252.1C162.607 257.177 170.085 259.855 177.655 259.393C181.347 259.485 185.04 259.116 188.641 258.562C191.779 258.008 194.734 256.9 197.503 255.423L194.734 243.145C190.025 245.176 184.948 246.099 179.87 246.007C176.824 246.191 173.87 245.268 171.47 243.422C169.346 241.576 168.146 238.991 168.238 236.221H201.196V227.82C201.565 220.988 199.257 214.249 194.549 209.264Z" fill="#0E0B0B"/>
</svg>
