<svg width="300" height="178" viewBox="0 0 300 178" fill="none" xmlns="http://www.w3.org/2000/svg">
<g clip-path="url(#clip0_2021_17064)">
<path d="M202.871 160.431C199.577 159.716 196.984 159.002 196.984 156.872C196.984 155.695 197.804 154.888 199.087 154.438C199.828 154.226 200.675 154.107 201.627 154.107C204.458 154.107 206.972 155.377 208.863 156.806L212.052 152.374C209.697 150.482 206.165 148.815 201.68 148.815C200.145 148.815 198.677 149.014 197.341 149.398C193.399 150.443 190.554 153.115 190.554 157.414C190.554 163.103 195.965 164.757 200.45 165.934C203.744 166.648 206.337 167.363 206.337 169.493C206.337 170.842 205.133 171.808 203.347 172.271C202.699 172.416 201.971 172.483 201.204 172.483C197.91 172.483 194.933 171.146 193.055 169.016L189.84 173.514C192.433 175.644 196.203 177.536 201.151 177.536C202.804 177.536 204.352 177.324 205.755 176.914C209.909 175.803 212.753 172.998 212.753 168.686C212.753 162.997 207.329 161.344 202.857 160.391L202.871 160.431Z" fill="#112361"/>
<path d="M184.984 138.894H178.793V176.848H184.984V138.894Z" fill="#112361"/>
<path d="M119.009 141.249H110.516C109.431 141.249 108.399 141.421 107.407 141.738C105.78 142.214 104.311 143.074 103.107 144.225C101.229 142.386 98.6889 141.249 95.8975 141.249H87.1133V147.017H97.2469C98.9005 147.017 100.078 148.194 100.078 149.861V176.61H106.031V149.768C106.031 148.419 106.812 147.4 107.976 147.056C108.161 147.017 108.359 147.003 108.558 147.003H118.996V141.235L119.009 141.249Z" fill="#112361"/>
<path d="M158.79 149.04H158.763C158.049 149.04 154.292 149.04 150.76 151.408C149.582 152.122 149.106 152.585 148.405 153.075L146.989 154.027C145.838 154.729 144.238 155.178 142.386 155.205C140.547 155.178 138.946 154.729 137.782 154.027L136.366 153.075C135.652 152.599 135.189 152.122 134.011 151.408C130.479 149.04 126.709 149.04 126.008 149.04C118.229 149.04 111.879 155.443 111.879 163.248C111.879 171.053 118.242 177.456 126.008 177.456C126.96 177.456 130.717 177.218 133.787 174.85C134.964 174.136 135.44 173.673 136.155 173.183L137.57 172.231C138.747 171.516 140.401 171.053 142.28 171.053H142.531C144.41 171.053 146.063 171.53 147.241 172.231L148.656 173.183C149.371 173.66 149.834 174.136 151.024 174.85C154.093 177.218 157.851 177.456 158.803 177.456C166.582 177.456 172.932 171.053 172.932 163.248C172.932 155.443 166.569 149.04 158.803 149.04H158.79ZM158.763 171.517C158.763 171.517 156.17 171.516 154.054 170.101C152.876 169.387 152.4 168.924 151.686 168.434L150.27 167.482C148.153 166.053 145.322 165.352 142.491 165.352H142.24C139.409 165.352 136.578 166.066 134.461 167.482L133.046 168.434C132.331 168.91 131.868 169.387 130.678 170.101C128.561 171.516 125.968 171.517 125.968 171.517C121.258 171.517 117.475 167.733 117.475 162.997C117.475 158.261 121.245 154.477 125.968 154.477C125.968 154.477 128.561 154.477 130.678 155.906C132.04 156.911 132.331 157.083 133.046 157.573L134.461 158.525C136.578 159.941 139.171 160.655 142.24 160.655H142.491C145.561 160.655 148.153 159.941 150.27 158.525L151.686 157.573C152.413 157.097 152.81 156.845 154.054 155.906C156.276 154.226 158.763 154.477 158.763 154.477C163.473 154.477 167.256 158.261 167.256 162.997C167.256 167.733 163.486 171.517 158.763 171.517Z" fill="#112361"/>
<path d="M166.979 103.584V108.161L165.537 107.196C164.809 106.719 164.333 106.23 163.142 105.516C159.557 103.121 155.72 103.121 155.006 103.121C147.108 103.121 140.652 109.617 140.652 117.554C140.652 125.492 147.108 131.987 155.006 131.987H155.244C156.21 131.987 162.388 131.987 166.979 126.947C166.979 129.341 166.979 131.035 166.74 131.273H172.231C171.503 129.593 172.231 103.386 172.231 103.624H166.965L166.979 103.584ZM166.979 121.377C163.632 121.867 159.557 126.193 155.244 125.955C150.455 125.955 146.619 122.105 146.619 117.303C146.619 112.501 150.455 108.651 155.244 108.651C160.033 108.651 164.095 113.228 166.979 113.466V121.404V121.377Z" fill="#112361"/>
<path d="M71.7426 117.303C71.7426 109.352 65.2867 102.856 57.3888 102.856C52.3617 102.856 49.491 105.502 47.0965 107.434V103.108H41.1169C41.1169 103.108 41.5931 129.791 40.6406 131.233H47.3346C46.607 130.029 46.607 121.139 46.607 113.678C49.5968 111.178 51.9516 110.04 51.9516 110.04C54.6901 108.439 57.1375 108.624 57.1375 108.624C61.9265 108.624 65.7629 112.474 65.7629 117.276C65.7629 117.276 66.2392 130.506 65.7629 131.22H71.9807C71.5044 128.574 71.7426 117.276 71.7426 117.276V117.303Z" fill="#112361"/>
<path d="M86.8369 109.59C89.4696 108.386 93.2928 108.625 97.8437 112.474C98.3199 111.747 101.918 107.196 101.918 107.196C101.918 107.196 99.5238 106.468 97.8437 105.516C93.7691 103.121 88.9933 102.394 84.6938 104.074C80.1429 105.754 77.0341 109.352 75.8434 113.93C75.1291 116.575 75.3672 118.97 75.6053 119.936C76.571 124.751 79.6799 128.826 84.2308 130.757C86.1358 131.485 88.054 131.961 89.9723 131.961C92.843 131.961 95.7137 130.995 98.1082 129.566C99.193 128.879 99.8016 128.588 100.582 128.111L101.442 127.635L97.8569 122.357C97.8569 122.357 96.8912 124.275 94.9861 125.241C92.3535 126.683 89.2447 127.159 86.612 125.968C83.7413 124.764 81.823 122.357 81.3468 119.234C81.3468 118.745 81.1087 117.316 81.5849 115.623C82.2993 112.739 84.2175 110.583 86.8502 109.617L86.8369 109.59Z" fill="#112361"/>
<path d="M31.0755 97.5784C32.9805 97.5784 34.6606 96.6127 35.1501 94.9326L36.1158 90.8447C30.1362 92.0486 25.5853 90.8447 19.1295 90.8447C12.6736 90.8447 7.15702 94.4563 6.45587 101.19C6.21774 103.836 7.4216 106.23 9.32661 108.162C4.06137 109.128 0 113.692 0 119.473C0 125.968 5.26524 131.247 11.7343 131.247H35.6528V124.05C35.4147 124.156 31.9751 124.764 11.7343 124.764C7.91109 124.764 6.4691 122.37 6.4691 119.486C6.4691 116.602 8.86359 114.208 11.7343 114.208L21.2991 114.446C23.6936 114.446 25.6118 112.289 26.0881 109.868C26.3262 109.141 26.3262 107.712 26.3262 107.712H21.7753C14.5918 107.712 13.4012 104.59 12.925 101.706C12.6868 100.026 13.6393 96.4275 18.4283 96.6656V96.6391C22.7278 96.6391 26.7892 97.843 31.0887 97.6049L31.0755 97.5784Z" fill="#112361"/>
<path d="M136.619 117.29C136.619 109.352 130.163 102.857 122.265 102.857C117.476 102.857 114.605 105.251 111.973 107.434C111.735 97.0887 112.687 94.4561 112.687 94.4561H105.504C106.469 95.898 106.708 128.601 105.266 131.247H112.687C112.211 130.029 112.211 121.854 111.973 113.678C111.973 113.678 113.997 111.389 117.053 109.683C119.633 108.506 122.027 108.638 122.027 108.638C126.816 108.638 130.653 112.488 130.653 117.29C130.653 117.29 130.653 126.669 130.176 131.233H137.36C136.645 131.233 136.632 117.29 136.632 117.29H136.619Z" fill="#112361"/>
<path d="M208.614 117.29C208.614 109.352 202.158 102.856 194.26 102.856C189.233 102.856 186.362 105.502 183.968 107.434V103.108H177.988C177.988 103.108 178.464 129.791 177.512 131.233H184.206C183.478 130.029 183.478 121.139 183.478 113.678C186.468 111.178 188.823 110.04 188.823 110.04C191.561 108.439 194.009 108.624 194.009 108.624C198.798 108.624 202.634 112.461 202.634 117.263C202.634 117.263 203.11 130.492 202.634 131.207H208.852C208.376 128.561 208.614 117.263 208.614 117.263V117.29Z" fill="#112361"/>
<path d="M248.326 102.856C239.952 102.856 233.734 109.101 233.734 117.29C233.734 125.478 240.19 131.961 249.054 131.961C254.319 131.961 258.857 129.804 261.489 126.193L256.938 121.867C255.973 124.751 252.626 126.444 249.041 126.444C244.49 126.444 241.143 123.798 240.19 119.949H262.442C262.614 118.943 262.653 118.136 262.653 117.422C262.653 109.008 256.7 102.87 248.326 102.87V102.856ZM248.326 114.882H240.19C241.156 111.032 244.265 108.386 248.326 108.386C252.388 108.386 255.51 111.032 256.462 114.882H248.326Z" fill="#112361"/>
<path d="M221.3 96.8643H214.844C215.32 98.5444 215.082 103.36 215.082 103.36H210.531V108.89C212.926 108.4 215.082 108.4 215.082 108.4V123.071C215.082 128.35 217.953 131.723 223.708 131.723C225.613 131.723 227.055 131.234 228.735 130.519V124.275C227.769 125.479 226.592 125.955 225.15 125.955C222.768 125.955 221.326 124.751 221.326 122.106V108.4C221.326 108.4 221.564 108.162 228.748 108.89V103.36H221.088C221.088 103.36 220.85 98.7825 221.326 96.8643H221.3Z" fill="#112361"/>
<path d="M299.525 94.6816H293.545C294.021 98.2932 293.783 100.926 293.783 108.149L292.209 107.077C291.494 106.601 290.886 106.218 289.708 105.503C286.123 103.109 282.287 103.109 281.572 103.109C273.675 103.109 267.219 109.604 267.219 117.542C267.219 125.479 273.675 131.975 281.572 131.975H281.811C282.776 131.975 286.361 131.737 289.708 129.58C291.15 128.641 291.389 128.377 292.103 127.9L293.545 126.935C293.545 129.329 293.307 130.784 293.069 131.26C293.783 131.26 299.286 131.26 300.001 131.499C299.035 128.377 298.797 98.3197 299.525 94.7081V94.6816ZM293.545 121.378C290.436 121.616 286.123 126.194 281.572 125.956C276.783 125.956 272.947 122.106 272.947 117.304C272.947 112.501 276.783 108.652 281.572 108.652C286.361 108.652 290.661 113.467 293.545 113.467V121.405V121.378Z" fill="#112361"/>
<path d="M170.156 26.4978C160.247 26.7624 159.308 34.1311 149.942 33.9988C140.576 33.9988 139.504 26.9079 129.728 26.4978C121.42 26.2332 114.871 32.9272 114.871 40.9574C114.871 48.9875 121.565 55.4169 129.728 55.4169C138.432 55.4169 139.769 47.6514 149.942 47.5191C160.247 47.5191 161.451 55.4169 170.156 55.4169C178.861 55.4169 185.013 48.9875 185.013 40.9574C185.013 32.9272 178.319 26.2332 170.156 26.4978Z" fill="url(#paint0_linear_2021_17064)"/>
<path d="M149.941 27.5697C157.554 27.5697 163.726 21.398 163.726 13.7849C163.726 6.17169 157.554 0 149.941 0C142.328 0 136.156 6.17169 136.156 13.7849C136.156 21.398 142.328 27.5697 149.941 27.5697Z" fill="url(#paint1_linear_2021_17064)"/>
<path d="M149.941 81.2543C157.554 81.2543 163.726 75.0826 163.726 67.4694C163.726 59.8563 157.554 53.6846 149.941 53.6846C142.328 53.6846 136.156 59.8563 136.156 67.4694C136.156 75.0826 142.328 81.2543 149.941 81.2543Z" fill="url(#paint2_linear_2021_17064)"/>
</g>
<defs>
<linearGradient id="paint0_linear_2021_17064" x1="114.726" y1="40.9706" x2="185.158" y2="40.9706" gradientUnits="userSpaceOnUse">
<stop stop-color="#112361"/>
<stop offset="1" stop-color="#5D7AE2"/>
</linearGradient>
<linearGradient id="paint1_linear_2021_17064" x1="136.156" y1="13.7849" x2="163.739" y2="13.7849" gradientUnits="userSpaceOnUse">
<stop stop-color="#112361"/>
<stop offset="1" stop-color="#5D7AE2"/>
</linearGradient>
<linearGradient id="paint2_linear_2021_17064" x1="136.156" y1="67.4827" x2="163.739" y2="67.4827" gradientUnits="userSpaceOnUse">
<stop stop-color="#112361"/>
<stop offset="1" stop-color="#5D7AE2"/>
</linearGradient>
<clipPath id="clip0_2021_17064">
<rect width="300" height="177.537" fill="white"/>
</clipPath>
</defs>
</svg>
