<svg width="300" height="174" viewBox="0 0 300 174" fill="none" xmlns="http://www.w3.org/2000/svg">
<g clip-path="url(#clip0_2021_16712)">
<path d="M294.15 173.545H66.0451C63.7893 173.545 61.9609 171.715 61.9609 169.46C61.9609 167.207 63.7893 165.379 66.0451 165.379H294.15C296.406 165.379 298.234 167.207 298.234 169.46C298.234 171.715 296.406 173.545 294.15 173.545Z" fill="#404548"/>
<path d="M255.103 95.945H207.65C205.396 95.945 203.566 94.1167 203.566 91.8609C203.566 89.6067 205.396 87.7783 207.65 87.7783H255.103C257.359 87.7783 259.184 89.6067 259.184 91.8609C259.184 94.1167 257.359 95.945 255.103 95.945Z" fill="#404548"/>
<path d="M11.5796 120.059H4.08098C1.82835 120.059 0 118.231 0 115.975C0 113.721 1.82835 111.893 4.08098 111.893H11.5796C13.8337 111.893 15.6621 113.721 15.6621 115.975C15.6621 118.231 13.8337 120.059 11.5796 120.059Z" fill="#404548"/>
<path d="M111.232 8.16668H4.10121C1.84551 8.16668 0.015625 6.33833 0.015625 4.08252C0.015625 1.82835 1.84551 0 4.10121 0H111.232C113.488 0 115.318 1.82835 115.318 4.08252C115.318 6.33833 113.488 8.16668 111.232 8.16668Z" fill="#404548"/>
<path d="M57.9883 42.6262C57.9883 31.3073 65.5022 24.0264 77.9336 24.0264C83.2227 24.0264 86.7915 25.1851 89.2956 26.4842V34.6478C85.8194 32.4214 81.6906 31.3074 78.0262 31.3074C72.4131 31.3074 66.8925 34.2759 66.8925 41.6526C66.8925 48.4692 70.6973 53.1551 77.7022 53.1551C79.1386 53.1551 80.5766 52.9699 81.9221 52.6922V46.1038H76.633V39.5186H90.3649V57.2359C86.7467 59.1861 82.8031 60.2044 76.4956 60.2044C65.4561 60.2046 57.9883 54.4542 57.9883 42.6262Z" fill="#404548"/>
<path d="M95.7012 59.5562V41.1415L94.6797 34.277H102.334L103.03 37.6159C104.792 35.249 107.02 33.626 110.728 33.626C111.099 33.626 111.471 33.626 111.842 33.6738V40.9548C110.868 40.7696 109.987 40.6771 109.152 40.6771C106.88 40.6771 105.025 41.3714 103.494 42.8573V59.5562H95.7012Z" fill="#404548"/>
<path d="M128.621 53.1068V50.0009C127.647 49.7695 126.581 49.5828 125.419 49.5828C122.637 49.5828 121.34 50.4175 121.34 51.9033C121.34 53.1547 121.895 54.3612 124.446 54.3612C126.024 54.3612 127.462 53.9431 128.621 53.1068ZM128.808 56.0292C127.137 58.7679 124.679 60.2058 120.642 60.2058C116.006 60.2058 113.223 57.3745 113.223 53.1547C113.223 48.33 117.072 44.8523 123.751 44.8523C125.467 44.8523 127.137 44.9912 128.576 45.3615C128.391 42.1152 127.044 40.7697 123.751 40.7697C120.504 40.7697 117.072 41.6985 114.753 43.3217V36.3647C116.978 34.7862 121.107 33.626 124.958 33.626C132.611 33.626 136.414 36.5945 136.414 43.7861V54.0357L136.923 59.5562H129.132L128.808 56.0292Z" fill="#404548"/>
<path d="M141.443 59.5562V41.1415L140.422 34.277H148.075L148.818 37.7085C150.675 35.2985 153.179 33.626 156.934 33.626C161.529 33.626 165.516 35.8076 165.516 42.1151V59.5562H157.723V45.454C157.723 41.8358 156.38 40.3531 153.643 40.3531C151.927 40.3531 150.582 41.1416 149.237 42.6243V59.5563L141.443 59.5562Z" fill="#404548"/>
<path d="M187.64 51.2531V43.091C186.387 40.9094 184.949 39.7043 182.817 39.7043C179.615 39.7043 177.576 42.3473 177.576 46.8018C177.576 51.1143 179.477 54.177 182.769 54.177C184.579 54.177 186.158 53.2944 187.64 51.2531ZM195.432 23.4698V59.5556H188.801L188.058 56.1703C185.878 58.8612 183.467 60.1125 179.571 60.1125C173.446 60.1125 169.273 55.4283 169.273 47.5424C169.273 39.24 174.467 33.7194 180.774 33.7194C183.791 33.7194 186.016 34.6482 187.64 36.7358V23.4697H195.432V23.4698Z" fill="#404548"/>
<path d="M43.1946 75.9728V87.0571H44.9597C50.1531 87.0571 52.7051 85.2489 52.7051 81.5381C52.7051 77.7348 49.9217 76.019 44.8178 75.9727H43.1946V75.9728ZM34.707 69.1084H46.3484C54.8375 69.1084 61.3795 72.1232 61.3795 81.1662C61.3795 87.5693 56.4607 93.9231 46.2558 93.9231H43.1946V104.082H34.707V69.1084Z" fill="#404548"/>
<path d="M79.0468 97.6343V94.5269C78.0748 94.2939 77.0085 94.1087 75.8467 94.1087C73.0633 94.1087 71.7657 94.9434 71.7657 96.4292C71.7657 97.6821 72.3211 98.8872 74.8732 98.8872C76.45 98.8873 77.888 98.469 79.0468 97.6343ZM79.2334 100.557C77.5624 103.294 75.1061 104.732 71.0683 104.732C66.4318 104.732 63.6484 101.9 63.6484 97.6821C63.6484 92.8574 67.498 89.3781 74.1772 89.3781C75.8944 89.3781 77.5624 89.517 79.002 89.8873C78.8168 86.641 77.4699 85.2971 74.1772 85.2971C70.931 85.2971 67.498 86.2244 65.1789 87.8475V80.8905C67.4053 79.3121 71.5327 78.1533 75.3838 78.1533C83.0367 78.1533 86.8415 81.1203 86.8415 88.3118V98.5614L87.3507 104.082H79.5574L79.2334 100.557Z" fill="#404548"/>
<path d="M92.869 104.082V85.6674L91.8477 78.803H99.5005L100.198 82.1418C101.96 79.7765 104.186 78.1533 107.896 78.1533C108.267 78.1533 108.639 78.1533 109.01 78.1996V85.4822C108.036 85.297 107.155 85.2045 106.32 85.2045C104.046 85.2045 102.191 85.8988 100.662 87.3831V104.082H92.869Z" fill="#404548"/>
<path d="M113.227 78.8033H121.022V104.082H113.227V78.8033ZM113.09 67.9951H121.161V75.2314H113.09V67.9951Z" fill="#404548"/>
<path d="M126.263 102.598V96.0562C130.204 97.6808 133.127 98.4229 136.002 98.4229C138.506 98.4229 139.992 98.0989 139.992 96.846C139.992 95.1766 137.023 95.1303 134.518 94.6659C128.628 93.5997 126.121 91.2346 126.121 86.8726C126.121 81.7717 131.273 78.2461 137.21 78.2461C140.734 78.2461 144.212 78.9419 146.486 80.1485V86.6874C143.19 85.0642 140.549 84.3684 137.997 84.3684C135.4 84.3684 133.916 85.1121 133.916 86.1783C133.916 87.6163 136.698 88.1255 139.065 88.4958C141.754 88.9154 147.552 89.6097 147.552 95.8711C147.552 101.205 142.08 104.545 135.585 104.545C132.154 104.545 129.09 103.805 126.263 102.598Z" fill="#404548"/>
<path d="M70.1101 129.127H79.0143C78.7829 126.11 77.7167 124.302 74.7466 124.302C72.2871 124.302 70.5729 125.973 70.1101 129.127ZM62.2227 132.373C62.2227 123.933 67.3714 118.552 74.7466 118.552C83.282 118.552 87.0375 123.608 87.0375 133.672L70.2027 133.719C70.9448 136.872 73.2639 138.265 77.0193 138.265C79.7564 138.265 83.2342 137.707 86.2953 135.899V141.973C83.4687 143.923 79.292 144.897 75.3499 144.897C67.1416 144.897 62.2227 140.398 62.2227 132.373Z" fill="#404548"/>
<path d="M102.717 126.344L107.587 119.155H115.704L106.056 131.354L116.124 144.435H106.752L101.789 137.198L96.9653 144.435H88.5703L98.4034 132.234L89.0795 119.155H98.3571L102.717 126.344Z" fill="#404548"/>
<path d="M127.622 127.364V136.595C129.013 138.312 130.451 139.054 132.121 139.054C135.413 139.054 137.316 135.993 137.316 131.679C137.316 127.226 135.274 124.582 132.074 124.582C130.127 124.582 128.782 125.555 127.622 127.364ZM119.83 154.73V126.02L118.809 119.154H126.463L127.204 122.54C129.06 119.99 131.518 118.597 134.58 118.597C140.888 118.597 145.618 123.236 145.618 131.539C145.618 139.424 141.445 144.99 135.321 144.99C131.889 144.99 129.569 144.016 127.622 141.974V154.73L119.83 154.73Z" fill="#404548"/>
<path d="M150.115 144.433V126.02L149.094 119.154H156.75L157.444 122.494C159.206 120.129 161.434 118.504 165.143 118.504C165.513 118.504 165.885 118.504 166.256 118.552V125.833C165.282 125.648 164.403 125.555 163.566 125.555C161.294 125.555 159.439 126.251 157.908 127.735V144.433L150.115 144.433Z" fill="#404548"/>
<path d="M176.509 129.127H185.415C185.184 126.11 184.116 124.302 181.148 124.302C178.688 124.302 176.972 125.973 176.509 129.127ZM168.625 132.373C168.625 123.933 173.772 118.552 181.147 118.552C189.683 118.552 193.44 123.608 193.44 133.672L176.604 133.719C177.344 136.872 179.665 138.265 183.42 138.265C186.157 138.265 189.635 137.707 192.698 135.899V141.973C189.868 143.923 185.693 144.897 181.752 144.897C173.539 144.897 168.625 140.398 168.625 132.373Z" fill="#404548"/>
<path d="M197.935 142.948V136.407C201.877 138.031 204.799 138.774 207.675 138.774C210.178 138.774 211.664 138.45 211.664 137.197C211.664 135.526 208.695 135.482 206.189 135.017C200.3 133.95 197.793 131.584 197.793 127.224C197.793 122.123 202.943 118.598 208.882 118.598C212.407 118.598 215.885 119.292 218.158 120.5V127.037C214.864 125.414 212.221 124.72 209.669 124.72C207.072 124.72 205.588 125.462 205.588 126.528C205.588 127.966 208.37 128.477 210.736 128.847C213.426 129.267 219.224 129.961 219.224 136.222C219.224 141.556 213.751 144.895 207.257 144.895C203.826 144.895 200.763 144.154 197.935 142.948Z" fill="#404548"/>
<path d="M223.26 142.948V136.407C227.202 138.031 230.126 138.774 233 138.774C235.505 138.774 236.99 138.45 236.99 137.197C236.99 135.526 234.022 135.482 231.516 135.017C225.627 133.95 223.121 131.584 223.121 127.224C223.121 122.123 228.268 118.598 234.207 118.598C237.733 118.598 241.21 119.292 243.485 120.5V127.037C240.19 125.414 237.547 124.72 234.995 124.72C232.399 124.72 230.913 125.462 230.913 126.528C230.913 127.966 233.696 128.477 236.062 128.847C238.752 129.267 244.551 129.961 244.551 136.222C244.551 141.556 239.078 144.895 232.584 144.895C229.151 144.895 226.088 144.154 223.26 142.948Z" fill="#404548"/>
<path d="M295.918 60.0778H278.287C276.031 60.0778 274.203 58.2495 274.203 55.9936C274.203 53.741 276.031 51.9111 278.287 51.9111H295.918C298.172 51.9111 300.001 53.741 300.001 55.9936C300.001 58.2495 298.172 60.0778 295.918 60.0778Z" fill="#404548"/>
</g>
<defs>
<clipPath id="clip0_2021_16712">
<rect width="300.001" height="173.545" fill="white"/>
</clipPath>
</defs>
</svg>
