<svg width="300" height="255" viewBox="0 0 300 255" fill="none" xmlns="http://www.w3.org/2000/svg">
<g clip-path="url(#clip0_2021_16572)">
<path d="M144.074 -0.00043788V181.215C145.327 181.181 146.61 181.181 147.829 181.215V-0.00043788H144.074Z" fill="#253189"/>
<path d="M126.509 64.7766L122.922 66.9844L133.956 182.136C135.142 181.938 136.593 181.74 137.682 181.64L126.509 64.7766Z" fill="#253189"/>
<path d="M114.451 114.756L111.125 117.162L124.401 184.311C125.49 183.983 126.844 183.617 128.026 183.322L114.451 114.756Z" fill="#253189"/>
<path d="M104.633 137.687L101.504 140.323L115.474 187.67C116.462 187.212 118.009 186.581 118.964 186.185L104.633 137.687Z" fill="#253189"/>
<path d="M96.2304 153.243L93.4297 156.207L107.366 192.057C108.392 191.396 109.578 190.703 110.6 190.143L96.2304 153.243Z" fill="#253189"/>
<path d="M88.2235 165.463L85.5195 168.23L99.9855 197.456C100.94 196.632 102.096 195.74 102.917 195.118L88.2235 165.463Z" fill="#253189"/>
<path d="M80.353 176.005L77.75 178.675L93.6331 203.784C94.3858 202.893 95.4455 201.77 96.2025 201.013L80.353 176.005Z" fill="#253189"/>
<path d="M154.223 181.64C155.312 181.74 156.758 181.938 157.944 182.136L168.983 66.9844L165.392 64.7766L154.223 181.64Z" fill="#253189"/>
<path d="M163.875 183.321C165.057 183.616 166.411 183.982 167.5 184.31L180.776 117.161L177.449 114.755L163.875 183.321Z" fill="#253189"/>
<path d="M172.938 186.185C173.892 186.581 175.44 187.207 176.428 187.67L190.402 140.323L187.269 137.687L172.938 186.185Z" fill="#253189"/>
<path d="M181.305 190.143C182.327 190.702 183.517 191.392 184.538 192.052L198.475 156.207L195.674 153.242L181.305 190.143Z" fill="#253189"/>
<path d="M188.98 195.118C189.805 195.745 190.957 196.636 191.912 197.456L206.373 168.234L203.673 165.463L188.98 195.118Z" fill="#253189"/>
<path d="M195.707 201.013C196.464 201.77 197.515 202.893 198.276 203.784L214.16 178.675L211.552 176.005L195.707 201.013Z" fill="#253189"/>
<path d="M294.21 236.976C294.21 239.6 292.216 241.164 289.041 241.164H284.42V232.59H289.041C292.25 232.59 294.21 234.196 294.21 236.976ZM299.929 236.82C299.929 231.299 295.501 227.897 289.353 227.897H278.898V253.894H284.42V245.904H289.353C295.501 245.904 299.929 242.46 299.929 236.82Z" fill="#253189"/>
<path d="M218.742 243.359C217.253 243.359 215.374 243.675 213.805 244.772L218.742 232.396L223.675 244.772C222.11 243.675 220.227 243.359 218.742 243.359ZM227.392 253.894H233.385C229.625 245.164 225.828 236.509 222.068 227.737H215.416C211.656 236.509 208.052 245.164 204.293 253.894H210.088L210.441 253.031C211.93 249.394 214.865 247.434 218.742 247.434C222.619 247.434 225.555 249.394 227.043 253.031L227.392 253.894Z" fill="#253189"/>
<path d="M261.229 241.009C261.229 246.492 258.016 249.116 253.394 249.116H248.428V232.632H253.394C258.058 232.632 261.229 235.176 261.229 241.009ZM266.986 240.971C266.986 232.359 261.662 227.893 253.394 227.893H242.902V253.894H253.394C261.7 253.894 266.986 248.961 266.986 240.971Z" fill="#253189"/>
<path d="M142.166 241.677V231.379H148.117C152.112 231.379 154.538 233.221 154.538 236.471C154.538 239.642 152.112 241.677 147.999 241.677H142.166ZM138.562 227.897V253.894H142.166V245.046H148.041C153.836 245.046 158.377 242.228 158.377 236.354C158.377 231.068 154.307 227.897 148.314 227.897H138.562Z" fill="#253189"/>
<path d="M80.8485 250.723C75.4448 250.723 71.2901 246.573 71.2901 240.891C71.2901 235.218 75.407 230.988 80.7644 230.988C86.0966 230.988 90.243 235.218 90.243 240.933C90.243 246.61 86.1345 250.723 80.8485 250.723ZM80.8485 227.544C73.2497 227.544 67.375 233.377 67.375 240.933C67.375 248.608 73.3296 254.247 80.7644 254.247C88.3254 254.247 94.158 248.41 94.158 240.891C94.158 233.221 88.2497 227.544 80.8485 227.544Z" fill="#253189"/>
<path d="M40.6691 231.379H48.0324C51.8675 231.379 54.1005 233.061 54.1005 235.92C54.1005 238.742 51.8675 240.698 47.9903 240.698H40.6691V231.379ZM47.4815 244.146L55.0425 253.894H59.5421L51.4344 243.439C55.4714 242.464 57.9777 239.915 57.9777 235.845C57.9777 230.95 54.0206 227.897 48.1459 227.897H37.0273V253.894H40.6691V244.146H47.4815Z" fill="#253189"/>
<path d="M186.826 231.341V227.897H168.5V253.894H186.826V250.449H172.222V242.266H185.493V238.978H172.222V231.341H186.826Z" fill="#253189"/>
<path d="M122.697 242.733C122.697 248.41 119.447 250.723 115.334 250.723C111.183 250.723 107.836 248.41 107.836 242.695V227.7H104.098V243.007C104.098 250.525 109.384 254.247 115.258 254.247C121.284 254.247 126.436 250.525 126.436 243.007V227.7H122.697V242.733Z" fill="#253189"/>
<path d="M23.1659 230.517C23.1659 230.555 21.0087 233.414 21.0087 233.414C18.9776 231.85 16.7025 230.984 13.6874 230.984C8.55703 230.984 3.98176 234.827 3.98176 240.891C3.98176 246.686 8.32575 250.799 13.9649 250.799C16.5469 250.799 18.7799 250.097 20.3064 249.075V243.242H13.4519V239.798H23.9061V251.114C21.3619 252.994 17.9557 254.247 13.9649 254.247C6.32827 254.247 0.0625 248.801 0.0625 240.933C0.0625 232.906 6.20632 227.544 13.6874 227.544C17.5646 227.544 20.3863 228.482 23.1659 230.517Z" fill="#253189"/>
</g>
<defs>
<clipPath id="clip0_2021_16572">
<rect width="300" height="254.3" fill="white"/>
</clipPath>
</defs>
</svg>
