<svg width="601" height="195" viewBox="0 0 601 195" fill="none" xmlns="http://www.w3.org/2000/svg">
<g clip-path="url(#clip0_2021_17026)">
<path d="M392.301 122.207C395.801 122.207 398.901 123.007 401.701 124.507L401.801 124.607V130.507L401.301 130.207C398.901 128.607 396.001 127.807 392.801 127.807C387.801 127.807 383.701 129.507 380.701 132.707C377.701 136.007 376.201 140.007 376.201 144.607C376.201 149.307 377.701 153.307 380.501 156.507C383.401 159.707 387.501 161.307 392.801 161.307C396.101 161.307 398.901 160.407 401.301 158.707L401.801 158.407V164.307L401.701 164.407C399.301 166.007 396.101 166.807 392.301 166.807C385.401 166.807 380.001 164.607 376.101 160.307C372.201 156.007 370.301 150.707 370.301 144.607C370.301 138.807 372.201 133.707 375.901 129.407L376.201 129.007C380.201 124.407 385.601 122.207 392.301 122.207ZM520.301 122.207C523.801 122.207 526.901 123.007 529.701 124.507L529.801 124.607V130.507L529.401 130.207C527.001 128.607 524.101 127.807 520.801 127.807C515.801 127.807 511.701 129.507 508.701 132.707C505.701 136.007 504.201 140.007 504.201 144.607C504.201 149.307 505.601 153.307 508.501 156.507C511.401 159.707 515.501 161.307 520.801 161.307C524.101 161.307 527.001 160.407 529.301 158.707L529.801 158.407V164.307L529.701 164.407C527.301 166.007 524.101 166.807 520.301 166.807C513.401 166.807 508.001 164.607 504.101 160.307C500.201 156.007 498.301 150.707 498.301 144.607C498.301 138.807 500.201 133.707 503.901 129.407L504.201 129.007C508.201 124.407 513.601 122.207 520.301 122.207ZM236.401 122.907V151.007C236.401 154.107 237.201 156.507 238.801 158.207C240.401 159.907 242.601 160.707 245.301 160.707C248.901 160.707 251.901 159.407 254.101 156.807C256.301 154.207 257.501 150.807 257.501 146.607V122.907H263.201V165.607H257.501V159.107C255.101 163.807 250.701 166.207 244.401 166.207C240.201 166.207 236.901 164.907 234.401 162.407C231.901 159.907 230.701 156.507 230.701 152.407V122.907H236.401ZM350.801 108.507C355.301 108.507 359.101 109.307 362.201 110.807L362.701 111.107V117.607L362.201 117.307C360.901 116.407 359.201 115.707 357.101 115.107C355.101 114.507 353.001 114.207 350.901 114.207C347.301 114.207 344.301 115.107 342.201 116.807C340.101 118.507 339.001 120.707 339.001 123.507C339.001 125.007 339.301 126.207 339.801 127.407C340.301 128.507 341.301 129.507 342.701 130.507C343.901 131.407 345.101 132.107 346.001 132.607L346.501 132.807L346.901 133.007L347.401 133.207L347.901 133.407L348.801 133.807L349.801 134.207L350.901 134.707L353.001 135.607L354.401 136.207L355.301 136.607L355.501 136.707L356.001 137.007L356.601 137.307L357.201 137.607C357.501 137.807 357.801 138.007 358.201 138.207L358.901 138.607L359.201 138.807C360.701 139.707 361.801 140.707 362.601 141.607L362.801 141.807C363.601 142.807 364.401 144.107 365.001 145.607C365.601 147.207 366.001 148.907 366.001 150.707C366.001 155.607 364.301 159.507 361.001 162.107C357.701 164.707 353.401 166.007 348.301 166.007C342.701 166.007 337.901 164.807 333.901 162.507L333.301 162.207V155.707L333.801 156.107C335.401 157.307 337.601 158.407 340.201 159.207C342.801 160.007 345.401 160.407 348.101 160.407C352.001 160.407 355.001 159.607 357.101 157.907C359.201 156.207 360.301 153.807 360.301 150.707C360.301 148.407 359.501 146.407 357.901 145.007C356.301 143.507 353.901 142.107 350.801 140.707L350.401 140.507L349.601 140.107L347.901 139.407L345.701 138.407L345.001 138.107H344.201L342.901 137.407L341.901 136.907L341.601 136.807C341.201 136.607 340.901 136.407 340.501 136.207L340.001 135.907C339.501 135.607 339.101 135.307 338.701 135.007L338.301 134.607L337.801 134.207L337.301 133.707L336.701 133.207C336.601 133.107 336.501 133.007 336.401 132.907C335.501 132.007 334.801 131.207 334.401 130.307C334.001 129.307 333.601 128.307 333.301 127.307C333.001 126.107 332.801 124.907 332.801 123.607C332.801 118.807 334.601 115.007 338.001 112.407C341.601 109.907 345.801 108.507 350.801 108.507ZM586.801 122.507C591.301 122.507 594.901 123.207 597.401 124.407L597.601 124.507V130.307L597.201 130.007C594.601 128.507 591.101 127.807 586.801 127.807C584.401 127.807 582.601 128.407 581.201 129.507C579.901 130.607 579.201 131.907 579.201 133.707C579.201 134.807 579.401 135.707 579.801 136.507C580.201 137.307 580.901 138.007 581.901 138.707C582.801 139.307 583.601 139.807 584.301 140.107L584.701 140.307L585.201 140.507L586.601 141.107L588.101 141.707C591.801 143.207 594.801 144.807 596.801 146.607L597.101 146.807C599.201 148.707 600.301 151.307 600.301 154.507C600.301 158.107 599.001 160.907 596.601 163.007C594.201 165.107 590.701 166.107 586.501 166.107C581.601 166.107 577.501 165.307 574.401 163.807L573.901 163.507V157.607L574.301 157.807C577.901 159.907 582.001 160.907 586.101 160.907C588.901 160.907 591.001 160.307 592.401 159.207C593.801 158.107 594.501 156.707 594.501 154.907C594.501 152.807 593.801 151.107 592.301 150.007C591.001 149.007 588.901 147.907 586.201 146.707L585.301 146.307L584.901 146.107C581.501 144.807 578.801 143.207 576.801 141.407C574.801 139.607 573.701 137.007 573.701 133.907C573.701 130.407 575.001 127.607 577.601 125.607C579.801 123.607 583.001 122.507 586.801 122.507ZM279.401 112.407V123.007H291.401V127.907H279.401V153.807C279.401 158.507 281.501 160.707 285.801 160.707C287.901 160.707 289.801 160.107 291.301 158.907L291.801 158.507V164.407L291.701 164.507C290.001 165.607 288.101 166.107 286.001 166.107C277.901 166.107 273.701 161.907 273.701 153.507V127.907H266.801V123.007H273.701V112.407H279.401ZM438.401 122.407C443.601 122.407 447.801 124.107 450.901 127.607C454.001 131.007 455.601 135.907 455.601 142.107C455.601 142.807 455.601 143.407 455.601 144.007V144.707C455.601 145.307 455.501 145.907 455.401 146.407L455.301 146.907H425.601C426.001 151.307 427.601 154.707 430.301 157.107C433.101 159.507 436.801 160.707 441.301 160.707C445.801 160.707 449.501 159.807 452.201 158.107L453.001 157.607V163.507L452.801 163.607C449.401 165.307 445.501 166.107 441.001 166.107C434.701 166.107 429.501 164.107 425.601 160.207C421.701 156.307 419.701 151.007 419.701 144.607C419.701 137.807 421.501 132.407 424.901 128.507C428.301 124.407 432.901 122.407 438.401 122.407ZM552.201 122.407C557.401 122.407 561.601 124.107 564.701 127.607C567.801 131.007 569.301 135.907 569.301 142.107C569.301 142.807 569.301 143.407 569.301 144.007V144.707C569.301 145.307 569.201 145.907 569.101 146.407L569.001 146.907H539.301C539.701 151.307 541.301 154.707 544.001 157.107C546.801 159.507 550.501 160.707 555.001 160.707C559.501 160.707 563.201 159.807 565.901 158.107L566.701 157.607V163.507L566.501 163.607C563.101 165.307 559.201 166.107 554.701 166.107C548.401 166.107 543.201 164.107 539.301 160.207C535.401 156.307 533.401 151.007 533.401 144.607C533.401 137.807 535.201 132.407 538.601 128.507C542.101 124.407 546.701 122.407 552.201 122.407ZM413.901 122.907V165.607H408.201V122.907H413.901ZM180.301 109.007H187.801L202.201 132.807L217.401 158.107L217.301 153.707L217.201 146.607V139.507V108.907H222.901V165.507H215.401L201.201 142.007L185.901 116.507L186.001 122.007V129.307V135.607V165.607H180.301V109.007ZM325.101 122.907V165.607H319.401V122.907H325.101ZM314.301 122.407H314.501H314.801H315.101H315.501H315.901L316.601 122.507V128.307L316.201 128.207C315.201 127.907 314.101 127.707 313.001 127.707C310.101 127.707 307.701 129.207 305.701 132.007C303.701 134.807 302.701 138.207 302.701 141.707V165.507H297.001V122.807H302.701V129.007C305.201 124.707 309.101 122.407 314.301 122.407ZM479.901 122.307C484.001 122.307 487.401 123.607 489.801 126.107C492.301 128.607 493.501 131.907 493.501 135.907V165.607H487.801V137.507C487.801 134.307 487.001 131.907 485.401 130.207C483.801 128.507 481.701 127.707 479.001 127.707C475.701 127.707 472.801 129.007 470.301 131.507C467.901 134.107 466.601 137.607 466.601 142.007V165.507H460.901V122.807H466.601V129.107C469.501 124.607 473.901 122.307 479.901 122.307ZM438.301 127.707C434.801 127.707 431.901 128.907 429.601 131.407C427.301 133.807 426.001 137.207 425.601 141.607H449.801V140.007C449.801 136.307 448.701 133.307 446.701 131.107C444.601 128.807 441.701 127.707 438.301 127.707ZM552.101 127.707C548.701 127.707 545.801 128.907 543.401 131.407C541.101 133.807 539.801 137.207 539.301 141.607H563.501V140.007C563.501 136.307 562.501 133.307 560.401 131.107C558.401 128.807 555.601 127.707 552.101 127.707ZM322.201 105.907C323.301 105.907 324.201 106.307 324.901 107.007C325.701 107.807 326.001 108.707 326.001 109.707C326.001 110.707 325.601 111.707 324.901 112.407C324.101 113.107 323.201 113.507 322.201 113.507C321.101 113.507 320.201 113.107 319.501 112.407C318.801 111.707 318.401 110.807 318.401 109.707C318.401 108.607 318.801 107.707 319.501 107.007C320.201 106.307 321.101 105.907 322.201 105.907ZM411.101 105.907C412.201 105.907 413.101 106.307 413.801 107.007C414.601 107.807 414.901 108.707 414.901 109.707C414.901 110.707 414.501 111.707 413.801 112.407C413.101 113.107 412.101 113.507 411.101 113.507C410.001 113.507 409.101 113.107 408.401 112.407C407.701 111.707 407.301 110.807 407.301 109.707C407.301 108.607 407.701 107.707 408.401 107.007C409.101 106.307 410.001 105.907 411.101 105.907ZM441.201 28.1068C449.701 28.1068 456.601 30.7068 461.601 35.9068C466.601 41.1068 469.201 48.7068 469.201 58.6068C469.201 59.7068 469.101 60.9069 469.001 62.3069L468.901 63.2068L468.801 64.2068L468.701 65.2068L468.601 66.2068L468.401 67.3069L468.301 68.1068H427.501C428.601 72.5068 430.901 76.0068 434.301 78.4068C437.801 80.8068 442.201 82.1068 447.401 82.1068C454.001 82.1068 459.601 80.5069 464.201 77.3069L465.101 76.7068V90.8069L465.001 90.9068C460.401 93.8068 453.801 95.2068 445.101 95.2068C434.701 95.2068 426.301 92.1068 420.301 85.9068C414.301 79.7068 411.201 71.6069 411.201 61.8069C411.201 51.4069 414.101 43.1068 419.801 37.1068C425.501 31.2068 432.701 28.1068 441.201 28.1068ZM312.301 28.1068C320.801 28.1068 327.701 30.7068 332.701 35.9068C337.701 41.1068 340.301 48.7068 340.301 58.6068C340.301 59.7068 340.201 60.9069 340.101 62.3069L340.001 63.2068C340.001 63.5068 339.901 63.9068 339.901 64.2068L339.801 65.2068L339.701 66.2068L339.501 67.3069L339.401 68.1068H298.601C299.701 72.5068 302.001 76.0068 305.401 78.4068C308.901 80.8068 313.301 82.1068 318.601 82.1068C325.201 82.1068 330.801 80.5069 335.401 77.3069L336.301 76.7068V90.8069L336.201 90.9068C331.601 93.8068 324.901 95.2068 316.401 95.2068C306.001 95.2068 297.601 92.1068 291.601 85.9068C285.601 79.7068 282.501 71.6069 282.501 61.8069C282.501 51.4069 285.401 43.1068 291.101 37.1068C296.501 31.2068 303.701 28.1068 312.301 28.1068ZM491.701 28.8068V69.6068C491.701 73.6068 492.701 76.7069 494.601 78.8069C496.601 80.9069 499.301 81.9068 502.701 81.9068C507.001 81.9068 510.501 80.4068 513.001 77.5068C515.501 74.6068 516.701 70.0068 516.701 64.0068V28.7069H532.901V94.5068H516.701V84.8069C513.101 91.7069 506.401 95.2068 496.901 95.2068C490.201 95.2068 485.001 93.3068 481.201 89.4068C477.501 85.6068 475.601 80.1068 475.601 73.1068V28.7069H491.701V28.8068ZM206.501 7.30684L206.601 7.50684L218.401 39.0068C220.201 43.6068 221.901 48.2068 223.501 52.9068L224.401 55.4068L225.301 58.0068L226.201 60.8069L227.001 63.2068L227.701 65.3069L228.101 66.7068L229.001 69.7068L229.501 68.1068L230.001 66.5068L230.501 64.8069L231.101 63.1068L231.701 61.4068L232.301 59.6068L232.601 58.7068L233.201 56.9068L233.901 55.0068L234.601 53.1068L235.301 51.2068L236.001 49.2068L236.701 47.2068L237.401 45.2068L238.201 43.1068L239.001 41.0068L239.801 38.9068L252.001 7.20685H271.001V7.50684L279.501 94.6068H262.701V94.3069L259.601 60.5068L257.401 31.5068L256.401 34.3069L255.401 37.2068L253.601 42.2068L252.501 45.3069L250.901 49.5068L249.701 52.8069L248.001 57.3069L246.701 60.7068L234.501 93.5068H223.001L222.901 93.3069L211.201 60.6068L201.601 32.2068V33.5068L201.501 35.0068L201.401 37.4068L201.301 40.2068L201.001 45.9068L200.601 52.0068L200.201 57.7068L200.001 60.4068L197.401 94.5068H180.601V94.2068L187.601 7.20685H206.501V7.30684ZM378.301 28.3068C380.101 28.3068 381.601 28.4069 382.701 28.7069L382.901 28.8068V44.4068L382.501 44.2068C380.501 43.3068 378.301 42.9068 376.101 42.9068C372.001 42.9068 368.601 44.6068 366.001 47.9068C363.401 51.3068 362.101 55.5068 362.101 60.6068V94.6068H345.901L346.001 28.8068H362.001V39.2068C365.301 32.0068 370.701 28.3068 378.301 28.3068ZM404.301 28.8068V94.6068H388.301V28.8068H404.301ZM554.701 28.8068L566.801 49.8069L579.501 28.8068H597.501L574.601 61.5068L596.701 94.6068H578.901L578.801 94.5068L566.201 73.0068L553.001 94.6068H535.201L558.201 61.4068L536.601 28.8068H554.701ZM312.701 40.8069C309.201 40.8069 306.201 42.0068 303.601 44.5068L303.301 44.8069C300.701 47.4069 299.001 51.2068 298.201 56.1068H325.001V54.5068C324.801 50.4068 323.701 47.0068 321.701 44.6068C319.601 42.1068 316.601 40.8069 312.701 40.8069ZM441.601 40.8069C438.101 40.8069 435.101 42.0068 432.501 44.5068L432.201 44.8069C429.601 47.4069 427.901 51.2068 427.101 56.1068H453.901V54.5068C453.701 50.4068 452.601 47.0068 450.601 44.6068C448.601 42.1068 445.501 40.8069 441.601 40.8069ZM336.401 0.706849L321.001 23.1068H307.401L319.401 0.80684H336.401V0.706849ZM396.301 0.00683706C398.901 0.00683706 401.201 0.90684 403.101 2.80684C404.901 4.60684 405.901 7.00684 405.901 9.60684C405.901 12.3068 405.001 14.7068 403.101 16.5068C401.301 18.3068 398.901 19.3068 396.301 19.3068C393.601 19.3068 391.401 18.4068 389.501 16.5068C387.701 14.6068 386.701 12.3068 386.701 9.60684C386.701 7.00684 387.601 4.70684 389.501 2.80684C391.301 0.90684 393.801 -0.0931629 396.301 0.00683706Z" fill="#0A4479"/>
<path d="M110.9 105.307L25 61.7066C10.8 54.0066 4.8 43.0066 2.9 34.5066C2.8 33.9066 2.2 33.4066 1.5 33.3066C0.7 33.3066 0 33.9066 0 34.7066V71.3066C0 98.7066 9.3 116.607 27.5 126.107L98.9 162.107C116 170.707 132.7 181.407 135.5 193.607C135.6 194.307 136.2 194.707 136.9 194.707H137C137.8 194.707 138.4 194.107 138.4 193.307V160.007C138.4 132.607 129.1 114.707 110.9 105.307Z" fill="#AFCC46"/>
<path d="M158 43.6064C158 65.1064 140.6 82.6064 119 82.6064C97.5 82.6064 80 65.2064 80 43.6064C80 22.1064 97.4 4.60645 119 4.60645C140.6 4.60645 158 22.0064 158 43.6064Z" fill="#00ABE7"/>
</g>
<defs>
<clipPath id="clip0_2021_17026">
<rect width="600.301" height="194.707" fill="white"/>
</clipPath>
</defs>
</svg>
