<svg width="300" height="300" viewBox="0 0 300 300" fill="none" xmlns="http://www.w3.org/2000/svg">
<g clip-path="url(#clip0_471_6243)">
<path d="M0 0H298.856C298.853 99.8808 298.859 199.762 298.853 299.642C199.237 299.648 99.6155 299.642 0 299.645V0ZM258.756 216.735C258.744 217.37 258.741 218.009 258.753 218.647C260.181 218.638 261.615 218.644 263.043 218.644C263.052 222.619 263.043 226.594 263.049 230.573C263.829 230.566 264.609 230.566 265.39 230.569C265.39 226.594 265.387 222.619 265.393 218.644C266.824 218.644 268.261 218.641 269.692 218.644C269.689 218.009 269.689 217.377 269.692 216.741C266.046 216.735 262.401 216.748 258.756 216.735ZM272.418 216.738C272.409 221.349 272.409 225.959 272.418 230.569C273.195 230.569 273.972 230.569 274.752 230.569C274.768 226.792 274.728 223.017 274.777 219.239C276.34 222.983 277.753 226.789 279.245 230.56C279.745 230.563 280.248 230.563 280.757 230.563C282.262 226.776 283.696 222.962 285.241 219.193C285.268 222.983 285.247 226.776 285.256 230.569C286.03 230.566 286.807 230.566 287.584 230.576C287.612 225.965 287.587 221.355 287.597 216.744C286.412 216.735 285.228 216.738 284.047 216.744C282.73 220.208 281.386 223.662 280.05 227.119C278.706 223.655 277.337 220.201 275.992 216.738C274.799 216.741 273.605 216.738 272.418 216.738ZM35.4739 231.482C29.6577 231.717 23.8014 234.353 20.3382 239.149C17.3592 243.167 16.1688 248.274 16.1935 253.218C16.104 257.871 17.0415 262.663 19.5271 266.651C21.5409 269.914 24.6248 272.473 28.1713 273.91C32.4455 275.647 37.2379 275.958 41.7403 275.03C45.9159 274.169 49.8695 271.98 52.5894 268.659C55.0442 265.72 56.4659 262.025 57.0456 258.263C57.6717 253.893 57.5051 249.353 56.2161 245.116C55.0072 241.144 52.5555 237.527 49.1478 235.137C45.2035 232.337 40.2539 231.226 35.4739 231.482ZM75.2806 237.382C75.2868 235.766 75.2868 234.15 75.2806 232.537C71.7989 232.537 68.3172 232.519 64.8355 232.549C64.854 246.476 64.8386 260.403 64.8448 274.33C68.5763 274.345 72.3078 274.33 76.0393 274.339C76.0578 265.094 76.0177 255.845 76.0609 246.603C76.5173 245.243 77.7632 244.259 79.006 243.614C81.8586 242.257 85.0905 242.14 88.1898 242.112C88.1898 238.659 88.1867 235.205 88.1928 231.754C83.308 231.297 78.4262 233.715 75.2806 237.382ZM102.678 232.885C98.8785 234.101 95.4893 236.568 93.2011 239.849C95.6713 241.295 98.1661 242.701 100.655 244.114C102.777 241.48 105.913 239.664 109.305 239.396C111.732 239.186 114.64 239.309 116.373 241.28C117.601 242.689 117.243 244.66 117.289 246.371C111.59 247.044 105.839 247.981 100.528 250.242C97.5308 251.543 94.6073 253.409 92.8372 256.24C90.8604 259.416 90.66 263.478 91.7609 266.996C92.6552 269.898 94.8078 272.378 97.5771 273.62C100.75 275.098 104.38 275.017 107.763 274.478C111.137 273.913 114.369 272.597 117.228 270.719C117.545 271.924 117.863 273.127 118.184 274.336C121.449 274.333 124.715 274.336 127.981 274.336C127.861 264.677 127.938 255.012 127.926 245.354C128.12 242.507 127.583 239.494 125.798 237.203C123.476 234.104 119.63 232.636 115.926 232.044C111.522 231.411 106.94 231.522 102.678 232.885ZM157.192 231.988C153.278 232.796 149.852 234.998 146.657 237.305C146.336 235.67 145.966 234.042 145.676 232.404C142.626 232.821 139.573 233.243 136.523 233.672C136.517 247.207 136.523 260.739 136.523 274.271C140.172 274.274 143.817 274.271 147.468 274.271C147.468 264.295 147.468 254.322 147.468 244.348C150.052 242.196 153.01 240.234 156.421 239.809C158.138 239.618 160.155 239.719 161.407 241.079C162.644 242.526 162.841 244.533 162.9 246.362C162.906 255.666 162.903 264.967 162.903 274.271C166.573 274.277 170.243 274.271 173.912 274.271C173.912 264.375 173.912 254.479 173.912 244.583C173.869 242.597 173.598 240.595 172.913 238.726C172.022 236.213 170.175 234.039 167.735 232.935C164.457 231.445 160.683 231.325 157.192 231.988ZM185.795 238.069C182.439 242.612 181.264 248.419 181.372 253.982C181.419 259.058 182.544 264.372 185.761 268.418C188.311 271.708 192.286 273.738 196.394 274.169C199.391 274.456 202.596 274.33 205.276 272.803C207.138 271.764 208.449 270.019 209.55 268.233C209.636 269.991 209.574 271.752 209.593 273.509C209.522 275.838 209.183 278.373 207.573 280.18C206.105 281.811 203.817 282.388 201.695 282.394C199.465 282.425 197.057 282.348 195.126 281.093C194.164 280.473 193.671 279.387 193.387 278.32C189.767 278.903 186.149 279.489 182.529 280.072C183.186 283.452 185.542 286.32 188.524 287.942C193.181 290.532 198.716 290.819 203.909 290.32C208.412 289.869 213.167 288.587 216.377 285.197C219.255 282.157 220.155 277.827 220.22 273.762C220.22 259.977 220.22 246.196 220.22 232.411C217.115 232.429 214.009 232.364 210.907 232.444C210.666 233.983 210.364 235.516 210.096 237.055C209.133 235.06 207.258 233.675 205.248 232.861C202.605 231.778 199.691 231.522 196.857 231.686C192.453 232.019 188.37 234.514 185.795 238.069ZM231.578 237.755C228.556 241.354 227.208 246.069 226.872 250.692C226.548 255.737 227.02 260.998 229.324 265.572C231.109 269.137 234.175 272.057 237.884 273.531C242.649 275.452 247.997 275.434 252.962 274.382C257.822 273.318 262.395 270.398 264.868 265.994C262.17 264.511 259.475 263.012 256.789 261.507C255.583 263.237 254.115 264.856 252.212 265.815C250.069 266.907 247.568 267.046 245.227 266.706C242.961 266.376 240.817 265.127 239.581 263.175C238.054 260.776 237.635 257.846 237.616 255.049C246.831 255.056 256.049 255.049 265.269 255.052C265.581 251.373 265.229 247.623 264.171 244.086C263.009 240.25 260.647 236.697 257.236 234.529C253.054 231.822 247.83 231.236 242.976 231.806C238.631 232.33 234.387 234.335 231.578 237.755Z" fill="#FF6600"/>
<path d="M240.171 241.56C241.503 240.052 243.49 239.241 245.472 239.121C248.001 238.933 250.761 239.642 252.488 241.607C254.015 243.306 254.524 245.656 254.582 247.885C248.982 247.882 243.382 247.892 237.781 247.879C237.963 245.616 238.623 243.281 240.171 241.56Z" fill="#FF6600"/>
<path d="M199.218 239.596C201.796 239.121 204.602 239.951 206.428 241.859C208.574 244.055 209.447 247.179 209.632 250.18C209.718 252.379 209.626 254.593 209.277 256.767C208.886 259.058 208.115 261.402 206.462 263.095C204.957 264.628 202.767 265.328 200.655 265.275C198.687 265.337 196.615 264.711 195.252 263.228C193.42 261.337 192.812 258.642 192.516 256.107C192.276 253.526 192.205 250.914 192.544 248.339C192.865 246.075 193.565 243.775 195.076 242.011C196.128 240.762 197.611 239.889 199.218 239.596Z" fill="#FF6600"/>
<path d="M35.0229 240.922C37.6936 240.524 40.6819 240.965 42.7727 242.8C44.7372 244.493 45.6932 247.05 46.1218 249.548C46.5752 252.357 46.5567 255.25 46.0108 258.041C45.5112 260.492 44.4195 262.966 42.3842 264.511C40.1144 266.201 37.0706 266.503 34.363 265.945C32.1518 265.494 30.1874 264.054 29.0587 262.099C27.4304 259.268 27.0727 255.907 27.1405 252.693C27.2454 249.807 27.7542 246.803 29.3979 244.367C30.6716 242.473 32.7686 241.218 35.0229 240.922Z" fill="#FF6600"/>
<path d="M107.148 255.355C110.269 254.062 113.633 253.489 116.967 253.066C116.979 256.323 116.961 259.583 116.976 262.842C114.188 265.346 110.632 267.314 106.799 267.243C105.513 267.277 104.24 266.728 103.364 265.794C101.695 263.916 101.455 260.943 102.747 258.796C103.709 257.134 105.433 256.101 107.148 255.355Z" fill="#FF6600"/>
<path d="M298.856 0H299.109V299.898H0V299.645C99.6155 299.642 199.237 299.648 298.853 299.642C298.859 199.762 298.853 99.8808 298.856 0Z" fill="#FED9BF"/>
<path d="M258.757 216.735C262.402 216.748 266.047 216.735 269.692 216.742C269.689 217.377 269.689 218.009 269.692 218.644C268.262 218.641 266.824 218.644 265.394 218.644C265.387 222.619 265.39 226.595 265.39 230.57C264.61 230.567 263.83 230.567 263.05 230.573C263.044 226.595 263.053 222.619 263.044 218.644C261.616 218.644 260.182 218.638 258.754 218.647C258.742 218.009 258.745 217.371 258.757 216.735Z" fill="white"/>
<path d="M272.417 216.738C273.604 216.738 274.798 216.741 275.991 216.738C277.336 220.201 278.705 223.655 280.05 227.119C281.385 223.662 282.73 220.208 284.046 216.744C285.228 216.738 286.412 216.735 287.596 216.744C287.587 221.355 287.611 225.965 287.584 230.576C286.806 230.566 286.029 230.566 285.255 230.569C285.246 226.776 285.268 222.983 285.24 219.193C283.695 222.962 282.261 226.776 280.756 230.563C280.247 230.563 279.744 230.563 279.245 230.56C277.752 226.789 276.34 222.983 274.776 219.239C274.727 223.017 274.767 226.792 274.752 230.569C273.971 230.569 273.194 230.569 272.417 230.569C272.408 225.959 272.408 221.349 272.417 216.738Z" fill="white"/>
<path d="M35.4737 231.482C40.2537 231.226 45.2034 232.336 49.1477 235.136C52.5553 237.526 55.007 241.144 56.2159 245.116C57.505 249.353 57.6715 253.893 57.0455 258.262C56.4657 262.025 55.044 265.719 52.5893 268.658C49.8693 271.98 45.9158 274.169 41.7402 275.029C37.2377 275.958 32.4454 275.646 28.1711 273.91C24.6246 272.473 21.5407 269.913 19.527 266.651C17.0414 262.663 16.1039 257.871 16.1933 253.217C16.1686 248.274 17.359 243.167 20.338 239.149C23.8012 234.353 29.6575 231.716 35.4737 231.482ZM35.0235 240.922C32.7692 241.218 30.6721 242.473 29.3985 244.366C27.7548 246.803 27.2459 249.806 27.1411 252.693C27.0732 255.906 27.431 259.268 29.0593 262.099C30.188 264.054 32.1524 265.494 34.3635 265.944C37.0712 266.503 40.115 266.2 42.3847 264.51C44.4201 262.965 45.5118 260.492 46.0114 258.04C46.5572 255.249 46.5757 252.357 46.1224 249.547C45.6937 247.049 44.7377 244.493 42.7733 242.8C40.6824 240.965 37.6941 240.524 35.0235 240.922Z" fill="white"/>
<path d="M75.281 237.382C78.4266 233.715 83.3084 231.297 88.1933 231.753C88.1871 235.204 88.1902 238.658 88.1902 242.112C85.0909 242.14 81.859 242.257 79.0064 243.614C77.7636 244.259 76.5177 245.242 76.0613 246.602C76.0181 255.845 76.0582 265.093 76.0397 274.339C72.3082 274.33 68.5767 274.345 64.8452 274.33C64.839 260.403 64.8544 246.476 64.8359 232.549C68.3176 232.518 71.7993 232.537 75.281 232.537C75.2872 234.15 75.2872 235.766 75.281 237.382Z" fill="white"/>
<path d="M102.677 232.886C106.939 231.523 111.521 231.412 115.925 232.044C119.629 232.636 123.475 234.104 125.797 237.203C127.582 239.494 128.119 242.507 127.925 245.354C127.937 255.012 127.86 264.677 127.98 274.336C124.714 274.336 121.448 274.333 118.183 274.336C117.862 273.127 117.544 271.924 117.227 270.719C114.368 272.597 111.136 273.914 107.762 274.478C104.379 275.018 100.749 275.098 97.5762 273.621C94.8068 272.378 92.6543 269.898 91.76 266.996C90.659 263.478 90.8595 259.416 92.8362 256.24C94.6064 253.409 97.5299 251.543 100.527 250.242C105.838 247.981 111.589 247.044 117.288 246.371C117.242 244.66 117.6 242.689 116.372 241.28C114.639 239.309 111.731 239.186 109.304 239.396C105.912 239.664 102.776 241.48 100.654 244.114C98.1652 242.702 95.6703 241.295 93.2001 239.849C95.4884 236.568 98.8775 234.101 102.677 232.886ZM107.149 255.355C105.434 256.101 103.71 257.134 102.748 258.796C101.456 260.943 101.696 263.916 103.365 265.794C104.24 266.728 105.514 267.277 106.8 267.243C110.633 267.314 114.189 265.347 116.977 262.842C116.961 259.583 116.98 256.323 116.968 253.067C113.634 253.489 110.269 254.063 107.149 255.355Z" fill="white"/>
<path d="M157.19 231.988C160.681 231.325 164.456 231.445 167.734 232.935C170.174 234.039 172.021 236.213 172.912 238.726C173.597 240.595 173.868 242.597 173.911 244.583C173.911 254.479 173.911 264.375 173.911 274.271C170.241 274.271 166.572 274.277 162.902 274.271C162.902 264.967 162.905 255.666 162.899 246.362C162.84 244.533 162.643 242.526 161.406 241.079C160.154 239.719 158.137 239.618 156.419 239.809C153.009 240.234 150.051 242.196 147.467 244.348C147.467 254.322 147.467 264.295 147.467 274.271C143.816 274.271 140.171 274.274 136.522 274.271C136.522 260.739 136.516 247.207 136.522 233.672C139.572 233.243 142.625 232.821 145.675 232.404C145.965 234.042 146.335 235.67 146.656 237.305C149.851 234.998 153.277 232.796 157.19 231.988Z" fill="white"/>
<path d="M185.796 238.069C188.371 234.514 192.454 232.019 196.858 231.686C199.692 231.522 202.606 231.778 205.249 232.861C207.26 233.675 209.135 235.06 210.097 237.055C210.366 235.516 210.668 233.983 210.908 232.444C214.011 232.364 217.116 232.429 220.222 232.41C220.222 246.195 220.222 259.977 220.222 273.762C220.157 277.827 219.256 282.157 216.379 285.197C213.169 288.586 208.413 289.869 203.911 290.32C198.718 290.819 193.182 290.532 188.525 287.942C185.543 286.32 183.187 283.452 182.53 280.072C186.151 279.489 189.768 278.903 193.389 278.32C193.672 279.387 194.166 280.473 195.128 281.093C197.059 282.348 199.467 282.425 201.697 282.394C203.818 282.388 206.107 281.811 207.575 280.18C209.184 278.373 209.524 275.838 209.595 273.509C209.576 271.752 209.638 269.991 209.551 268.233C208.45 270.018 207.14 271.764 205.277 272.803C202.597 274.33 199.393 274.456 196.396 274.169C192.288 273.738 188.313 271.708 185.762 268.418C182.546 264.372 181.42 259.058 181.374 253.982C181.266 248.419 182.441 242.612 185.796 238.069ZM199.217 239.596C197.611 239.889 196.127 240.762 195.076 242.011C193.565 243.775 192.864 246.075 192.544 248.339C192.205 250.914 192.275 253.526 192.516 256.107C192.812 258.642 193.42 261.337 195.251 263.228C196.614 264.711 198.687 265.337 200.654 265.275C202.767 265.328 204.956 264.628 206.461 263.095C208.114 261.402 208.885 259.058 209.277 256.767C209.625 254.593 209.718 252.379 209.632 250.18C209.447 247.179 208.574 244.055 206.427 241.859C204.602 239.951 201.795 239.121 199.217 239.596Z" fill="white"/>
<path d="M231.579 237.755C234.388 234.335 238.632 232.33 242.977 231.806C247.831 231.235 253.055 231.821 257.237 234.529C260.647 236.697 263.01 240.25 264.172 244.086C265.23 247.623 265.582 251.373 265.27 255.052C256.049 255.049 246.832 255.055 237.617 255.049C237.635 257.846 238.055 260.776 239.581 263.175C240.818 265.127 242.961 266.376 245.228 266.706C247.569 267.045 250.07 266.907 252.213 265.815C254.116 264.856 255.584 263.237 256.789 261.507C259.476 263.012 262.171 264.51 264.869 265.994C262.396 270.398 257.823 273.318 252.962 274.382C247.997 275.434 242.65 275.452 237.885 273.531C234.175 272.057 231.11 269.136 229.324 265.571C227.021 260.998 226.549 255.737 226.873 250.692C227.209 246.069 228.557 241.354 231.579 237.755ZM240.174 241.56C238.625 243.281 237.965 245.616 237.784 247.879C243.384 247.891 248.984 247.882 254.584 247.885C254.526 245.656 254.017 243.306 252.491 241.606C250.764 239.642 248.003 238.933 245.475 239.121C243.492 239.241 241.506 240.052 240.174 241.56Z" fill="white"/>
</g>
<defs>
<clipPath id="clip0_471_6243">
<rect width="299.211" height="300" fill="white"/>
</clipPath>
</defs>
</svg>
