<svg width="300" height="300" viewBox="0 0 300 300" fill="none" xmlns="http://www.w3.org/2000/svg">
<g clip-path="url(#clip0_2021_16686)">
<g filter="url(#filter0_d_2021_16686)">
<rect width="300" height="300" rx="110" fill="#003366"/>
</g>
<path d="M149.999 57.0879C167.248 57.0879 183.791 63.9407 195.988 76.1377C208.185 88.3346 215.037 104.877 215.037 122.126C215.037 170.848 150.149 242.745 149.999 242.911C149.896 242.797 84.9609 170.866 84.9609 122.126C84.961 104.877 91.813 88.3346 104.01 76.1377C116.207 63.9407 132.75 57.0879 149.999 57.0879ZM106.77 107.862L125.975 117.496L125.296 123.302C125.296 136.949 136.35 148.003 149.997 148.003C163.645 148.003 174.699 136.949 174.699 123.302L174.02 117.496L187.05 110.95V138.74H193.225V107.862L149.997 86.249L106.77 107.862Z" fill="white"/>
</g>
<defs>
<filter id="filter0_d_2021_16686" x="-4" y="0" width="308" height="308" filterUnits="userSpaceOnUse" color-interpolation-filters="sRGB">
<feFlood flood-opacity="0" result="BackgroundImageFix"/>
<feColorMatrix in="SourceAlpha" type="matrix" values="0 0 0 0 0 0 0 0 0 0 0 0 0 0 0 0 0 0 127 0" result="hardAlpha"/>
<feOffset dy="4"/>
<feGaussianBlur stdDeviation="2"/>
<feComposite in2="hardAlpha" operator="out"/>
<feColorMatrix type="matrix" values="0 0 0 0 0 0 0 0 0 0 0 0 0 0 0 0 0 0 0.25 0"/>
<feBlend mode="normal" in2="BackgroundImageFix" result="effect1_dropShadow_2021_16686"/>
<feBlend mode="normal" in="SourceGraphic" in2="effect1_dropShadow_2021_16686" result="shape"/>
</filter>
<clipPath id="clip0_2021_16686">
<rect width="300" height="300" fill="white"/>
</clipPath>
</defs>
</svg>
