<svg width="400" height="84" viewBox="0 0 400 84" fill="none" xmlns="http://www.w3.org/2000/svg">
<g clip-path="url(#clip0_2021_16627)">
<path d="M212.091 29.3215V40.1773L236.698 40.1981L235.202 47.2427H212.091V62.7811H200.848V22.251H240.512L239.01 29.3215H212.091Z" fill="#4F5569"/>
<path d="M317.315 22.251L298.234 62.7819H306.359L310.106 54.588H331.744L335.626 62.7819H348.514C348.514 62.7819 331.727 29.3119 330.333 26.4504C328.844 23.4064 327.766 22.251 324.896 22.251H317.315ZM320.741 31.3482L328.396 47.5192H313.341L320.741 31.3482Z" fill="#4F5569"/>
<path d="M164.093 22.251L145.008 62.7819H153.138L156.884 54.588H178.522L182.4 62.7819H195.292C195.292 62.7819 178.5 29.3119 177.106 26.4504C175.621 23.4064 174.545 22.251 171.67 22.251H164.093ZM167.519 31.3482L175.174 47.5192H160.12L167.519 31.3482Z" fill="#4F5569"/>
<path d="M121.428 64.0749C135.92 64.0749 142.619 58.7673 142.619 51.0523C142.619 44.3044 136.548 40.8735 123.22 37.2338C115.286 35.067 110.34 34.6072 110.34 31.9336C110.34 29.3643 114.976 27.9938 122.092 28.346C131.024 28.7885 136.742 32.5376 136.742 32.5376L140.256 26.9248C140.256 26.9248 132.241 20.958 119.437 20.958C105.496 20.958 98.1785 25.2078 98.1785 33.0092C98.1785 40.7281 106.507 43.3951 118.666 46.8759C126.147 49.0171 130.457 49.4157 130.457 52.276C130.457 54.4723 128.202 57.2466 118.262 56.7507C108.696 56.2739 100.399 50.7549 100.399 50.7549L96.1602 55.9118C96.1602 55.9118 105.269 64.0749 121.428 64.0749Z" fill="#4F5569"/>
<path d="M391.697 22.251V46.4276C391.697 46.4276 367.957 27.4804 366.01 25.9267C362.509 23.1346 360.897 22.251 356.973 22.251H354.074V62.782H362.383V38.951C362.383 38.951 385.934 57.7354 387.882 59.2891C391.382 62.0816 393.178 62.782 397.101 62.782H400V22.251H391.697Z" fill="#4F5569"/>
<path d="M247.488 22.251V62.7819H258.731V49.0649H258.861H270.268H271.054C271.054 49.0649 275.631 55.109 277.45 57.4929C279.1 59.6554 281.849 62.7819 286.369 62.7819H293.968L282.036 47.7966C287.298 46.2637 291.537 42.9118 291.537 35.6602V35.6557C291.532 23.1803 279.009 22.251 270.268 22.251H258.861L247.488 22.251ZM258.731 29.2377L258.861 29.3204H270.729C276.695 29.3204 279.374 31.4046 279.374 35.6557V35.6602C279.374 39.9113 276.695 41.9955 270.729 41.9955H258.861L258.731 42.0782V29.2377Z" fill="#4F5569"/>
<path d="M0 59.9785C6.74012 74.1409 21.1827 83.9301 37.9122 83.9301C54.6396 83.9301 69.0826 74.1409 75.8232 59.9785H74.9117C66.5931 71.3944 53.1185 78.8154 37.9122 78.8154C22.7046 78.8154 9.23048 71.3944 0.911502 59.9785H0Z" fill="url(#paint0_radial_2021_16627)"/>
<path d="M27.7702 10.1074C27.6213 10.1074 19.4355 10.1356 11.1565 16.3238C6.18497 20.043 4.14039 23.8582 3.43129 27.3477C-0.0777261 44.6149 34.0592 51.4799 47.1395 55.7397C54.3012 58.0724 55.2767 61.1964 55.2177 63.6697C55.0787 69.4502 46.9226 74.643 46.887 74.6434C53.5346 74.5392 62.536 70.5832 67.9552 64.4897C69.9839 62.2112 71.824 59.0879 72.2226 56.8529C74.1971 46.5343 64.5886 41.2525 53.2547 37.2966C44.4064 34.2101 37.1028 32.0766 30.8959 30.1668C21.0367 27.1337 19.3667 24.232 19.4427 21.0938C19.5304 17.4367 23.3897 12.8227 27.7728 10.1074H27.7702Z" fill="url(#paint1_linear_2021_16627)"/>
<mask id="mask0_2021_16627" style="mask-type:luminance" maskUnits="userSpaceOnUse" x="18" y="10" width="55" height="47">
<path d="M18.5625 10.1072H72.4843V56.8525H18.5625V10.1072Z" fill="white"/>
</mask>
<g mask="url(#mask0_2021_16627)">
<g opacity="0.699997">
<path d="M27.7753 10.1064C21.3965 14.0397 19.2462 17.824 18.6838 20.6539C17.9178 24.4955 20.6677 27.7401 30.1161 30.6951C36.3099 32.6322 43.6214 34.733 52.4736 37.8217C59.8951 40.4127 66.283 43.1521 69.6917 47.6733C72.8589 51.874 72.2252 56.8519 72.2252 56.8519C74.1996 46.5333 64.5911 41.2515 53.2573 37.2957C44.409 34.2091 37.1053 32.0756 30.8985 30.1658C21.0393 27.1323 19.369 24.231 19.4446 21.0928C19.5327 17.4357 23.3922 12.8217 27.7753 10.1064Z" fill="url(#paint2_linear_2021_16627)"/>
</g>
</g>
<mask id="mask1_2021_16627" style="mask-type:luminance" maskUnits="userSpaceOnUse" x="3" y="27" width="55" height="48">
<path d="M3.17969 27.8479H57.0177V74.6436H3.17969V27.8479Z" fill="white"/>
</mask>
<g mask="url(#mask1_2021_16627)">
<g opacity="0.699997">
<path d="M46.9162 74.6262C46.9071 74.6314 46.8945 74.6388 46.8867 74.6436C46.8876 74.6436 46.8984 74.6375 46.9162 74.6262Z" fill="url(#paint3_linear_2021_16627)"/>
<path d="M47.8725 54.5845C44.007 53.4677 39.2626 52.0595 33.6054 50.3794C29.2497 49.0876 23.7041 47.1158 18.5467 44.8334C4.73128 38.7247 2.98481 31.3198 3.33957 27.8477C0.58395 44.7483 34.1868 51.5215 47.1399 55.74C54.3017 58.0727 55.2778 61.1961 55.2184 63.6695C55.0837 69.2619 47.4465 74.3038 46.9176 74.626C48.0136 74.0003 55.9557 69.331 56.8563 64.4376C57.7061 59.7757 55.2731 56.7066 47.8725 54.5845Z" fill="url(#paint4_linear_2021_16627)"/>
</g>
</g>
<path d="M37.9122 0C21.1827 0 6.74012 9.78895 0 23.9509H0.911502C9.23048 12.5355 22.7046 5.11535 37.9122 5.11535C53.1185 5.11535 66.5931 12.5355 74.9117 23.9509H75.8232C69.0826 9.78895 54.6396 0 37.9122 0Z" fill="url(#paint5_linear_2021_16627)"/>
</g>
<defs>
<radialGradient id="paint0_radial_2021_16627" cx="0" cy="0" r="1" gradientUnits="userSpaceOnUse" gradientTransform="translate(37.9118 71.9543) scale(42.3857 42.3857)">
<stop stop-color="#84CFEC"/>
<stop offset="0.724548" stop-color="#0056A5"/>
<stop offset="1" stop-color="#0056A5"/>
</radialGradient>
<linearGradient id="paint1_linear_2021_16627" x1="15.3957" y1="29.9352" x2="72.8353" y2="62.5124" gradientUnits="userSpaceOnUse">
<stop stop-color="#5CB9E9"/>
<stop offset="0.902144" stop-color="#0061A7"/>
<stop offset="1" stop-color="#0061A7"/>
</linearGradient>
<linearGradient id="paint2_linear_2021_16627" x1="65.0216" y1="42.0473" x2="31.1593" y2="22.7326" gradientUnits="userSpaceOnUse">
<stop stop-color="#84CFEC"/>
<stop offset="1" stop-color="#0056A5"/>
</linearGradient>
<linearGradient id="paint3_linear_2021_16627" x1="3.18261" y1="51.2451" x2="57.0154" y2="51.2451" gradientUnits="userSpaceOnUse">
<stop stop-color="#84CFEC"/>
<stop offset="1" stop-color="#0056A5"/>
</linearGradient>
<linearGradient id="paint4_linear_2021_16627" x1="3.17958" y1="51.2454" x2="57.0178" y2="51.2454" gradientUnits="userSpaceOnUse">
<stop stop-color="#84CFEC"/>
<stop offset="1" stop-color="#0056A5"/>
</linearGradient>
<linearGradient id="paint5_linear_2021_16627" x1="34.8516" y1="-0.684691" x2="45.1998" y2="82.6255" gradientUnits="userSpaceOnUse">
<stop stop-color="#84CFEC"/>
<stop offset="0.289866" stop-color="#0056A5"/>
<stop offset="0.938766" stop-color="#0056A5"/>
<stop offset="1" stop-color="#0056A5"/>
</linearGradient>
<clipPath id="clip0_2021_16627">
<rect width="400" height="83.9307" fill="white"/>
</clipPath>
</defs>
</svg>
