<svg width="400" height="73" viewBox="0 0 400 73" fill="none" xmlns="http://www.w3.org/2000/svg">
<g clip-path="url(#clip0_2021_17001)">
<path fill-rule="evenodd" clip-rule="evenodd" d="M10.7699 33.1743V27.1316C10.5536 27.3585 10.3477 27.5849 10.155 27.8249V32.0066C9.9417 31.565 9.73418 31.1235 9.54007 30.6849C8.17969 27.3122 7.36625 23.6432 7.2403 19.8171L7.20018 18.7088V12.5235C5.60734 13.9727 4.1669 15.6264 2.77988 17.7692C0.912746 20.4916 0 22.6386 0 22.6386C0.447512 27.6412 1.80036 32.3802 3.91507 36.6744C7.4863 44.0746 13.3024 50.1503 20.4626 54.0745C25.5171 56.8769 31.2386 58.6084 37.3259 59.006V50.7016C25.8683 49.6791 16.0156 42.8863 10.7699 33.1743ZM44.9321 58.7469C45.722 58.646 46.5014 58.5217 47.2868 58.3742V50.1165C46.5016 50.2766 45.722 50.4158 44.9321 50.5178V58.7469ZM48.496 58.1303C49.2133 57.9699 49.9409 57.7934 50.6493 57.5997V49.2255C49.9409 49.4449 49.2295 49.6541 48.496 49.842V58.1303ZM51.987 71.4231C52.6231 71.2665 53.2483 71.1004 53.8752 70.9213V61.9892C53.2483 62.1993 52.6291 62.4051 51.987 62.5993V71.4231ZM41.4262 72.8508C41.521 72.8508 41.6203 72.8508 41.727 72.8508C42.4813 72.8138 43.234 72.7675 43.9809 72.7155V64.1968C43.1466 64.2799 42.2798 64.343 41.4261 64.3776L41.4262 72.8508ZM37.8594 72.8138C38.7738 72.8612 39.6983 72.8818 40.62 72.8612V64.3995C39.6983 64.4117 38.7738 64.3849 37.8594 64.343V72.8138ZM37.8594 59.0235C38.7738 59.0607 39.6983 59.0801 40.62 59.0607V50.826C39.6983 50.8379 38.7738 50.807 37.8594 50.7389V59.0235ZM51.987 57.1998C52.6292 56.9873 53.2483 56.7743 53.8752 56.5369V47.9987C53.2543 48.2702 52.6291 48.5291 51.987 48.7574V57.1998ZM41.4262 50.8129V59.0492C42.2886 59.006 43.1466 58.9496 43.9809 58.8664V50.6381C43.1748 50.7271 42.3523 50.7952 41.521 50.8129C41.4928 50.8129 41.4662 50.8129 41.4262 50.8129ZM44.9321 72.6256C45.722 72.5528 46.5014 72.4539 47.2868 72.3391V63.7464C46.5016 63.886 45.722 63.9953 44.9321 64.0972V72.6256ZM48.496 72.1456C49.2133 72.0253 49.9409 71.8887 50.6493 71.7345V62.9816C49.9409 63.1758 49.2132 63.3525 48.496 63.512V72.1456ZM66.3848 48.9945C66.6384 48.7751 66.8843 48.5441 67.1301 48.3293V37.525C66.8843 37.8557 66.6384 38.1551 66.3846 38.4782L66.3848 48.9945ZM69.8122 63.0647C70.0259 62.9167 70.2254 62.7698 70.4257 62.6332L70.4259 51.5035C70.2254 51.7109 70.0259 51.9047 69.8122 52.0962V63.0647ZM73.687 55.2179V59.8911C78.2204 55.3843 80.44 50.2303 80.44 50.2303C78.6945 30.5533 62.797 15.1642 43.2606 13.872V22.1762C54.7614 23.2549 64.6378 30.1426 69.8122 39.9613V45.5553C70.0259 45.3302 70.2254 45.0902 70.4257 44.853L70.4259 41.1692C72.3656 45.2188 73.5201 49.7135 73.6786 54.4685C73.6786 54.577 73.6786 54.6997 73.687 54.8333V54.8417C73.687 54.9593 73.687 55.0851 73.687 55.2179ZM66.3848 65.3645C66.6384 65.2104 66.8843 65.0502 67.1301 64.8936V54.5C66.8843 54.6906 66.6384 54.8908 66.3846 55.0851L66.3848 65.3645ZM62.8255 51.8146C63.1175 51.6143 63.4105 51.4027 63.6964 51.1833V41.4003C63.4105 41.68 63.1235 41.9426 62.8255 42.2076V51.8146ZM59.2572 69.0258C59.6365 68.8692 60.0232 68.7028 60.4025 68.5415V59.0492C60.0292 59.2519 59.6438 59.4533 59.2572 59.6567V69.0258ZM55.622 55.8408C56.1227 55.624 56.6181 55.4153 57.1096 55.1737L57.1098 46.3626C56.6181 46.6489 56.1227 46.9139 55.622 47.1736V55.8408ZM62.8255 67.3858C63.1175 67.2285 63.4045 67.0775 63.6964 66.9233V57.0363C63.4045 57.2306 63.1173 57.4219 62.8255 57.6131V67.3858ZM59.2572 54.0551C59.6438 53.8462 60.0292 53.618 60.4025 53.3923V44.1963C60.0292 44.4797 59.6438 44.7416 59.2572 45.0072V54.0551ZM55.622 70.3793C56.1227 70.222 56.6077 70.0533 57.1096 69.8677L57.1098 60.6789C56.6181 60.907 56.1227 61.1067 55.622 61.3142V70.3793ZM24.9572 2.43384C24.4637 2.59523 23.9702 2.75821 23.4768 2.93611V12.1027C23.9702 11.9 24.4637 11.6818 24.957 11.4792L24.9572 2.43384ZM35.6515 0.221312C34.8454 0.301309 34.0407 0.390206 33.239 0.499823V9.1064C34.0407 8.95533 34.8454 8.84261 35.6515 8.74179V0.221312ZM28.5847 1.40089C27.9577 1.55075 27.3294 1.72091 26.71 1.89571V10.8271C27.3295 10.612 27.9577 10.4164 28.5847 10.2177V1.40089ZM32.1589 14.6769C31.412 14.8398 30.671 15.0236 29.9435 15.2293V23.5928C30.671 23.3646 31.412 23.1542 32.1589 22.9705V14.6769ZM32.1589 0.680644C31.412 0.803857 30.671 0.938541 29.9435 1.0986V9.83846C30.671 9.65164 31.412 9.46494 32.1589 9.30785V0.680644ZM35.6515 14.1061C34.8379 14.195 34.0407 14.3166 33.239 14.4677V22.7245C34.0407 22.5644 34.8379 22.428 35.6515 22.3143V14.1061ZM42.7199 0.0613108C41.807 0.0137859 40.8943 -0.00978028 39.9666 0.00381563V8.45739C40.8943 8.44847 41.807 8.47509 42.7199 8.52845V0.0613108ZM80.428 33.6723V19.6423C80.428 19.6423 80.1809 19.3357 79.929 19.0377V19.0287C71.2452 8.38618 57.8283 0.961142 43.2606 0.0778333V8.55808C59.2898 9.65164 73.545 20.0038 80.428 33.6723ZM42.7199 13.8365C41.8129 13.8025 40.9017 13.7771 39.9666 13.8027V22.0251C40.9017 22.0251 41.8129 22.0546 42.7199 22.1376V13.8365ZM39.1663 22.0416V13.8127C38.2995 13.8365 37.446 13.8987 36.5925 13.9894V22.2028C37.366 22.1376 38.1335 22.0711 38.9071 22.0476C38.9871 22.0415 39.0731 22.0416 39.1663 22.0416ZM39.1663 8.48992V0.013781C39.0137 0.013781 38.8463 0.0138001 38.707 0.0227831C37.9928 0.0405064 37.3067 0.0939812 36.5925 0.135254V8.6441C37.3943 8.56993 38.2077 8.51832 39.0137 8.48992C39.0523 8.48992 39.1072 8.48992 39.1663 8.48992ZM10.7699 9.69017C10.5536 9.82953 10.3477 9.98542 10.155 10.1289V21.1909C10.3477 20.9984 10.561 20.7981 10.7699 20.6025V9.69017ZM28.5847 15.6134C27.9577 15.8161 27.3294 16.0296 26.71 16.2548V24.7901C27.3235 24.5174 27.9577 24.2703 28.5847 24.051V15.6134ZM17.7569 20.9432C17.4693 21.1449 17.1611 21.348 16.8884 21.5627V31.3043C17.1611 31.0345 17.4693 30.7708 17.7568 30.4951L17.7569 20.9432ZM14.187 23.7322C13.9484 23.9513 13.7025 24.1649 13.4476 24.3977V35.1245C13.6936 34.8102 13.9484 34.511 14.187 34.2027V23.7322ZM0.0118964 39.1936L0 53.2266C0 53.2266 0.246062 53.5318 0.499286 53.8341C9.22148 64.4972 22.6914 71.9658 37.3259 72.7841V64.3078C21.2303 63.2724 6.90684 52.8994 0.0118964 39.1936ZM14.187 7.39929C13.9484 7.54933 13.7025 7.7045 13.4476 7.86158V18.2462C13.7025 18.0477 13.9484 17.8434 14.187 17.6507V7.39929ZM24.9572 16.9529C24.4637 17.1675 23.9702 17.3898 23.4768 17.621V26.4053C23.9642 26.1226 24.4518 25.8618 24.957 25.6189L24.9572 16.9529ZM21.3222 3.76297C20.9442 3.92473 20.5574 4.09365 20.1825 4.25194V13.7327C20.5574 13.5329 20.9442 13.3208 21.3222 13.1251V3.76297ZM17.7569 5.39885C17.4693 5.55763 17.1893 5.6982 16.8884 5.8611V15.7261C17.1893 15.5256 17.4693 15.339 17.7568 15.1523L17.7569 5.39885ZM21.3222 18.7236C20.9442 18.934 20.5574 19.1503 20.1825 19.3744V28.5452C20.5574 28.2754 20.9368 28.0057 21.3222 27.7449V18.7236Z" fill="#00619C"/>
<path fill-rule="evenodd" clip-rule="evenodd" d="M110.404 50.5857C113.099 51.9454 119.661 54.6485 127.163 55.0794C132.132 55.3641 139.453 53.8904 139.786 48.8029C140.01 45.3821 136.744 43.3597 130.92 41.0279L121.98 37.6767C114.111 34.253 109.617 29.2547 109.976 22.4155C110.475 12.9241 121.339 7.8651 135.935 8.57809C144.548 8.9989 150.436 10.9521 152.623 11.5261L151.34 21.2261C147.971 20.1341 142.728 18.2586 136.22 17.9217C129.161 17.5513 124.937 19.9918 124.691 22.7474C124.406 25.9339 127.657 27.6476 131.87 29.5472L141.356 33.183C150.219 37.1497 154.977 40.8495 154.621 48.945C154.146 59.7402 143.068 65.0979 127.543 64.3513C119.32 63.9526 113.066 62.7799 108.906 60.7849L110.404 50.5857Z" fill="#0062A2"/>
<path fill-rule="evenodd" clip-rule="evenodd" d="M199.249 42.0584L191.348 20.0088L182.778 42.0276L199.249 42.0584ZM202.489 51.0484L179.465 51.0348L174.439 63.8328L159.871 63.8157L184.041 9.20222L199.133 9.18848L222.342 63.8157L207.413 63.8328L202.489 51.0484Z" fill="#0062A2"/>
<path fill-rule="evenodd" clip-rule="evenodd" d="M252.653 32.542L274.762 32.5895L274.813 61.5924C271.52 63.0388 265.053 64.5878 256.743 64.5878C236.294 64.5878 223.879 52.7945 223.891 36.4895C223.903 20.2398 236.199 8.37975 256.648 8.38868C264.698 8.39171 269.694 9.6755 273.111 10.9567L272.344 21.4542C268.604 19.5514 262.819 17.7266 256.977 17.7327C245.01 17.7435 237.843 26.1594 237.87 36.5169C237.903 48.5689 245.369 55.2886 256.18 55.2886C258.773 55.2884 260.705 54.976 262.309 54.4977L262.321 41.5231H252.65L252.653 32.542Z" fill="#0062A2"/>
<path fill-rule="evenodd" clip-rule="evenodd" d="M287.055 9.18555L325.838 9.19162L325.867 18.4769L300.285 18.4929L300.288 31.0768L324.679 31.1023L324.653 40.404L300.315 40.3903L300.288 54.5284H326.762L326.78 63.8276H287.064L287.055 9.18555Z" fill="#0062A2"/>
<path fill-rule="evenodd" clip-rule="evenodd" d="M387.685 25.9807L373.839 63.8379L363.839 63.8355L350.672 26.2652L350.699 63.8378L338.328 63.8354L338.331 9.14844L356.913 9.18493L369.322 45.3061L382.054 9.18493L399.987 9.22105L400 63.8268H387.635L387.685 25.9807Z" fill="#0062A2"/>
</g>
<defs>
<clipPath id="clip0_2021_17001">
<rect width="400" height="72.8691" fill="white"/>
</clipPath>
</defs>
</svg>
