<svg width="300" height="300" viewBox="0 0 300 300" fill="none" xmlns="http://www.w3.org/2000/svg">
<g opacity="0.61">
<path d="M128.259 276.704L124.923 284.411H123.161L119.836 276.704H121.763L124.108 282.209L126.486 276.704H128.259Z" fill="white"/>
<path d="M134.105 281.846H129.624C129.789 282.584 130.416 283.035 131.319 283.035C131.947 283.035 132.398 282.848 132.806 282.462L133.719 283.453C133.169 284.081 132.343 284.411 131.275 284.411C129.227 284.411 127.895 283.123 127.895 281.361C127.895 279.589 129.249 278.312 131.055 278.312C132.794 278.312 134.138 279.479 134.138 281.384C134.138 281.516 134.117 281.703 134.105 281.846ZM129.602 280.844H132.52C132.399 280.095 131.837 279.611 131.067 279.611C130.284 279.611 129.723 280.084 129.602 280.844Z" fill="white"/>
<path d="M134.84 281.361C134.84 279.578 136.216 278.312 138.143 278.312C139.387 278.312 140.367 278.851 140.797 279.82L139.465 280.536C139.145 279.974 138.672 279.721 138.132 279.721C137.262 279.721 136.58 280.326 136.58 281.361C136.58 282.396 137.263 283.002 138.132 283.002C138.671 283.002 139.145 282.759 139.465 282.187L140.797 282.914C140.367 283.86 139.387 284.411 138.143 284.411C136.216 284.411 134.84 283.145 134.84 281.361Z" fill="white"/>
<path d="M145.697 284.036C145.345 284.289 144.827 284.411 144.298 284.411C142.9 284.411 142.086 283.695 142.086 282.285V279.852H141.172V278.531H142.086V277.089H143.803V278.531H145.279V279.852H143.803V282.264C143.803 282.77 144.078 283.046 144.541 283.046C144.794 283.046 145.047 282.969 145.234 282.825L145.697 284.036Z" fill="white"/>
<path d="M157.486 278.398V279.984C157.343 279.973 157.233 279.962 157.101 279.962C156.154 279.962 155.526 280.479 155.526 281.614V284.41H153.809V278.487H155.449V279.268C155.867 278.696 156.572 278.398 157.486 278.398Z" fill="white"/>
<path d="M157.98 283.518L158.586 282.175C159.236 282.648 160.204 282.978 161.129 282.978C162.186 282.978 162.615 282.626 162.615 282.153C162.615 280.71 158.134 281.702 158.134 278.838C158.134 277.528 159.191 276.438 161.382 276.438C162.351 276.438 163.342 276.669 164.057 277.121L163.506 278.475C162.791 278.068 162.053 277.87 161.37 277.87C160.314 277.87 159.906 278.266 159.906 278.751C159.906 280.171 164.387 279.191 164.387 282.021C164.387 283.309 163.319 284.41 161.117 284.41C159.896 284.411 158.663 284.047 157.98 283.518Z" fill="white"/>
<path d="M171.257 281.846H166.776C166.941 282.584 167.569 283.035 168.472 283.035C169.099 283.035 169.55 282.848 169.958 282.462L170.872 283.453C170.321 284.081 169.495 284.411 168.427 284.411C166.379 284.411 165.047 283.123 165.047 281.361C165.047 279.589 166.401 278.312 168.207 278.312C169.947 278.312 171.29 279.479 171.29 281.384C171.291 281.516 171.269 281.703 171.257 281.846ZM166.754 280.844H169.672C169.551 280.095 168.989 279.611 168.219 279.611C167.437 279.611 166.876 280.084 166.754 280.844Z" fill="white"/>
<path d="M178.203 281.846H173.721C173.886 282.584 174.514 283.035 175.417 283.035C176.045 283.035 176.496 282.848 176.903 282.462L177.817 283.453C177.266 284.081 176.441 284.411 175.373 284.411C173.325 284.411 171.992 283.123 171.992 281.361C171.992 279.589 173.346 278.312 175.152 278.312C176.892 278.312 178.235 279.479 178.235 281.384C178.236 281.516 178.214 281.703 178.203 281.846ZM173.699 280.844H176.617C176.496 280.095 175.934 279.611 175.164 279.611C174.382 279.611 173.82 280.084 173.699 280.844Z" fill="white"/>
<path d="M181.926 282.088L181.1 282.902V284.411H179.383V276.241H181.1V280.865L183.611 278.487H185.659L183.192 280.997L185.879 284.411H183.798L181.926 282.088Z" fill="white"/>
<path d="M153.962 285.216L152.246 283.5C151.985 283.805 151.675 284.066 151.326 284.27C151.271 284.312 151.214 284.352 151.156 284.39L152.972 286.206C153.246 286.48 153.689 286.48 153.962 286.206C154.236 285.933 154.236 285.49 153.962 285.216Z" fill="white"/>
<path d="M149.992 277.947C150.125 277.844 150.289 277.779 150.47 277.779C150.495 277.779 150.52 277.78 150.545 277.782C150.416 277.689 150.258 277.633 150.086 277.633C149.849 277.633 149.64 277.741 149.498 277.908C149.467 277.908 149.438 277.911 149.407 277.913C149.43 277.866 149.445 277.815 149.445 277.76C149.445 277.619 149.36 277.499 149.238 277.448C149.29 277.524 149.321 277.616 149.321 277.715C149.321 277.788 149.302 277.857 149.272 277.92C147.585 278.04 146.254 279.443 146.254 281.16C146.254 282.956 147.71 284.412 149.506 284.412C151.302 284.412 152.758 282.956 152.758 281.16C152.759 279.528 151.557 278.182 149.992 277.947ZM148.791 278.795C149.052 278.795 149.298 278.862 149.511 278.98C149.735 278.833 150.003 278.748 150.29 278.748C150.717 278.748 151.099 278.935 151.361 279.231C151.1 279.004 150.758 278.865 150.384 278.865C150.115 278.865 149.862 278.937 149.644 279.063C149.597 279.09 149.55 279.12 149.507 279.153C149.468 279.124 149.427 279.097 149.384 279.072C149.163 278.941 148.904 278.866 148.628 278.866C148.448 278.866 148.275 278.898 148.116 278.957C148.319 278.853 148.548 278.795 148.791 278.795ZM151.065 281.46C151.134 281.643 151.173 281.84 151.173 282.047C151.173 282.968 150.427 283.713 149.507 283.713C148.586 283.713 147.84 282.968 147.84 282.047C147.84 281.84 147.88 281.643 147.949 281.46C147.577 281.231 147.328 280.821 147.328 280.352C147.328 279.634 147.911 279.051 148.629 279.051C148.968 279.051 149.276 279.182 149.507 279.395C149.738 279.182 150.046 279.051 150.385 279.051C151.103 279.051 151.686 279.634 151.686 280.352C151.686 280.821 151.437 281.231 151.065 281.46Z" fill="white"/>
<path d="M150.999 280.237C150.999 280.535 150.757 280.777 150.459 280.777C150.16 280.777 149.918 280.535 149.918 280.237C149.918 279.939 150.16 279.696 150.459 279.696C150.519 279.696 150.577 279.706 150.631 279.724C150.613 279.762 150.604 279.804 150.604 279.847C150.604 280.011 150.736 280.143 150.9 280.143C150.93 280.143 150.96 280.138 150.988 280.13C150.996 280.165 150.999 280.2 150.999 280.237Z" fill="white"/>
<path d="M148.954 280.237C148.954 280.462 148.771 280.645 148.545 280.645C148.32 280.645 148.137 280.462 148.137 280.237C148.137 280.011 148.32 279.828 148.545 279.828C148.591 279.828 148.635 279.836 148.676 279.849C148.662 279.877 148.655 279.909 148.655 279.942C148.655 280.066 148.755 280.167 148.88 280.167C148.902 280.167 148.925 280.163 148.946 280.156C148.951 280.182 148.954 280.209 148.954 280.237Z" fill="white"/>
<path d="M146.116 280.698H145.746V281.068H146.116V280.698Z" fill="white"/>
<path d="M153.268 280.698H152.898V281.068H153.268V280.698Z" fill="white"/>
<path d="M153.123 280.849H153.039C153.039 278.901 151.454 277.315 149.505 277.315C147.556 277.315 145.971 278.901 145.971 280.849H145.887C145.887 279.883 146.263 278.974 146.946 278.291C147.63 277.608 148.538 277.231 149.505 277.231C150.471 277.231 151.38 277.608 152.063 278.291C152.747 278.974 153.123 279.883 153.123 280.849Z" fill="white"/>
<path d="M149.69 277.089H149.32V277.458H149.69V277.089Z" fill="white"/>
<path d="M152.043 277.231H146.973V277.315H152.043V277.231Z" fill="white"/>
<path d="M147.106 277.29C147.106 277.355 147.053 277.408 146.989 277.408C146.924 277.408 146.871 277.355 146.871 277.29C146.871 277.226 146.924 277.173 146.989 277.173C147.053 277.173 147.106 277.226 147.106 277.29Z" fill="white"/>
<path d="M152.157 277.29C152.157 277.355 152.104 277.408 152.039 277.408C151.975 277.408 151.922 277.355 151.922 277.29C151.922 277.226 151.975 277.173 152.039 277.173C152.105 277.173 152.157 277.226 152.157 277.29Z" fill="white"/>
<path d="M188.614 284.046C188.614 284.981 187.195 284.981 187.195 284.046C187.196 283.111 188.614 283.111 188.614 284.046Z" fill="white"/>
<path d="M97.0432 279.931L98.1064 283.583L99.2194 279.931H100.548L98.8546 284.815H97.4566L96.9544 283.377L96.5212 281.752L96.088 283.377L95.5858 284.815H94.1878L92.4844 279.931H93.823L94.936 283.583L95.9896 279.931H97.0432Z" fill="white"/>
<path d="M106.028 279.931L107.091 283.583L108.204 279.931H109.533L107.839 284.815H106.441L105.939 283.377L105.506 281.752L105.072 283.377L104.57 284.815H103.172L101.469 279.931H102.807L103.92 283.583L104.974 279.931H106.028Z" fill="white"/>
<path d="M115.012 279.931L116.075 283.583L117.188 279.931H118.517L116.823 284.815H115.425L114.923 283.377L114.49 281.752L114.057 283.377L113.555 284.815H112.157L110.453 279.931H111.792L112.905 283.583L113.958 279.931H115.012Z" fill="white"/>
<path d="M120.543 284.113C120.543 285.049 119.125 285.049 119.125 284.113C119.126 283.178 120.543 283.178 120.543 284.113Z" fill="white"/>
<path d="M193.626 284.046C193.065 284.598 192.475 284.814 191.756 284.814C190.348 284.814 189.176 283.968 189.176 282.245C189.176 280.523 190.348 279.675 191.756 279.675C192.445 279.675 192.977 279.872 193.508 280.394L192.75 281.192C192.464 280.935 192.11 280.808 191.776 280.808C190.969 280.808 190.378 281.399 190.378 282.245C190.378 283.17 191.008 283.662 191.756 283.662C192.14 283.662 192.524 283.554 192.82 283.259L193.626 284.046Z" fill="white"/>
<path d="M199.082 282.284C199.082 283.682 198.127 284.814 196.552 284.814C194.976 284.814 194.031 283.682 194.031 282.284C194.031 280.896 194.997 279.754 196.542 279.754C198.088 279.754 199.082 280.896 199.082 282.284ZM195.232 282.284C195.232 283.023 195.676 283.712 196.552 283.712C197.428 283.712 197.871 283.023 197.871 282.284C197.871 281.555 197.359 280.846 196.552 280.846C195.685 280.847 195.232 281.556 195.232 282.284Z" fill="white"/>
<path d="M203.144 284.815V282.216C203.144 281.575 202.808 280.995 202.149 280.995C201.5 280.995 201.116 281.575 201.116 282.216V284.815H199.914V279.951H201.027L201.116 280.542C201.371 280.05 201.933 279.872 202.396 279.872C202.977 279.872 203.558 280.108 203.833 280.778C204.267 280.089 204.828 279.891 205.458 279.891C206.836 279.891 207.516 280.738 207.516 282.195V284.814H206.314V282.195C206.314 281.556 206.049 281.013 205.399 281.013C204.749 281.013 204.345 281.574 204.345 282.215V284.814H203.144V284.815Z" fill="white"/>
</g>
<g opacity="0.61">
<path d="M207.593 258.78C207.589 258.045 207.017 257.507 206.279 257.496C205.725 257.487 205.78 257.568 205.779 256.976C205.777 256.317 205.774 255.659 205.78 255C205.782 254.773 205.713 254.586 205.563 254.415C204.158 252.814 202.757 251.21 201.352 249.608C201.28 249.526 201.187 249.462 201.104 249.389C197.375 249.389 193.647 249.389 189.919 249.389C189.443 249.564 189.235 249.909 189.236 250.414C189.242 252.663 189.239 254.912 189.239 257.16C189.239 257.493 189.237 257.513 188.909 257.49C188.01 257.429 187.399 258.082 187.41 258.986C187.437 261.071 187.418 263.157 187.419 265.243C187.419 266.191 187.939 266.709 188.889 266.712C189.238 266.714 189.238 266.714 189.238 267.072C189.238 268.404 189.237 269.735 189.239 271.067C189.239 271.782 189.586 272.129 190.299 272.129C195.107 272.13 199.916 272.13 204.723 272.129C205.424 272.129 205.776 271.779 205.778 271.082C205.779 269.729 205.777 268.375 205.778 267.021C205.778 266.714 205.779 266.715 206.09 266.712C206.253 266.711 206.415 266.717 206.576 266.678C207.173 266.53 207.59 266.051 207.592 265.436C207.602 263.218 207.603 260.999 207.593 258.78ZM190.522 250.298C193.724 250.298 196.926 250.298 200.128 250.298C200.457 250.298 200.46 250.302 200.46 250.634C200.461 251.98 200.46 253.326 200.461 254.672C200.461 255.159 200.61 255.308 201.097 255.308C202.243 255.308 203.39 255.308 204.536 255.308C204.81 255.308 204.823 255.321 204.824 255.598C204.826 256.13 204.825 256.663 204.824 257.195C204.824 257.481 204.81 257.494 204.522 257.495C202.185 257.495 199.848 257.495 197.511 257.495C195.182 257.495 192.852 257.495 190.523 257.495C190.193 257.495 190.192 257.494 190.192 257.158C190.191 254.984 190.191 252.81 190.192 250.635C190.192 250.3 190.194 250.298 190.522 250.298ZM204.493 270.948C202.163 270.948 199.833 270.948 197.503 270.948C195.18 270.948 192.858 270.948 190.535 270.948C190.192 270.948 190.191 270.947 190.191 270.6C190.19 269.402 190.19 268.204 190.191 267.006C190.191 266.727 190.205 266.714 190.478 266.714C195.16 266.713 199.842 266.713 204.524 266.714C204.811 266.714 204.823 266.726 204.823 267.015C204.825 268.214 204.824 269.412 204.823 270.61C204.825 270.945 204.822 270.948 204.493 270.948Z" fill="white"/>
<path d="M197.507 250.232H196.453V250.865H197.507V250.232Z" fill="white"/>
<path d="M196.453 250.865H195.398V251.498H196.453V250.865Z" fill="white"/>
<path d="M197.507 251.497H196.453V252.129H197.507V251.497Z" fill="white"/>
<path d="M196.453 252.13H195.398V252.762H196.453V252.13Z" fill="white"/>
<path d="M197.507 252.762H196.453V253.394H197.507V252.762Z" fill="white"/>
<path d="M196.453 253.395H195.398V254.027H196.453V253.395Z" fill="white"/>
<path d="M197.507 254.027H196.453V254.66H197.507V254.027Z" fill="white"/>
<path d="M196.453 254.66H195.398V255.293H196.453V254.66Z" fill="white"/>
<path d="M197.507 255.292H196.453V255.924H197.507V255.292Z" fill="white"/>
<path d="M196.453 255.925H195.398V256.557H196.453V255.925Z" fill="white"/>
<path d="M197.507 256.557H196.453V257.189H197.507V256.557Z" fill="white"/>
<path d="M196.453 257.189H195.398V257.822H196.453V257.189Z" fill="white"/>
<path d="M112.581 258.78C112.577 258.045 112.005 257.507 111.267 257.496C110.713 257.487 110.768 257.568 110.767 256.976C110.765 256.317 110.763 255.659 110.769 255C110.771 254.773 110.702 254.586 110.552 254.415C109.146 252.814 107.745 251.21 106.34 249.608C106.268 249.526 106.175 249.462 106.092 249.389C102.363 249.389 98.6356 249.389 94.9072 249.389C94.4308 249.564 94.2232 249.909 94.2244 250.414C94.2304 252.663 94.2268 254.912 94.2268 257.16C94.2268 257.493 94.225 257.513 93.8968 257.49C92.9986 257.429 92.3872 258.082 92.3986 258.986C92.425 261.071 92.4064 263.157 92.407 265.243C92.4076 266.191 92.9272 266.709 93.877 266.712C94.2262 266.714 94.2262 266.714 94.2262 267.072C94.2262 268.404 94.2256 269.735 94.2268 271.067C94.2274 271.782 94.5748 272.129 95.2876 272.129C100.095 272.13 104.904 272.13 109.712 272.129C110.412 272.129 110.765 271.779 110.766 271.082C110.767 269.729 110.766 268.375 110.766 267.021C110.766 266.714 110.768 266.715 111.078 266.712C111.241 266.711 111.403 266.717 111.564 266.678C112.161 266.53 112.578 266.051 112.58 265.436C112.59 263.218 112.592 260.999 112.581 258.78ZM95.5108 250.298C98.713 250.298 101.915 250.298 105.117 250.298C105.446 250.298 105.449 250.302 105.449 250.634C105.45 251.98 105.449 253.326 105.45 254.672C105.45 255.159 105.599 255.308 106.086 255.308C107.232 255.308 108.378 255.308 109.524 255.308C109.799 255.308 109.812 255.321 109.813 255.598C109.815 256.13 109.814 256.663 109.813 257.195C109.812 257.481 109.799 257.494 109.511 257.495C107.174 257.495 104.837 257.495 102.5 257.495C100.171 257.495 97.8412 257.495 95.512 257.495C95.182 257.495 95.1808 257.494 95.1808 257.158C95.1802 254.984 95.1802 252.81 95.1808 250.635C95.1802 250.3 95.1826 250.298 95.5108 250.298ZM109.482 270.948C107.152 270.948 104.822 270.948 102.492 270.948C100.169 270.948 97.8466 270.948 95.524 270.948C95.1808 270.948 95.1796 270.947 95.1796 270.6C95.179 269.402 95.179 268.204 95.1802 267.006C95.1802 266.727 95.194 266.714 95.467 266.714C100.149 266.713 104.831 266.713 109.513 266.714C109.8 266.714 109.812 266.726 109.812 267.015C109.814 268.214 109.813 269.412 109.812 270.61C109.813 270.945 109.81 270.948 109.482 270.948Z" fill="white"/>
<path d="M95.8672 264.402V259.664H97.5346C97.7596 259.664 97.9702 259.701 98.1664 259.773C98.3626 259.846 98.5336 259.948 98.6794 260.081C98.8246 260.214 98.9398 260.371 99.0232 260.554C99.1072 260.737 99.1492 260.94 99.1492 261.16C99.1492 261.385 99.1072 261.589 99.0232 261.772C98.9392 261.955 98.8246 262.113 98.6794 262.245C98.5336 262.378 98.3626 262.48 98.1664 262.553C97.9702 262.626 97.7596 262.662 97.5346 262.662H96.7606V264.403H95.8672V264.402ZM97.5478 261.814C97.7818 261.814 97.9582 261.748 98.077 261.616C98.1964 261.484 98.2558 261.331 98.2558 261.159C98.2558 261.075 98.2414 260.994 98.2126 260.914C98.1838 260.835 98.14 260.766 98.08 260.706C98.0206 260.647 97.9462 260.599 97.858 260.564C97.7698 260.529 97.666 260.511 97.5472 260.511H96.76V261.814H97.5478Z" fill="white"/>
<path d="M99.7852 259.663H100.824L102.73 262.839H102.783L102.73 261.926V259.663H103.617V264.401H102.677L100.665 261.046H100.613L100.665 261.959V264.401H99.7852V259.663Z" fill="white"/>
<path d="M106.751 261.801H109.074C109.088 261.854 109.098 261.918 109.107 261.993C109.116 262.068 109.121 262.143 109.121 262.218C109.121 262.522 109.074 262.809 108.982 263.078C108.89 263.348 108.744 263.588 108.545 263.8C108.333 264.025 108.08 264.199 107.784 264.322C107.489 264.446 107.151 264.508 106.772 264.508C106.427 264.508 106.103 264.446 105.798 264.322C105.494 264.199 105.23 264.027 105.005 263.806C104.78 263.586 104.601 263.324 104.468 263.022C104.336 262.72 104.27 262.39 104.27 262.033C104.27 261.676 104.336 261.346 104.468 261.043C104.601 260.741 104.779 260.48 105.005 260.259C105.23 260.039 105.494 259.867 105.798 259.743C106.103 259.619 106.427 259.558 106.772 259.558C107.156 259.558 107.498 259.624 107.801 259.756C108.103 259.889 108.362 260.072 108.578 260.305L107.963 260.908C107.808 260.744 107.637 260.62 107.447 260.534C107.257 260.448 107.03 260.405 106.765 260.405C106.548 260.405 106.343 260.444 106.149 260.521C105.955 260.598 105.785 260.707 105.639 260.848C105.494 260.989 105.378 261.16 105.292 261.361C105.206 261.562 105.163 261.786 105.163 262.033C105.163 262.28 105.206 262.504 105.292 262.705C105.378 262.906 105.495 263.077 105.642 263.218C105.79 263.359 105.961 263.468 106.155 263.545C106.349 263.623 106.557 263.661 106.778 263.661C107.029 263.661 107.241 263.624 107.416 263.552C107.59 263.479 107.739 263.385 107.862 263.27C107.951 263.191 108.027 263.09 108.091 262.969C108.155 262.848 108.204 262.712 108.24 262.562H106.751L106.751 261.801Z" fill="white"/>
<path d="M134.409 258.78C134.405 258.045 133.834 257.507 133.096 257.496C132.541 257.487 132.596 257.568 132.595 256.976C132.593 256.317 132.591 255.659 132.597 255C132.599 254.773 132.53 254.586 132.38 254.415C130.975 252.814 129.573 251.21 128.168 249.608C128.096 249.526 128.003 249.462 127.92 249.389C124.192 249.389 120.464 249.389 116.735 249.389C116.259 249.564 116.051 249.909 116.053 250.414C116.059 252.663 116.055 254.912 116.055 257.16C116.055 257.493 116.053 257.513 115.725 257.49C114.827 257.429 114.215 258.082 114.227 258.986C114.253 261.071 114.235 263.157 114.235 265.243C114.236 266.191 114.755 266.709 115.705 266.712C116.054 266.714 116.054 266.714 116.054 267.072C116.054 268.404 116.054 269.735 116.055 271.067C116.056 271.782 116.403 272.129 117.116 272.129C121.924 272.13 126.732 272.13 131.54 272.129C132.241 272.129 132.593 271.779 132.594 271.082C132.595 269.729 132.594 268.375 132.595 267.021C132.595 266.714 132.596 266.715 132.907 266.712C133.069 266.711 133.231 266.717 133.392 266.678C133.99 266.53 134.406 266.051 134.408 265.436C134.418 263.218 134.419 260.999 134.409 258.78ZM117.338 250.298C120.541 250.298 123.743 250.298 126.944 250.298C127.273 250.298 127.277 250.302 127.277 250.634C127.277 251.98 127.276 253.326 127.277 254.672C127.278 255.159 127.427 255.308 127.913 255.308C129.059 255.308 130.206 255.308 131.352 255.308C131.627 255.308 131.639 255.321 131.641 255.598C131.642 256.13 131.642 256.663 131.641 257.195C131.64 257.481 131.626 257.494 131.338 257.495C129.001 257.495 126.664 257.495 124.328 257.495C121.999 257.495 119.669 257.495 117.34 257.495C117.01 257.495 117.008 257.494 117.008 257.158C117.008 254.984 117.008 252.81 117.008 250.635C117.008 250.3 117.011 250.298 117.338 250.298ZM131.31 270.948C128.98 270.948 126.65 270.948 124.32 270.948C121.997 270.948 119.675 270.948 117.352 270.948C117.009 270.948 117.008 270.947 117.008 270.6C117.007 269.402 117.007 268.204 117.008 267.006C117.008 266.727 117.022 266.714 117.295 266.714C121.977 266.713 126.659 266.713 131.341 266.714C131.628 266.714 131.641 266.726 131.641 267.015C131.642 268.214 131.641 269.412 131.641 270.61C131.641 270.945 131.638 270.948 131.31 270.948Z" fill="white"/>
<path d="M123.065 259.663H124.085L125.865 264.401H124.879L124.488 263.27H122.662L122.271 264.401H121.285L123.065 259.663ZM124.197 262.449L123.773 261.265L123.601 260.689H123.548L123.376 261.265L122.953 262.449H124.197Z" fill="white"/>
<path d="M126.798 260.722C126.723 260.722 126.651 260.708 126.583 260.679C126.515 260.65 126.455 260.611 126.404 260.56C126.354 260.509 126.314 260.45 126.285 260.384C126.257 260.318 126.242 260.245 126.242 260.166C126.242 260.087 126.257 260.014 126.285 259.948C126.314 259.882 126.354 259.823 126.404 259.772C126.455 259.722 126.515 259.682 126.583 259.654C126.651 259.625 126.723 259.61 126.798 259.61C126.953 259.61 127.085 259.664 127.196 259.772C127.306 259.881 127.361 260.012 127.361 260.166C127.361 260.32 127.306 260.452 127.196 260.56C127.085 260.668 126.953 260.722 126.798 260.722ZM126.369 264.402V261.16H127.236V264.402H126.369Z" fill="white"/>
<path d="M156.624 258.78C156.62 258.045 156.048 257.507 155.31 257.496C154.756 257.487 154.811 257.568 154.81 256.976C154.808 256.317 154.806 255.659 154.812 255C154.814 254.773 154.745 254.586 154.595 254.415C153.189 252.814 151.788 251.21 150.383 249.608C150.311 249.526 150.218 249.462 150.135 249.389C146.406 249.389 142.679 249.389 138.95 249.389C138.474 249.564 138.266 249.909 138.267 250.414C138.273 252.663 138.27 254.912 138.27 257.16C138.27 257.493 138.268 257.513 137.94 257.49C137.042 257.429 136.43 258.082 136.442 258.986C136.468 261.071 136.449 263.157 136.45 265.243C136.451 266.191 136.97 266.709 137.92 266.712C138.269 266.714 138.269 266.714 138.269 267.072C138.269 268.404 138.269 269.735 138.27 271.067C138.27 271.782 138.618 272.129 139.331 272.129C144.138 272.13 148.947 272.13 153.755 272.129C154.455 272.129 154.808 271.779 154.809 271.082C154.81 269.729 154.809 268.375 154.809 267.021C154.809 266.714 154.811 266.715 155.121 266.712C155.284 266.711 155.446 266.717 155.607 266.678C156.204 266.53 156.621 266.051 156.623 265.436C156.633 263.218 156.634 260.999 156.624 258.78ZM139.553 250.298C142.755 250.298 145.958 250.298 149.159 250.298C149.488 250.298 149.492 250.302 149.492 250.634C149.492 251.98 149.491 253.326 149.492 254.672C149.493 255.159 149.642 255.308 150.128 255.308C151.274 255.308 152.421 255.308 153.567 255.308C153.842 255.308 153.854 255.321 153.855 255.598C153.857 256.13 153.857 256.663 153.855 257.195C153.855 257.481 153.841 257.494 153.553 257.495C151.216 257.495 148.879 257.495 146.543 257.495C144.213 257.495 141.884 257.495 139.554 257.495C139.224 257.495 139.223 257.494 139.223 257.158C139.223 254.984 139.223 252.81 139.223 250.635C139.223 250.3 139.226 250.298 139.553 250.298ZM153.524 270.948C151.194 270.948 148.865 270.948 146.534 270.948C144.212 270.948 141.889 270.948 139.566 270.948C139.223 270.948 139.222 270.947 139.222 270.6C139.221 269.402 139.221 268.204 139.223 267.006C139.223 266.727 139.236 266.714 139.509 266.714C144.191 266.713 148.874 266.713 153.555 266.714C153.842 266.714 153.855 266.726 153.855 267.015C153.856 268.214 153.855 269.412 153.855 270.61C153.856 270.945 153.853 270.948 153.524 270.948Z" fill="white"/>
<path d="M141.814 264.508C141.611 264.508 141.417 264.479 141.231 264.422C141.046 264.365 140.876 264.279 140.722 264.164C140.568 264.049 140.433 263.909 140.318 263.744C140.203 263.578 140.113 263.386 140.047 263.165L140.887 262.834C140.949 263.073 141.057 263.27 141.211 263.427C141.366 263.583 141.569 263.662 141.82 263.662C141.913 263.662 142.002 263.65 142.089 263.625C142.174 263.601 142.252 263.566 142.32 263.52C142.389 263.473 142.443 263.415 142.482 263.344C142.522 263.274 142.542 263.192 142.542 263.1C142.542 263.011 142.526 262.932 142.495 262.861C142.465 262.791 142.413 262.725 142.34 262.663C142.267 262.601 142.172 262.542 142.055 262.484C141.938 262.427 141.794 262.367 141.622 262.305L141.331 262.2C141.203 262.156 141.073 262.096 140.944 262.021C140.814 261.946 140.696 261.855 140.59 261.75C140.484 261.644 140.397 261.519 140.328 261.376C140.26 261.232 140.226 261.07 140.226 260.89C140.226 260.704 140.262 260.532 140.335 260.37C140.407 260.209 140.511 260.068 140.646 259.947C140.78 259.825 140.941 259.731 141.129 259.662C141.316 259.594 141.525 259.56 141.754 259.56C141.992 259.56 142.198 259.591 142.372 259.656C142.547 259.72 142.695 259.801 142.816 259.9C142.937 259.999 143.035 260.109 143.11 260.228C143.185 260.347 143.241 260.46 143.276 260.566L142.489 260.896C142.444 260.764 142.364 260.645 142.248 260.539C142.131 260.433 141.97 260.38 141.768 260.38C141.573 260.38 141.412 260.425 141.285 260.515C141.157 260.606 141.093 260.724 141.093 260.869C141.093 261.01 141.154 261.131 141.278 261.23C141.402 261.329 141.598 261.425 141.867 261.518L142.165 261.617C142.355 261.684 142.528 261.759 142.685 261.846C142.842 261.931 142.976 262.034 143.089 262.153C143.201 262.273 143.287 262.408 143.347 262.56C143.407 262.713 143.436 262.888 143.436 263.086C143.436 263.334 143.386 263.547 143.287 263.725C143.188 263.904 143.061 264.05 142.907 264.165C142.752 264.28 142.578 264.366 142.384 264.423C142.189 264.479 141.999 264.508 141.814 264.508Z" fill="white"/>
<path d="M143.707 259.663H144.673L145.653 262.515L145.825 263.124H145.878L146.063 262.515L147.083 259.663H148.049L146.321 264.401H145.382L143.707 259.663Z" fill="white"/>
<path d="M150.654 261.801H152.977C152.99 261.854 153.001 261.918 153.01 261.993C153.019 262.068 153.023 262.143 153.023 262.218C153.023 262.522 152.977 262.809 152.884 263.078C152.792 263.348 152.646 263.588 152.447 263.8C152.236 264.025 151.982 264.199 151.687 264.322C151.391 264.446 151.054 264.508 150.674 264.508C150.329 264.508 150.005 264.446 149.701 264.322C149.397 264.199 149.132 264.027 148.907 263.806C148.682 263.586 148.503 263.324 148.37 263.022C148.238 262.72 148.172 262.39 148.172 262.033C148.172 261.676 148.238 261.346 148.37 261.043C148.503 260.741 148.681 260.48 148.907 260.259C149.132 260.039 149.396 259.867 149.701 259.743C150.005 259.619 150.329 259.558 150.674 259.558C151.058 259.558 151.4 259.624 151.703 259.756C152.005 259.889 152.264 260.072 152.48 260.305L151.865 260.908C151.711 260.744 151.538 260.62 151.348 260.534C151.159 260.448 150.932 260.405 150.667 260.405C150.451 260.405 150.245 260.444 150.051 260.521C149.857 260.598 149.687 260.707 149.542 260.848C149.396 260.989 149.28 261.16 149.194 261.361C149.108 261.562 149.065 261.786 149.065 262.033C149.065 262.28 149.108 262.504 149.194 262.705C149.28 262.906 149.397 263.077 149.545 263.218C149.693 263.359 149.864 263.468 150.058 263.545C150.252 263.623 150.459 263.661 150.68 263.661C150.931 263.661 151.144 263.624 151.318 263.552C151.492 263.479 151.642 263.385 151.765 263.27C151.853 263.191 151.93 263.09 151.993 262.969C152.057 262.848 152.107 262.712 152.142 262.562H150.653V261.801H150.654Z" fill="white"/>
<path d="M178.378 258.78C178.374 258.045 177.802 257.507 177.064 257.496C176.51 257.487 176.565 257.568 176.564 256.976C176.562 256.317 176.56 255.659 176.566 255C176.567 254.773 176.498 254.586 176.348 254.415C174.943 252.814 173.542 251.21 172.137 249.608C172.065 249.526 171.972 249.462 171.889 249.389C168.16 249.389 164.432 249.389 160.704 249.389C160.228 249.564 160.02 249.909 160.021 250.414C160.027 252.663 160.024 254.912 160.024 257.16C160.024 257.493 160.022 257.513 159.694 257.49C158.795 257.429 158.184 258.082 158.195 258.986C158.222 261.071 158.203 263.157 158.204 265.243C158.204 266.191 158.724 266.709 159.674 266.712C160.023 266.714 160.023 266.714 160.023 267.072C160.023 268.404 160.022 269.735 160.024 271.067C160.024 271.782 160.372 272.129 161.084 272.129C165.892 272.13 170.701 272.13 175.508 272.129C176.209 272.129 176.561 271.779 176.563 271.082C176.564 269.729 176.563 268.375 176.563 267.021C176.563 266.714 176.564 266.715 176.875 266.712C177.038 266.711 177.2 266.717 177.361 266.678C177.958 266.53 178.375 266.051 178.377 265.436C178.387 263.218 178.388 260.999 178.378 258.78ZM161.308 250.298C164.51 250.298 167.712 250.298 170.914 250.298C171.242 250.298 171.246 250.302 171.246 250.634C171.247 251.98 171.245 253.326 171.247 254.672C171.247 255.159 171.396 255.308 171.883 255.308C173.029 255.308 174.175 255.308 175.321 255.308C175.596 255.308 175.609 255.321 175.61 255.598C175.612 256.13 175.611 256.663 175.61 257.195C175.609 257.481 175.595 257.494 175.307 257.495C172.97 257.495 170.633 257.495 168.297 257.495C165.968 257.495 163.638 257.495 161.309 257.495C160.979 257.495 160.978 257.494 160.978 257.158C160.977 254.984 160.977 252.81 160.978 250.635C160.977 250.3 160.979 250.298 161.308 250.298ZM175.279 270.948C172.949 270.948 170.619 270.948 168.289 270.948C165.966 270.948 163.643 270.948 161.321 270.948C160.978 270.948 160.976 270.947 160.976 270.6C160.976 269.402 160.976 268.204 160.977 267.006C160.977 266.727 160.991 266.714 161.264 266.714C165.946 266.713 170.628 266.713 175.31 266.714C175.597 266.714 175.609 266.726 175.609 267.015C175.61 268.214 175.61 269.412 175.609 270.61C175.61 270.945 175.607 270.948 175.279 270.948Z" fill="white"/>
<path d="M163.78 260.511V261.609H165.679V262.456H163.78V263.555H165.891V264.402H162.887V259.664H165.891V260.511L163.78 260.511Z" fill="white"/>
<path d="M166.711 264.402V259.664H168.378C168.603 259.664 168.814 259.701 169.01 259.773C169.206 259.846 169.377 259.948 169.523 260.081C169.669 260.214 169.784 260.371 169.868 260.554C169.952 260.737 169.993 260.94 169.993 261.16C169.993 261.385 169.951 261.589 169.868 261.772C169.784 261.955 169.669 262.113 169.523 262.245C169.377 262.378 169.206 262.48 169.01 262.553C168.814 262.626 168.603 262.662 168.378 262.662H167.604V264.403H166.711V264.402ZM168.392 261.814C168.625 261.814 168.802 261.748 168.921 261.616C169.04 261.484 169.1 261.331 169.1 261.159C169.1 261.075 169.085 260.994 169.056 260.914C169.028 260.835 168.984 260.766 168.924 260.706C168.864 260.647 168.791 260.599 168.702 260.564C168.614 260.529 168.51 260.511 168.391 260.511H167.604V261.814H168.392Z" fill="white"/>
<path d="M172.08 264.508C171.877 264.508 171.682 264.479 171.497 264.422C171.311 264.365 171.142 264.279 170.988 264.164C170.833 264.049 170.698 263.909 170.584 263.744C170.469 263.578 170.379 263.386 170.312 263.165L171.153 262.834C171.215 263.073 171.323 263.27 171.478 263.427C171.632 263.583 171.835 263.662 172.087 263.662C172.179 263.662 172.269 263.65 172.355 263.625C172.441 263.601 172.518 263.566 172.587 263.52C172.655 263.473 172.709 263.415 172.748 263.344C172.788 263.274 172.809 263.192 172.809 263.1C172.809 263.011 172.793 262.932 172.762 262.861C172.732 262.791 172.68 262.725 172.607 262.663C172.534 262.601 172.44 262.542 172.323 262.484C172.206 262.427 172.061 262.367 171.889 262.305L171.598 262.2C171.47 262.156 171.341 262.096 171.211 262.021C171.081 261.946 170.962 261.855 170.857 261.75C170.751 261.644 170.664 261.519 170.595 261.376C170.527 261.232 170.493 261.07 170.493 260.89C170.493 260.704 170.529 260.532 170.602 260.37C170.674 260.209 170.778 260.068 170.913 259.947C171.047 259.825 171.208 259.731 171.396 259.662C171.583 259.594 171.792 259.56 172.021 259.56C172.259 259.56 172.465 259.591 172.639 259.656C172.813 259.72 172.962 259.801 173.083 259.9C173.204 259.999 173.302 260.109 173.377 260.228C173.452 260.347 173.508 260.46 173.543 260.566L172.756 260.896C172.711 260.764 172.631 260.645 172.514 260.539C172.397 260.433 172.237 260.38 172.034 260.38C171.84 260.38 171.679 260.425 171.552 260.515C171.424 260.606 171.359 260.724 171.359 260.869C171.359 261.01 171.421 261.131 171.545 261.23C171.669 261.329 171.865 261.425 172.134 261.518L172.432 261.617C172.621 261.684 172.795 261.759 172.951 261.846C173.108 261.931 173.242 262.034 173.355 262.153C173.467 262.273 173.554 262.408 173.613 262.56C173.673 262.713 173.703 262.888 173.703 263.086C173.703 263.334 173.653 263.547 173.554 263.725C173.455 263.904 173.328 264.05 173.173 264.165C173.019 264.28 172.844 264.366 172.65 264.423C172.454 264.479 172.264 264.508 172.08 264.508Z" fill="white"/>
<path d="M192.836 263.501L195.238 260.51H192.942V259.663H196.278V260.563L193.902 263.554H196.304V264.401H192.837L192.836 263.501Z" fill="white"/>
<path d="M197.047 259.663H197.94V264.401H197.047V259.663Z" fill="white"/>
<path d="M198.891 264.402V259.664H200.558C200.783 259.664 200.994 259.701 201.19 259.773C201.386 259.846 201.557 259.948 201.703 260.081C201.849 260.214 201.963 260.371 202.047 260.554C202.131 260.737 202.173 260.94 202.173 261.16C202.173 261.385 202.131 261.589 202.047 261.772C201.963 261.955 201.849 262.113 201.703 262.245C201.557 262.378 201.386 262.48 201.19 262.553C200.994 262.626 200.783 262.662 200.558 262.662H199.784V264.403H198.891V264.402ZM200.572 261.814C200.805 261.814 200.982 261.748 201.101 261.616C201.22 261.484 201.28 261.331 201.28 261.159C201.28 261.075 201.265 260.994 201.237 260.914C201.208 260.835 201.164 260.766 201.104 260.706C201.045 260.647 200.971 260.599 200.882 260.564C200.794 260.529 200.69 260.511 200.571 260.511H199.784V261.814H200.572Z" fill="white"/>
</g>
<g opacity="0.61">
<path d="M180.078 259.963H185.518V261.308H180.078V259.963ZM180.078 262.282H185.518V263.628H180.078V262.282Z" fill="white"/>
</g>
<g opacity="0.61">
<path d="M94.0508 287.327H95.015C95.7728 287.327 96.2834 287.814 96.2834 288.512C96.2834 289.208 95.7728 289.695 95.015 289.695H94.0508V287.327ZM95.0012 289.479C95.6306 289.479 96.0362 289.08 96.0362 288.512C96.0362 287.943 95.63 287.544 95.0012 287.544H94.301V289.479H95.0012Z" fill="white"/>
<path d="M99.082 288.511C99.082 287.821 99.6094 287.307 100.327 287.307C101.037 287.307 101.568 287.817 101.568 288.511C101.568 289.204 101.037 289.715 100.327 289.715C99.61 289.715 99.082 289.201 99.082 288.511ZM101.318 288.511C101.318 287.946 100.895 287.53 100.327 287.53C99.7552 287.53 99.3292 287.946 99.3292 288.511C99.3292 289.075 99.7552 289.492 100.327 289.492C100.896 289.492 101.318 289.076 101.318 288.511Z" fill="white"/>
<path d="M107.754 287.327L106.955 289.695H106.691L105.998 287.676L105.301 289.695H105.041L104.242 287.327H104.5L105.183 289.364L105.89 287.327H106.123L106.82 289.374L107.513 287.327H107.754Z" fill="white"/>
<path d="M112.635 287.327V289.695H112.429L110.906 287.774V289.695H110.656V287.327H110.863L112.388 289.249V287.327H112.635Z" fill="white"/>
<path d="M115.852 287.327H116.102V289.479H117.428V289.695H115.852V287.327Z" fill="white"/>
<path d="M120.035 288.511C120.035 287.821 120.563 287.307 121.28 287.307C121.991 287.307 122.522 287.817 122.522 288.511C122.522 289.204 121.991 289.715 121.28 289.715C120.563 289.715 120.035 289.201 120.035 288.511ZM122.271 288.511C122.271 287.946 121.848 287.53 121.28 287.53C120.708 287.53 120.282 287.946 120.282 288.511C120.282 289.075 120.708 289.492 121.28 289.492C121.848 289.492 122.271 289.076 122.271 288.511Z" fill="white"/>
<path d="M126.977 289.062H125.658L125.374 289.694H125.113L126.196 287.326H126.443L127.525 289.694H127.261L126.977 289.062ZM126.886 288.859L126.318 287.587L125.75 288.859H126.886Z" fill="white"/>
<path d="M130.363 287.327H131.327C132.085 287.327 132.596 287.814 132.596 288.512C132.596 289.208 132.085 289.695 131.327 289.695H130.363V287.327ZM131.314 289.479C131.943 289.479 132.349 289.08 132.349 288.512C132.349 287.943 131.942 287.544 131.314 287.544H130.613V289.479H131.314Z" fill="white"/>
<path d="M140.423 289.062H139.103L138.819 289.694H138.559L139.641 287.326H139.888L140.971 289.694H140.707L140.423 289.062ZM140.332 288.859L139.763 287.587L139.195 288.859H140.332Z" fill="white"/>
<path d="M143.809 287.327H144.059V289.479H145.385V289.695H143.809V287.327Z" fill="white"/>
<path d="M148.246 287.327H148.496V289.479H149.822V289.695H148.246V287.327Z" fill="white"/>
<path d="M156.266 287.544V288.475H157.49V288.691H156.266V289.696H156.016V287.328H157.639V287.545L156.266 287.544Z" fill="white"/>
<path d="M160.605 287.327H160.856V289.695H160.605V287.327Z" fill="white"/>
<path d="M164.07 287.327H164.321V289.479H165.647V289.695H164.07V287.327Z" fill="white"/>
<path d="M170.182 289.479V289.695H168.508V287.327H170.131V287.544H168.758V288.386H169.983V288.599H168.758V289.479H170.182Z" fill="white"/>
<path d="M176.801 287.544V288.475H178.026V288.691H176.801V289.696H176.551V287.328H178.174V287.545L176.801 287.544Z" fill="white"/>
<path d="M180.898 288.511C180.898 287.821 181.426 287.307 182.143 287.307C182.854 287.307 183.385 287.817 183.385 288.511C183.385 289.204 182.854 289.715 182.143 289.715C181.426 289.715 180.898 289.201 180.898 288.511ZM183.134 288.511C183.134 287.946 182.711 287.53 182.143 287.53C181.571 287.53 181.145 287.946 181.145 288.511C181.145 289.075 181.571 289.492 182.143 289.492C182.712 289.492 183.134 289.076 183.134 288.511Z" fill="white"/>
<path d="M188.008 289.695L187.466 288.934C187.405 288.941 187.345 288.944 187.277 288.944H186.641V289.695H186.391V287.327H187.277C187.879 287.327 188.245 287.631 188.245 288.139C188.245 288.511 188.048 288.771 187.703 288.883L188.282 289.695H188.008V289.695ZM187.994 288.139C187.994 287.76 187.744 287.544 187.27 287.544H186.641V288.731H187.27C187.744 288.731 187.994 288.511 187.994 288.139Z" fill="white"/>
<path d="M193.741 287.327V289.695H193.501V287.8L192.57 289.394H192.452L191.521 287.81V289.694H191.281V287.326H191.488L192.516 289.082L193.534 287.326L193.741 287.327Z" fill="white"/>
<path d="M198.442 289.062H197.122L196.839 289.694H196.578L197.661 287.326H197.907L198.99 289.694H198.726L198.442 289.062ZM198.351 288.859L197.782 287.587L197.214 288.859H198.351Z" fill="white"/>
<path d="M202.172 287.544H201.34V287.327H203.255V287.544H202.423V289.695H202.173V287.544H202.172Z" fill="white"/>
<path d="M205.836 289.408L205.934 289.216C206.104 289.381 206.405 289.503 206.716 289.503C207.159 289.503 207.352 289.317 207.352 289.084C207.352 288.434 205.894 288.833 205.894 287.957C205.894 287.609 206.164 287.308 206.767 287.308C207.034 287.308 207.311 287.386 207.501 287.518L207.416 287.717C207.214 287.585 206.977 287.521 206.767 287.521C206.333 287.521 206.141 287.714 206.141 287.951C206.141 288.601 207.599 288.208 207.599 289.07C207.599 289.419 207.322 289.717 206.716 289.717C206.36 289.715 206.012 289.591 205.836 289.408Z" fill="white"/>
</g>
<path d="M156.378 17.6953C156.378 17.6953 127.722 65.0077 134.789 115.294C140.163 153.531 153.68 176.91 138.387 221.436C138.387 221.436 163.574 189.695 163.574 143.523C163.574 116.656 139.736 60.4225 156.378 17.6953Z" fill="#231F20"/>
<path d="M61.5446 274.23C61.1672 274.025 60.7646 273.84 60.3716 273.653C59.1914 273.08 58.1378 272.477 58.3604 271.269C58.6412 269.767 59.69 269.451 60.473 269.451C61.1468 269.451 61.9676 269.808 62.5016 270.084C62.8388 270.256 63.0614 270.396 63.0614 270.396L63.4544 268.486C63.4544 268.486 62.6966 267.962 61.9754 267.751C61.2536 267.541 58.2242 266.981 56.7296 269.684C55.1012 272.634 57.35 274.509 59.2016 275.514C59.2166 275.522 59.2322 275.527 59.2472 275.54C60.7568 276.348 62.621 277.047 62.3246 278.634C62.0462 280.137 60.7034 280.408 59.9234 280.408C58.8266 280.408 56.9756 279.346 56.9756 279.346L56.3222 281.375C56.3222 281.375 57.0242 281.889 57.746 282.096C58.4678 282.307 62.1884 282.915 63.683 280.212C65.3108 277.262 63.3956 275.233 61.5446 274.23Z" fill="#1A1818"/>
<path d="M85.2096 270.033H91.6656V267.971H83.0586V281.959H91.6656V279.897H85.2096V275.686H89.7432V273.626H85.2096V270.033Z" fill="#1A1818"/>
<path d="M114.115 267.971H110.574V281.96H112.593V276.2H115.761C115.761 276.2 119.598 276.225 119.598 271.925C119.598 267.769 114.115 267.971 114.115 267.971ZM115.893 274.719H112.593V269.61H114.873C114.873 269.61 117.866 269.59 117.866 272.168C117.866 274.355 115.893 274.719 115.893 274.719Z" fill="#1A1818"/>
<path d="M147.912 273.465H140.683V267.971H138.531V281.96H140.683V275.527H147.912V281.96H150.063V267.938H147.912V273.465Z" fill="#1A1818"/>
<path d="M176.222 267.816C172.247 267.816 169.023 271.038 169.023 275.015C169.023 278.991 172.247 282.213 176.222 282.213C180.198 282.213 183.423 278.991 183.423 275.015C183.423 271.038 180.198 267.816 176.222 267.816ZM176.224 280.13C173.4 280.13 171.108 277.84 171.108 275.016C171.108 272.192 173.4 269.902 176.224 269.902C179.048 269.902 181.337 272.192 181.337 275.016C181.337 277.839 179.048 280.13 176.224 280.13Z" fill="#1A1818"/>
<path d="M208.591 275.615C208.591 275.615 211.083 275.033 211.083 271.793C211.083 267.637 206.368 267.971 206.368 267.971H202.328V281.96H204.344V275.867H206.474L210.795 281.96H213.148L208.591 275.615ZM204.344 274.384V269.61H206.627C206.627 269.61 209.349 269.589 209.349 272.168C209.349 273.995 207.57 274.384 207.57 274.384H204.344Z" fill="#1A1818"/>
<path d="M238.839 267.929H236.993L232.059 281.96H233.903L235.09 278.572H240.741L241.989 281.96H243.831L238.839 267.929ZM235.448 277.442L237.469 270.545H237.948L240.384 277.442H235.448Z" fill="#1A1818"/>
</svg>
