<svg width="300" height="300" viewBox="0 0 300 300" fill="none" xmlns="http://www.w3.org/2000/svg">
<g clip-path="url(#clip0_2021_16557)">
<path d="M300 0H0V300H300V0Z" fill="#E2001A"/>
<path d="M148.316 194.08V101.348H205.001V115.995H163.577V141.396H199.243V155.79H163.577V194.08H148.316ZM269.349 194.08L248.605 156.742H233.111V194.08H217.849V101.348H252.098C265.877 101.348 284.272 105.221 284.272 128.293C284.272 143.978 276.144 151.238 263.316 154.625L287.426 194.08H269.306H269.349ZM250.235 142.877C264.057 142.877 268.396 136.972 268.396 128.124C268.396 122.282 265.772 115.043 250.764 115.043H233.132V142.877H250.235ZM97.9169 137.776C86.9103 134.686 85.6189 128.886 85.6189 125.119C85.6189 117.921 91.186 113.095 101.219 113.095C108.141 113.095 114.258 116.059 118.724 121.965L130.811 114.916C124.948 106.301 115.866 99.125 101.177 99.125C83.8407 99.125 69.6166 109.899 69.6166 125.796C69.6166 141.692 83.058 148.571 97.3878 152.593C97.3878 152.593 103.971 154.498 104.034 154.519C116.332 157.758 117.285 163.325 117.285 168.13C117.285 176.914 108.077 182.354 100.118 182.354C92.1596 182.354 85.1955 179.623 79.8405 170.119L67.7539 177.316C75.586 190.778 84.9841 196.261 100.203 196.261C116.989 196.261 133.223 183.454 133.223 167.452C133.223 148.508 117.857 143.153 104.563 139.702C104.5 139.702 97.938 137.797 97.938 137.797L97.9169 137.776Z" fill="white"/>
</g>
<defs>
<clipPath id="clip0_2021_16557">
<rect width="300" height="300" fill="white"/>
</clipPath>
</defs>
</svg>
