<svg width="400" height="197" viewBox="0 0 400 197" fill="none" xmlns="http://www.w3.org/2000/svg">
<path d="M107.062 158.909C89.2329 153.435 85.6491 138.042 86.7243 121.014H112.497C112.497 132.774 113.005 142.633 127.161 142.633C135.851 142.633 140.122 137.024 140.122 128.677C140.122 106.541 88.2772 105.176 88.2772 68.6043C88.2772 49.3685 97.4755 34.042 128.863 34.042C153.949 34.042 166.403 45.277 164.701 70.9695H139.614C139.614 61.7772 138.091 52.4326 127.669 52.4326C119.336 52.4326 114.379 57.0228 114.379 65.5222C114.379 88.8524 166.224 86.8097 166.224 125.451C166.224 146.739 155.771 155.462 142.989 158.909H107.062Z" fill="#76777A"/>
<path d="M228.907 73.8694C229.086 62.4611 227.205 52.4326 213.557 52.4326C197.52 52.4326 197.52 74.0426 197.52 97.8745C197.52 136.331 201.283 143.149 215.946 143.149C220.217 143.149 224.816 142.125 228.728 140.757V113.527H214.751V94.6402H254.501V156.938C251.754 157.469 247.453 158.207 242.585 158.909H198.505C174.613 152.966 171.418 134.064 171.418 96.5187C171.418 65.5222 172.971 34.042 215.08 34.042C240.345 34.042 256.024 48.1709 254.501 73.8694H228.907Z" fill="#76777A"/>
<path d="M303.152 34.0422C325.67 33.9914 337.974 42.7985 339.677 62.5689V70.9698H314.59C314.62 62.0104 312.38 52.4328 301.958 52.4328C293.596 52.4328 288.638 57.023 288.638 65.5224C288.638 87.0876 332.957 86.9742 339.677 117.346V135.149C336.929 149.523 327.91 156.045 317.278 158.909H281.351C263.522 153.435 259.938 138.043 261.013 121.014H286.786C286.786 132.774 287.294 142.633 301.45 142.633C310.141 142.633 314.411 137.024 314.411 128.677C314.411 106.541 262.536 105.177 262.536 68.6045C262.536 49.3687 271.765 34.1109 303.152 34.0422Z" fill="#76777A"/>
<path d="M9.52344 161.871H390.476V158.908H9.52344V161.871Z" fill="#F69138"/>
<path d="M339.676 187.268H342.632V9.49316H339.676V187.268Z" fill="#F69138"/>
</svg>
