<svg width="400" height="121" viewBox="0 0 400 121" fill="none" xmlns="http://www.w3.org/2000/svg">
<path d="M187.854 42.3507C187.73 37.9392 186.733 34.6621 184.74 32.3933C182.747 30.1246 179.757 29.1162 175.646 29.1162C171.784 29.1162 168.67 30.1245 166.179 32.2673C163.687 34.41 162.317 37.6871 162.068 42.3507H187.854ZM207.536 54.5768H162.068C162.317 59.6185 164.185 63.5258 167.549 66.2987C170.912 68.9456 175.895 70.3321 182.622 70.3321C186.858 70.3321 190.844 69.5758 194.83 67.9373C198.816 66.2987 201.806 64.6602 204.173 62.8956H206.415V79.6592C201.931 81.5498 197.695 82.9363 193.709 83.8186C189.723 84.7009 185.363 85.079 180.504 85.079C168.047 85.079 158.58 82.18 151.977 76.2561C145.375 70.3321 142.012 62.0133 142.012 51.0476C142.012 40.2079 145.126 31.7631 151.355 25.461C157.583 19.1589 166.179 16.0078 177.141 16.0078C187.231 16.0078 194.706 18.6547 199.813 24.0745C204.92 29.4943 207.412 37.1829 207.412 47.2663V54.5768H207.536Z" fill="#262626"/>
<path d="M281.905 37.0568V83.3143H261.974V50.6694C261.974 47.5183 261.849 44.7454 261.725 42.6027C261.6 40.3339 261.226 38.5693 260.479 37.1829C259.856 35.7964 258.859 34.788 257.489 34.1578C256.119 33.5276 254.25 33.1495 251.883 33.1495C249.89 33.1495 248.022 33.5276 246.153 34.4099C244.284 35.2922 242.665 36.1745 241.17 37.0568V83.3143H221.363V18.0244H241.17V25.2088C244.534 22.4359 247.897 20.1671 250.887 18.5286C254.001 16.89 257.489 16.1338 261.226 16.1338C265.337 16.1338 268.825 17.1421 271.939 19.0328C275.054 20.9234 277.545 23.8224 279.289 27.4776C283.275 23.9484 287.137 21.1755 290.874 19.1588C294.612 17.1421 298.224 16.1338 301.837 16.1338C308.439 16.1338 313.546 18.2765 317.034 22.4359C320.522 26.7213 322.266 32.7714 322.266 40.712V83.1883H302.46V50.5433C302.46 47.2662 302.335 44.6193 302.21 42.3506C302.086 40.0818 301.712 38.3172 300.965 36.9308C300.342 35.5443 299.345 34.536 297.975 33.9058C296.605 33.2755 294.736 32.8974 292.245 32.8974C290.625 32.8974 289.006 33.1495 287.386 33.7797C286.016 34.662 284.147 35.6703 281.905 37.0568Z" fill="#262626"/>
<path d="M378.074 66.2986V52.686C375.458 52.9381 372.468 53.1902 369.354 53.6943C366.24 54.0725 363.873 54.5766 362.253 55.0808C360.26 55.711 358.765 56.7194 357.769 57.9798C356.772 59.2402 356.149 60.8788 356.149 62.8954C356.149 64.2819 356.274 65.4163 356.523 66.1725C356.772 67.0548 357.271 67.8111 358.143 68.5673C359.015 69.3236 360.011 69.9538 361.132 70.3319C362.253 70.71 364.122 70.8361 366.613 70.8361C368.607 70.8361 370.6 70.458 372.593 69.5757C374.835 68.8194 376.579 67.685 378.074 66.2986ZM378.074 76.508C376.953 77.3903 375.707 78.3986 374.088 79.533C372.468 80.7934 370.973 81.6757 369.603 82.432C367.61 83.3143 365.617 84.0705 363.499 84.4487C361.381 84.9528 359.139 85.0789 356.648 85.0789C350.793 85.0789 345.934 83.1882 341.948 79.2809C337.962 75.4997 335.969 70.584 335.969 64.534C335.969 59.7444 336.965 55.8371 338.958 52.812C340.952 49.787 343.817 47.3922 347.554 45.6276C351.166 43.863 355.776 42.6026 361.132 41.8464C366.489 41.0901 372.219 40.5859 377.949 40.2078V39.8297C377.949 36.1744 376.579 33.7797 373.714 32.3932C370.973 31.0067 366.863 30.3765 361.381 30.3765C358.142 30.3765 354.655 31.0067 350.917 32.1411C347.18 33.4015 344.564 34.2838 342.945 34.914H341.076V19.4108C343.194 18.7806 346.557 18.1504 351.291 17.3941C356.025 16.6379 360.758 16.2598 365.492 16.2598C376.704 16.2598 384.925 18.1504 389.908 21.8056C394.891 25.4609 397.383 31.2588 397.383 39.0734V83.5664H377.7V76.508H378.074Z" fill="#262626"/>
<path d="M110.992 12.1001C110.992 18.7803 105.884 24.2001 99.5309 24.2001C93.1778 24.2001 88.0703 18.7803 88.0703 12.1001C88.0703 5.41982 93.1778 0 99.5309 0C105.884 0 110.992 5.41982 110.992 12.1001Z" fill="#E7433C"/>
<path d="M386.548 100.707V119.488H400.001V115.706H390.658V100.707H386.548ZM377.952 110.035C377.952 113.564 375.585 116.085 371.973 116.085C368.485 116.085 365.993 113.564 365.993 110.035C365.993 106.631 368.485 103.985 371.973 103.985C375.585 103.985 377.952 106.631 377.952 110.035ZM381.938 110.035C381.938 103.858 377.828 100.203 371.973 100.203C365.993 100.203 361.882 103.985 361.882 110.035C361.882 116.211 365.993 119.866 371.973 119.866C377.952 119.866 381.938 116.211 381.938 110.035ZM354.408 110.035C354.408 113.564 352.041 116.085 348.429 116.085C344.941 116.085 342.449 113.564 342.449 110.035C342.449 106.631 344.941 103.985 348.429 103.985C352.041 103.985 354.408 106.631 354.408 110.035ZM358.519 110.035C358.519 103.858 354.408 100.203 348.553 100.203C342.574 100.203 338.463 103.985 338.463 110.035C338.463 116.211 342.574 119.866 348.553 119.866C354.408 119.866 358.519 116.211 358.519 110.035ZM333.978 119.488V100.707H329.867V108.27H321.521V100.707H317.41V119.488H321.521V112.051H329.867V119.488H333.978ZM310.932 114.32C309.811 115.454 307.818 116.085 306.323 116.085C301.963 116.085 300.468 112.934 300.468 110.287C300.468 107.514 302.088 104.237 306.323 104.237C307.818 104.237 309.438 104.741 310.559 105.749L313.175 103.102C311.306 101.212 308.939 100.203 306.323 100.203C299.472 100.203 296.358 105.245 296.358 110.161C296.358 115.328 299.223 119.866 306.323 119.866C309.064 119.866 311.555 118.984 313.424 117.093L310.932 114.32ZM292.247 102.85C290.378 100.581 288.136 99.9512 285.271 99.9512C281.409 99.9512 277.921 101.968 277.921 105.623C277.921 110.035 281.409 111.043 285.271 111.421C287.762 111.673 289.008 112.303 289.008 113.942C289.008 115.328 287.513 116.211 285.271 116.211C283.402 116.211 281.035 115.454 279.54 113.564L277.049 116.211C278.668 118.858 281.907 120.118 285.146 120.118C289.132 120.118 292.994 118.227 292.994 114.068C292.994 109.656 289.506 108.27 285.894 108.018C283.527 107.766 281.907 107.514 281.907 105.749C281.907 104.489 283.402 103.732 285.271 103.732C286.766 103.732 288.51 104.237 289.506 105.371L292.247 102.85ZM265.588 102.85C263.72 100.581 261.477 99.9512 258.612 99.9512C254.751 99.9512 251.263 101.968 251.263 105.623C251.263 110.035 254.751 111.043 258.612 111.421C261.104 111.673 262.349 112.303 262.349 113.942C262.349 115.328 260.855 116.211 258.612 116.211C256.744 116.211 254.377 115.454 252.882 113.564L250.391 116.211C252.01 118.858 255.249 120.118 258.488 120.118C262.474 120.118 266.336 118.227 266.336 114.068C266.336 109.656 262.848 108.27 259.235 108.018C256.868 107.766 255.249 107.514 255.249 105.749C255.249 104.489 256.744 103.732 258.612 103.732C260.107 103.732 261.851 104.237 262.848 105.371L265.588 102.85ZM246.778 102.85C244.909 100.581 242.667 99.9512 239.802 99.9512C235.94 99.9512 232.452 101.968 232.452 105.623C232.452 110.035 235.94 111.043 239.802 111.421C242.293 111.673 243.539 112.303 243.539 113.942C243.539 115.328 242.044 116.211 239.802 116.211C237.933 116.211 235.567 115.454 234.072 113.564L231.58 116.211C233.2 118.858 236.439 120.118 239.677 120.118C243.664 120.118 247.525 118.227 247.525 114.068C247.525 109.656 244.037 108.27 240.425 108.018C238.058 107.766 236.439 107.514 236.439 105.749C236.439 104.489 237.933 103.732 239.802 103.732C241.297 103.732 243.041 104.237 244.037 105.371L246.778 102.85ZM228.466 115.58H218.376V111.799H227.469V108.144H218.376V104.489H228.092V100.707H214.265V119.488H228.466V115.58V115.58ZM195.454 100.707H191.842V119.488H196.077V113.69L195.953 107.514L205.171 119.488H208.784V100.707H204.673V107.01L204.922 112.934L195.454 100.707ZM186.361 100.707H182.25V119.488H186.361V100.707ZM177.018 102.85C175.149 100.581 172.907 99.9512 170.042 99.9512C166.18 99.9512 162.692 101.968 162.692 105.623C162.692 110.035 166.18 111.043 170.042 111.421C172.533 111.673 173.779 112.303 173.779 113.942C173.779 115.328 172.284 116.211 170.042 116.211C168.173 116.211 165.806 115.454 164.311 113.564L161.82 116.211C163.439 118.858 166.678 120.118 169.917 120.118C173.904 120.118 177.765 118.227 177.765 114.068C177.765 109.656 174.277 108.27 170.665 108.018C168.298 107.766 166.678 107.514 166.678 105.749C166.678 104.489 168.173 103.732 170.042 103.732C171.537 103.732 173.281 104.237 174.277 105.371L177.018 102.85ZM154.097 100.707V111.169C154.097 113.942 153.1 115.959 150.235 116.085C147.245 116.211 145.377 114.446 145.377 111.169V100.707H141.266V111.169C141.266 117.219 145.377 119.992 150.235 119.866C155.093 119.74 158.207 116.715 158.207 111.169V100.707H154.097ZM120.836 100.707V119.488H130.179C133.916 119.488 136.407 118.101 136.906 115.076C137.279 112.934 136.283 110.539 133.916 109.656C135.66 108.774 136.407 107.388 136.407 105.875C136.407 102.346 133.542 100.833 129.93 100.833H120.836V100.707ZM124.822 104.363H129.93C131.549 104.363 132.297 105.119 132.297 106.253C132.297 107.388 131.549 108.018 129.93 108.018H124.947V104.363H124.822ZM124.822 111.421H129.805C131.674 111.421 132.546 112.303 132.546 113.564C132.546 114.824 131.674 115.706 129.805 115.706H124.698V111.421H124.822Z" fill="#E7433C"/>
<path d="M57.9259 62.8954C57.9259 69.7016 55.0607 75.1215 49.3304 79.1548C43.6001 83.3142 35.7521 85.3309 25.7864 85.3309C20.3052 85.3309 15.3223 84.8267 10.8377 83.6923C6.35316 82.558 2.74058 81.4236 0 80.0371V62.7693H1.8686C2.86517 63.5256 3.9863 64.2818 5.35659 65.1641C6.60231 66.0464 8.47088 66.9287 10.8377 67.9371C12.8309 68.8194 15.1978 69.5756 17.8138 70.2058C20.4298 70.836 23.1704 71.2142 26.1601 71.2142C30.0218 71.2142 32.887 70.71 34.7555 69.8277C36.6241 68.9454 37.6207 67.5589 37.6207 65.7943C37.6207 64.1558 37.1224 63.0214 36.0013 62.3912C34.8801 61.6349 32.7624 61.0047 29.7727 60.3745C28.2778 59.9964 26.2846 59.6183 23.7932 59.2401C21.3018 58.862 19.0595 58.3578 16.9418 57.7276C11.336 56.2151 7.22515 53.8203 4.48457 50.5432C1.74399 47.2661 0.373719 43.2328 0.373719 38.3171C0.373719 32.015 3.23886 26.8473 8.84459 22.6879C14.4503 18.5285 22.1738 16.3857 31.8904 16.3857C36.4995 16.3857 40.9841 16.8899 45.2196 17.8983C49.455 18.9066 52.8184 19.9149 55.1853 21.0493V37.5609H53.4413C50.4516 35.4181 47.2127 33.6535 43.351 32.3931C39.6138 31.0067 35.7521 30.3764 31.8904 30.3764C28.6515 30.3764 26.0355 30.8806 23.7932 31.7629C21.5509 32.6452 20.5544 34.0317 20.5544 35.6702C20.5544 37.1827 21.0526 38.4431 22.0492 39.1994C23.0458 39.9557 25.4126 40.838 29.0252 41.5942C31.0184 41.9723 33.2607 42.4765 35.503 42.8546C37.8698 43.2328 40.1121 43.7369 42.479 44.3671C47.711 45.7536 51.5727 48.0224 54.0642 51.1734C56.6802 54.4505 57.9259 58.3578 57.9259 62.8954Z" fill="#262626"/>
<path d="M96.2924 36.3L108.376 26.4687L118.466 18.276H129.927L112.86 44.9969L140.391 84.0701H118.84L90.9359 44.4928V101.59H71.1289V7.81445H76.3609L96.2924 36.3Z" fill="#262626"/>
</svg>
