<svg width="400" height="135" viewBox="0 0 400 135" fill="none" xmlns="http://www.w3.org/2000/svg">
<path d="M190.012 82.1911L185.656 103.943C183.739 112.762 178.427 118.647 167.575 118.647C155.119 118.647 151.832 110.923 154.565 100.053C158.432 84.6332 171.011 80.0394 190.012 82.1911ZM209.627 51.0918L196.385 51.9368L192.197 73.2343C187.134 73.0556 185.541 72.8956 179.588 72.8956C160.953 72.8956 144.688 80.7281 140.392 99.1033C136.521 115.669 145.932 128.527 166.455 128.527C187.477 128.527 196.623 117.56 199.911 102.137L209.627 51.0918Z" fill="#2B3797"/>
<path d="M65.9696 83.1192C46.5521 81.3509 29.8484 82.9629 29.5766 89.5557C29.156 99.4543 61.5806 90.8177 60.9551 109.029C60.0431 135.784 14.9577 129.63 3.80078 126.224L5.82592 118.284C25.061 121.336 45.3534 121.589 45.8001 110.98C46.2766 99.7038 13.718 109.841 14.4812 91.5809C15.0507 77.9782 35.3989 70.6445 68.7058 75.5361L65.9696 83.1192Z" fill="#2B3797"/>
<path d="M118.326 101.319C115.523 112.487 106.667 119.501 96.1202 119.501C85.0937 119.501 80.1313 113.109 83.0871 101.319C85.894 90.1511 94.8545 82.6537 105.397 82.6537C115.932 82.6537 121.129 90.1511 118.326 101.319ZM107.095 73.5107C87.7852 73.5107 72.2616 84.6825 68.4458 101.319C64.6189 117.967 75.0164 129.135 94.3185 129.135C113.621 129.135 129.148 117.967 132.967 101.319C136.794 84.6825 126.401 73.5107 107.095 73.5107Z" fill="#2B3797"/>
<path d="M330.203 128.853H313.417C303.239 119.282 283.766 97.292 269.43 74.0215H281.748C295.362 92.8061 330.203 128.853 330.203 128.853Z" fill="#2B3797"/>
<path d="M347.794 19.9444L355.515 3.84375L357.719 20.2124L373.466 14.7028L362.462 28.8118L374.397 38.0589L358.467 39.2911L357.589 56.3113L348.732 43.7323L335.714 55.7342L340.595 38.8221L325.242 36.7411L340.185 28.2273L334.054 13.6605L347.794 19.9444Z" fill="#2B3797"/>
<path d="M380.524 101.488C377.677 112.831 368.683 119.956 357.972 119.956C346.775 119.956 341.727 113.463 344.735 101.488C347.582 90.1446 356.681 82.528 367.387 82.528C378.101 82.528 383.376 90.1446 380.524 101.488ZM369.114 73.2324C349.507 73.2324 333.742 84.5829 329.855 101.488C325.972 118.396 336.534 129.743 356.141 129.743C375.752 129.743 391.521 118.396 395.4 101.488C399.287 84.5829 388.726 73.2324 369.114 73.2324Z" fill="#2B3797"/>
<path d="M256.707 124.179C288.409 106.571 315.946 79.5105 335.479 56.1172C321.437 100.067 287.635 123.721 256.707 124.179Z" fill="#ED1C24"/>
<path d="M244.163 81.6671C250.234 81.6671 253.54 83.8709 253.54 88.0813C253.54 99.2568 231.751 98.5197 222.143 96.5615C225.523 88.1967 233.155 81.6671 244.163 81.6671ZM266.599 87.4707C266.599 79.3665 260.14 73.4102 245.484 73.4102C221.715 73.4102 206.27 88.8407 206.27 107.942C206.27 120.279 216.511 130.531 235.217 130.531C248.105 130.531 256.712 124.18 256.712 124.18C240.31 125.937 220.166 124.18 220.166 106.631C220.166 105.935 220.204 105.239 220.259 104.543C242.64 109.189 266.599 103.568 266.599 87.4707Z" fill="#2B3797"/>
</svg>
